<svg width="18" height="18" viewBox="0 0 18 18" fill="none" xmlns="http://www.w3.org/2000/svg">
    <path
        d="M7.2373 10.35L8.44481 11.2875C8.60231 11.445 8.95481 11.52 9.18731 11.52H10.6723C11.1373 11.52 11.6473 11.1675 11.7673 10.7025L12.7048 7.85998C12.8998 7.31248 12.5473 6.8475 11.9623 6.8475H10.4023C10.1698 6.8475 9.97481 6.6525 10.0123 6.3825L10.2073 5.13748C10.2823 4.78498 10.0498 4.39497 9.6973 4.28247C9.3823 4.16247 8.9923 4.31996 8.8423 4.55246L7.24481 6.92999"
        stroke="#9EABBE" stroke-width="1.5" stroke-miterlimit="10" />
    <path
        d="M5.25 10.3501V6.53253C5.25 5.98503 5.48249 5.79004 6.02999 5.79004H6.42C6.9675 5.79004 7.2 5.98503 7.2 6.53253V10.3501C7.2 10.8976 6.9675 11.0926 6.42 11.0926H6.02999C5.48249 11.0926 5.25 10.8976 5.25 10.3501Z"
        stroke="#9EABBE" stroke-width="1.5" stroke-linecap="round" stroke-linejoin="round" />
    <path
        d="M13.5 14.1453H12.93C12.33 14.1453 11.76 14.3778 11.34 14.7978L10.0575 16.0653C9.4725 16.6428 8.52 16.6428 7.935 16.0653L6.6525 14.7978C6.2325 14.3778 5.655 14.1453 5.0625 14.1453H4.5C3.255 14.1453 2.25 13.1478 2.25 11.9178V3.73529C2.25 2.50529 3.255 1.50781 4.5 1.50781H13.5C14.745 1.50781 15.75 2.50529 15.75 3.73529V11.9178C15.75 13.1403 14.745 14.1453 13.5 14.1453Z"
        stroke="#9EABBE" stroke-width="1.5" stroke-miterlimit="10" stroke-linecap="round"
        stroke-linejoin="round" />
</svg>
