<svg xmlns="http://www.w3.org/2000/svg" width="54" height="54" viewBox="0 0 54 54" fill="none">
    <g clip-path="url(#clip0_475_4355)">
        <path d="M33.434 7.82709C33.4062 7.85305 33.3775 7.88079 33.3498 7.90854L27.0144 14.2376L20.6782 7.90944C20.6504 7.88169 20.6226 7.85394 20.5948 7.82798L22.5346 0.0999281L27.0144 0.0444336L31.4942 0.0999281L33.434 7.82709Z" fill="#2A174E" stroke="#2A174E" stroke-width="0.089408" stroke-miterlimit="10"/>
        <path d="M35.974 17.9463V23.1887L33.3497 20.5671L30.7263 17.9463H35.974Z" fill="#2A174E" stroke="#2A174E" stroke-width="0.089408" stroke-miterlimit="10"/>
        <path d="M33.434 45.9652L31.4942 53.6924L27.0144 53.7487L22.5346 53.6924L20.5948 45.9652L20.6782 45.8837L27.0135 39.5547L33.3498 45.8837C33.3784 45.9115 33.4062 45.9392 33.434 45.9652Z" fill="#2A174E" stroke="#2A174E" stroke-width="0.089408" stroke-miterlimit="10"/>
        <path d="M53.8932 26.8967L53.8368 31.372L46.1028 33.3099C46.0769 33.2821 46.0491 33.2535 46.0213 33.2257L39.686 26.8967L35.974 30.605L39.6851 26.8976L46.0204 20.5676C46.0482 20.5399 46.076 20.5121 46.1019 20.4844L53.8368 22.4222L53.8932 26.8967Z" fill="#2A174E" stroke="#2A174E" stroke-width="0.089408" stroke-miterlimit="10"/>
        <path d="M14.3428 26.8966L8.00742 33.2256C7.97964 33.2534 7.95187 33.282 7.92588 33.3098L0.191048 31.372L0.135498 26.8966L0.191048 22.4212L7.92588 20.4834C7.95187 20.5111 7.97964 20.5398 8.00742 20.5675L14.3428 26.8966Z" fill="#2A174E" stroke="#2A174E" stroke-width="0.089408" stroke-miterlimit="10"/>
        <path d="M35.974 30.605V35.8474H30.7263L33.3506 33.2258L35.974 30.605Z" fill="#2A174E" stroke="#2A174E" stroke-width="0.089408" stroke-miterlimit="10"/>
        <path d="M23.3023 35.8474H18.0547V30.605L20.6781 33.2258L23.3023 35.8474Z" fill="#2A174E" stroke="#2A174E" stroke-width="0.089408" stroke-miterlimit="10"/>
        <path d="M23.3023 17.9463L18.0547 23.1887V17.9463H23.3023Z" fill="#2A174E" stroke="#2A174E" stroke-width="0.089408" stroke-miterlimit="10"/>
        <path d="M30.7263 17.9457H23.3024L27.0134 14.2383H27.0143L30.7263 17.9457Z" fill="#703EDB"/>
        <path d="M48.6447 14.2375C48.6481 16.5717 47.7352 18.8142 46.1019 20.4833L35.9776 17.9458L33.4375 7.83149C34.6996 6.60349 36.2962 5.77449 38.0275 5.44816C39.7587 5.12183 41.5479 5.31267 43.1712 5.99679C44.7944 6.68092 46.1798 7.82797 47.154 9.2945C48.1281 10.761 48.6479 12.4819 48.6482 14.242L48.6447 14.2375Z" fill="#703EDB"/>
        <path d="M30.7255 35.8472L27.0144 39.5546H27.0135L23.3033 35.8472H30.7255Z" fill="#703EDB"/>
        <path d="M39.6851 26.8964L35.974 30.6037V23.189L39.6851 26.8964Z" fill="#703EDB"/>
        <path d="M18.0547 23.189V30.6037L14.3436 26.8964L18.0547 23.189Z" fill="#703EDB"/>
        <path d="M46.0212 45.8839C44.3552 47.548 42.1001 48.4896 39.7443 48.5049C37.3884 48.5201 35.1213 47.6078 33.4338 45.9653L35.9739 35.851L46.0983 33.3135C47.7416 34.9985 48.6548 37.262 48.6403 39.6145C48.6259 41.9669 47.685 44.2191 46.0212 45.8839Z" fill="#703EDB"/>
        <path d="M20.5947 45.965C18.904 47.5902 16.6426 48.4879 14.2964 48.4654C11.9502 48.4429 9.70654 47.5018 8.04741 45.8444C6.38828 44.1871 5.44613 41.9457 5.42339 39.6018C5.40066 37.258 6.29916 34.9987 7.92584 33.3096L18.0547 35.8471L20.5947 45.965Z" fill="#703EDB"/>
        <path d="M20.5947 7.82807L18.0547 17.9424L7.93033 20.4799C6.33801 18.7848 5.46832 16.5372 5.50528 14.2129C5.54224 11.8885 6.48295 9.66968 8.12836 8.0259C9.77377 6.38213 11.9948 5.44235 14.3215 5.40543C16.6481 5.3685 18.8979 6.23733 20.5947 7.82807Z" fill="#703EDB"/>
    </g>
    <defs>
        <clipPath id="clip0_475_4355">
            <rect width="53.8473" height="53.7939" fill="white" transform="translate(0.0909424)"/>
        </clipPath>
    </defs>
</svg>