<svg width="21" height="20" viewBox="0 0 21 20" fill="none" xmlns="http://www.w3.org/2000/svg">
<g id="fi-sr-credit-card" clip-path="url(#clip0_498_13073)">
<path id="Vector" d="M16.3333 2.5H4.66667C3.562 2.50132 2.50296 2.94073 1.72185 3.72185C0.940735 4.50296 0.501323 5.562 0.5 6.66667H20.5C20.4987 5.562 20.0593 4.50296 19.2782 3.72185C18.497 2.94073 17.438 2.50132 16.3333 2.5V2.5Z" fill="#703EDB"/>
<path id="Vector_2" d="M0.5 13.3332C0.501323 14.4378 0.940735 15.4969 1.72185 16.278C2.50296 17.0591 3.562 17.4985 4.66667 17.4998H16.3333C17.438 17.4985 18.497 17.0591 19.2782 16.278C20.0593 15.4969 20.4987 14.4378 20.5 13.3332V8.33319H0.5V13.3332ZM6.33333 12.9165C6.33333 13.1637 6.26002 13.4054 6.12267 13.611C5.98532 13.8165 5.7901 13.9768 5.56169 14.0714C5.33328 14.166 5.08195 14.1907 4.83947 14.1425C4.59699 14.0943 4.37427 13.9752 4.19945 13.8004C4.02463 13.6256 3.90558 13.4029 3.85735 13.1604C3.80912 12.9179 3.83387 12.6666 3.92848 12.4382C4.02309 12.2098 4.18331 12.0145 4.38887 11.8772C4.59443 11.7398 4.83611 11.6665 5.08333 11.6665C5.41485 11.6665 5.7328 11.7982 5.96722 12.0326C6.20164 12.2671 6.33333 12.585 6.33333 12.9165" fill="#703EDB"/>
</g>
<defs>
<clipPath id="clip0_498_13073">
<rect width="20" height="20" fill="white" transform="translate(0.5)"/>
</clipPath>
</defs>
</svg>
