<svg width="21" height="20" viewBox="0 0 21 20" fill="none" xmlns="http://www.w3.org/2000/svg">
<g id="fi-ss-comments" clip-path="url(#clip0_498_13095)">
<path id="Vector" d="M8 15H0.5V7.5C0.5 6.01664 0.939867 4.5666 1.76398 3.33323C2.58809 2.09986 3.75943 1.13856 5.12987 0.570907C6.50032 0.00324965 8.00832 -0.145275 9.46318 0.144114C10.918 0.433503 12.2544 1.14781 13.3033 2.1967C14.3522 3.2456 15.0665 4.58197 15.3559 6.03683C15.6453 7.49168 15.4968 8.99968 14.9291 10.3701C14.3614 11.7406 13.4001 12.9119 12.1668 13.736C10.9334 14.5601 9.48336 15 8 15V15ZM17.1667 7.56667C17.1475 9.97421 16.1826 12.2777 14.4801 13.9802C12.7777 15.6826 10.4742 16.6475 8.06667 16.6667V16.6667C8.65121 17.6791 9.49172 18.5201 10.5039 19.1051C11.516 19.6902 12.6642 19.9988 13.8333 20H20.5V13.3333C20.4988 12.1643 20.1902 11.016 19.6051 10.0039C19.0201 8.99172 18.1791 8.15121 17.1667 7.56667Z" fill="#703EDB"/>
</g>
<defs>
<clipPath id="clip0_498_13095">
<rect width="20" height="20" fill="white" transform="translate(0.5)"/>
</clipPath>
</defs>
</svg>
