<svg width="18" height="18" viewBox="0 0 18 18" fill="none" xmlns="http://www.w3.org/2000/svg">
<rect x="1" y="1" width="16" height="16" rx="8" fill="#703EDB" stroke="#F8F8F8" stroke-width="0.8"/>
<mask id="mask0_429_10564" style="mask-type:alpha" maskUnits="userSpaceOnUse" x="5" y="5" width="8" height="8">
<path d="M7.45653 12.4434L11.4566 8.44335L9.55665 6.54338L5.55656 10.5435C5.50149 10.5986 5.46237 10.6676 5.44335 10.7432L5 13L7.25637 12.5566C7.33213 12.5377 7.40143 12.4985 7.45653 12.4434ZM12.7479 7.15202C12.9093 6.99058 13 6.77165 13 6.54338C13 6.3151 12.9093 6.09617 12.7479 5.93473L12.0653 5.25205C11.9038 5.09066 11.6849 5 11.4566 5C11.2283 5 11.0094 5.09066 10.848 5.25205L10.1653 5.93473L12.0653 7.8347L12.7479 7.15202Z" fill="white"/>
</mask>
<g mask="url(#mask0_429_10564)">
<rect x="4.2" y="4.19995" width="9.6" height="9.6" fill="white"/>
</g>
</svg>
