<svg width="17" height="20" viewBox="0 0 17 20" fill="none" xmlns="http://www.w3.org/2000/svg">
<g id="Group">
<path id="Vector" d="M14.3333 7.02V5.83332C14.3333 2.61168 11.7216 0 8.49995 0C5.27827 0 2.66663 2.61168 2.66663 5.83332V7.02C1.14999 7.68191 0.168813 9.17856 0.166626 10.8333V15.8333C0.16936 18.1334 2.03323 19.9973 4.33327 20H12.6666C14.9666 19.9973 16.8305 18.1334 16.8333 15.8333V10.8333C16.8311 9.17856 15.8499 7.68191 14.3333 7.02ZM9.33327 14.1667C9.33327 14.6269 8.96018 15 8.49995 15C8.03971 15 7.66663 14.6269 7.66663 14.1667V12.5C7.66663 12.0398 8.03971 11.6667 8.49995 11.6667C8.96018 11.6667 9.33327 12.0398 9.33327 12.5V14.1667V14.1667ZM12.6666 6.66668H4.33327V5.83336C4.33327 3.53219 6.19874 1.66668 8.49995 1.66668C10.8012 1.66668 12.6666 3.53215 12.6666 5.83336V6.66668V6.66668Z" fill="#703EDB"/>
</g>
</svg>
