<svg width="18" height="18" viewBox="0 0 20 20" fill="none" xmlns="http://www.w3.org/2000/svg">
    <path
        d="M6.75 16.5H11.25C15 16.5 16.5 15 16.5 11.25V6.75C16.5 3 15 1.5 11.25 1.5H6.75C3 1.5 1.5 3 1.5 6.75V11.25C1.5 15 3 16.5 6.75 16.5Z"
        stroke="#6546E7" stroke-width="1.5" stroke-linecap="round" stroke-linejoin="round" />
    <path d="M5.02539 6.94531L9.00038 9.24781L12.9454 6.96031" stroke="#6546E7" stroke-width="1.5"
        stroke-linecap="round" stroke-linejoin="round" />
    <path d="M9 13.3277V9.24023" stroke="#6546E7" stroke-width="1.5" stroke-linecap="round"
        stroke-linejoin="round" />
    <path
        d="M8.0697 4.71739L5.66969 6.05239C5.12969 6.35239 4.67969 7.10989 4.67969 7.73239V10.2749C4.67969 10.8974 5.12219 11.6549 5.66969 11.9549L8.0697 13.2899C8.5797 13.5749 9.41969 13.5749 9.93719 13.2899L12.3372 11.9549C12.8772 11.6549 13.3272 10.8974 13.3272 10.2749V7.72489C13.3272 7.10239 12.8847 6.34489 12.3372 6.04489L9.93719 4.70989C9.41969 4.42489 8.5797 4.42489 8.0697 4.71739Z"
        stroke="#6546E7" stroke-width="1.5" stroke-linecap="round" stroke-linejoin="round" />
</svg>
