<svg width="749" height="150" viewBox="0 0 749 150" fill="none" xmlns="http://www.w3.org/2000/svg">
    <g filter="url(#filter0_i_10401_9297)">
        <path
            d="M228.5 30.412C204.58 30.412 197.864 38.784 197.864 67.028C197.864 95.088 204.58 103.46 228.5 103.46C252.42 103.46 259.228 95.088 259.228 67.028C259.228 38.784 252.42 30.412 228.5 30.412ZM228.5 45.224C239.632 45.224 241.932 50.56 241.932 67.028C241.932 83.312 239.632 88.648 228.5 88.648C217.46 88.648 215.068 83.312 215.068 67.028C215.068 50.56 217.46 45.224 228.5 45.224ZM292.806 50.376C284.618 50.376 274.958 50.652 269.254 52.032C268.426 52.216 267.966 52.308 267.966 53.412V101.528C267.966 102.54 268.334 103 269.254 103H282.778C283.698 103 284.158 102.54 284.158 101.528V64.176H290.322C298.51 64.176 299.338 64.912 299.338 77.7V101.528C299.338 102.54 299.706 103 300.626 103H313.966C314.886 103 315.346 102.54 315.346 101.528V72.732C315.346 54.332 311.022 50.376 292.806 50.376ZM326.309 30.964C325.389 30.964 324.929 31.516 324.929 32.436V101.528C324.929 102.54 325.389 103 326.309 103H339.557C340.477 103 340.937 102.54 340.937 101.528V32.436C340.937 31.516 340.477 30.964 339.557 30.964H326.309ZM358.99 28.296C353.01 28.296 349.606 31.424 349.606 36.668C349.606 42.004 353.01 45.132 358.99 45.132C364.786 45.132 368.19 42.004 368.19 36.668C368.19 31.424 364.786 28.296 358.99 28.296ZM352.274 50.836C351.354 50.836 350.894 51.388 350.894 52.308V101.528C350.894 102.54 351.354 103 352.274 103H365.522C366.442 103 366.902 102.54 366.902 101.528V52.308C366.902 51.388 366.442 50.836 365.522 50.836H352.274ZM401.607 50.376C393.419 50.376 383.759 50.652 378.055 52.032C377.227 52.216 376.767 52.308 376.767 53.412V101.528C376.767 102.54 377.135 103 378.055 103H391.579C392.499 103 392.959 102.54 392.959 101.528V64.176H399.123C407.311 64.176 408.139 64.912 408.139 77.7V101.528C408.139 102.54 408.507 103 409.427 103H422.767C423.687 103 424.147 102.54 424.147 101.528V72.732C424.147 54.332 419.823 50.376 401.607 50.376ZM456.362 50.376C437.134 50.376 432.166 55.62 432.166 76.964C432.166 98.216 437.134 103.46 456.362 103.46C462.71 103.46 469.978 103.092 475.13 101.988C475.958 101.804 476.418 101.528 476.418 100.424V91.04C476.418 90.12 475.958 89.66 475.038 89.66H458.11C450.934 89.66 448.634 88.832 448.542 82.024H477.246C479.362 82.024 480.006 81.472 480.006 79.54V76.688C480.006 55.62 475.314 50.376 456.362 50.376ZM456.362 64.176C461.698 64.176 463.906 66.016 463.906 72.272H448.45C448.45 66.016 450.934 64.176 456.362 64.176Z"
            fill="#5C6AC4" />
        <path
            d="M516.892 30.412C508.152 30.412 499.136 30.78 490.12 31.516C489.016 31.608 488.74 31.884 488.74 32.804V101.068C488.74 101.988 489.016 102.264 490.12 102.356C499.136 103.092 509.992 103.46 518.64 103.46C537.316 103.46 544.584 98.4 544.584 83.588C544.584 72.916 541.364 68.04 531.612 67.12V66.844C539.984 65.464 543.02 60.956 543.02 50.376C543.02 35.748 535.752 30.412 516.892 30.412ZM515.052 45.224C522.78 45.224 525.724 47.156 525.724 53.228C525.724 59.392 522.78 60.956 514.224 60.956H505.76V45.224H515.052ZM517.168 72.824C524.252 72.824 527.288 74.848 527.288 81.012C527.288 86.808 524.436 88.648 517.076 88.648H505.76V72.824H517.168ZM575.771 50.376C555.991 50.376 551.299 55.62 551.299 76.964C551.299 98.216 555.991 103.46 575.771 103.46C595.551 103.46 600.243 98.216 600.243 76.964C600.243 55.62 595.551 50.376 575.771 50.376ZM575.771 64.176C582.763 64.176 584.143 66.752 584.143 76.964C584.143 87.084 582.763 89.66 575.771 89.66C568.779 89.66 567.399 87.084 567.399 76.964C567.399 66.752 568.779 64.176 575.771 64.176ZM608.932 50.836C607.828 50.836 607.276 51.296 607.276 52.308V62.888C607.276 63.808 607.828 64.268 608.932 64.268H628.62L607 91.96C606.448 92.604 606.356 93.064 606.356 93.708V101.528C606.356 102.54 606.908 103 607.92 103H650.332C651.344 103 651.896 102.54 651.896 101.528V90.672C651.896 89.752 651.344 89.2 650.332 89.2H629.54L649.872 62.336C650.332 61.784 650.608 61.324 650.608 60.588V52.308C650.608 51.296 650.056 50.836 648.952 50.836H608.932ZM682.325 50.376C662.545 50.376 657.853 55.62 657.853 76.964C657.853 98.216 662.545 103.46 682.325 103.46C702.105 103.46 706.797 98.216 706.797 76.964C706.797 55.62 702.105 50.376 682.325 50.376ZM682.325 64.176C689.317 64.176 690.697 66.752 690.697 76.964C690.697 87.084 689.317 89.66 682.325 89.66C675.333 89.66 673.953 87.084 673.953 76.964C673.953 66.752 675.333 64.176 682.325 64.176ZM732.69 50.376C722.846 50.376 715.026 52.216 715.026 64.452V101.528C715.026 102.54 715.486 103 716.406 103H729.746C730.666 103 731.126 102.54 731.126 101.528V68.776C731.126 64.82 732.782 64.176 736.738 64.176H745.846C746.858 64.176 747.41 63.716 747.41 62.796V53.412C747.41 52.124 746.95 51.664 745.846 51.48C741.982 50.652 735.542 50.376 732.69 50.376Z"
            fill="#BAC2D6" />
    </g>
    <path
        d="M106.429 0H42.5714C19.0599 0 0 19.1465 0 42.7649V106.912C0 130.531 19.0599 149.677 42.5714 149.677H106.429C129.94 149.677 149 130.531 149 106.912V42.7649C149 19.1465 129.94 0 106.429 0Z"
        fill="#5B69C3" />
    <mask id="mask0_10401_9297" style="mask-type:luminance" maskUnits="userSpaceOnUse" x="0" y="0"
        width="150" height="150">
        <path
            d="M107.143 0H42.8571C19.1878 0 0 19.1878 0 42.8571V107.143C0 130.812 19.1878 150 42.8571 150H107.143C130.812 150 150 130.812 150 107.143V42.8571C150 19.1878 130.812 0 107.143 0Z"
            fill="white" />
    </mask>
    <g mask="url(#mask0_10401_9297)">
        <path d="M150 0H0V150H150V0Z" fill="#5B69C3" />
    </g>
    <g filter="url(#filter1_ddddd_10401_9297)">
        <path fill-rule="evenodd" clip-rule="evenodd"
            d="M119.333 56.3851C117.173 55.3616 112.778 53.8137 104.535 52.6154C102.052 52.241 99.2213 51.9164 95.9686 51.6418C89.3887 34.5907 85.0187 32.0942 85.0187 32.0942C82.5358 29.5728 78.9603 28 74.9628 28C70.2203 28 66.049 30.2219 63.6157 33.6171C61.1575 35.1649 54.5032 50.818 54.1804 51.6168C50.8284 51.9414 47.9234 52.2909 45.3659 52.6654C37.1473 53.8886 32.7773 55.4614 30.6172 56.5349C29.4998 57.0842 28.8543 58.2076 29.0281 59.3809C29.6985 63.7747 31.4614 75.2836 32.4297 79.6025C32.9512 81.9742 34.143 85.7938 34.863 88.1405C34.9127 88.2654 34.9623 88.3902 35.012 88.515C39.5558 104.892 55.7447 117 74.9876 117C94.2305 117 110.444 104.867 114.963 88.4401C115.038 88.2903 115.087 88.1405 115.162 87.9907C115.882 85.7189 117.049 81.9992 117.595 79.6525C118.588 75.3086 120.302 63.7248 120.972 59.306C121.146 58.1327 120.5 57.0093 119.358 56.46L119.333 56.3851ZM74.9876 50.8429C70.7417 50.8429 66.8435 50.9178 63.3177 51.0676C63.3177 51.0676 68.4574 38.8348 70.5679 37.7114C71.5611 36.4631 73.175 35.6143 74.9876 35.6143C76.5022 35.6143 77.8678 36.1885 78.8362 37.0872C79.0348 37.1621 81.8406 38.3854 86.7568 51.0676C83.2062 50.9178 79.2831 50.8429 74.9628 50.8429H74.9876ZM87.4024 63.575C86.434 63.575 85.6395 62.7762 85.6395 61.8025V54.6875C85.6395 53.7139 86.434 52.915 87.4024 52.915H94.4788C95.4472 52.915 96.2417 53.7139 96.2417 54.6875V61.8025C96.2417 62.7762 95.4472 63.575 94.4788 63.575H87.4024ZM53.7832 61.8025C53.7832 62.7762 54.5777 63.575 55.5461 63.575H62.6225C63.5908 63.575 64.3854 62.7762 64.3854 61.8025V54.6875C64.3854 53.7139 63.5908 52.915 62.6225 52.915H55.5461C54.5777 52.915 53.7832 53.7139 53.7832 54.6875V61.8025Z"
            fill="white" />
    </g>
    <defs>
        <filter id="filter0_i_10401_9297" x="197.864" y="28.296" width="549.546" height="77.1639"
            filterUnits="userSpaceOnUse" color-interpolation-filters="sRGB">
            <feFlood flood-opacity="0" result="BackgroundImageFix" />
            <feBlend mode="normal" in="SourceGraphic" in2="BackgroundImageFix" result="shape" />
            <feColorMatrix in="SourceAlpha" type="matrix"
                values="0 0 0 0 0 0 0 0 0 0 0 0 0 0 0 0 0 0 127 0" result="hardAlpha" />
            <feOffset dy="2" />
            <feGaussianBlur stdDeviation="3" />
            <feComposite in2="hardAlpha" operator="arithmetic" k2="-1" k3="1" />
            <feColorMatrix type="matrix" values="0 0 0 0 0 0 0 0 0 0 0 0 0 0 0 0 0 0 0.25 0" />
            <feBlend mode="normal" in2="shape" result="effect1_innerShadow_10401_9297" />
        </filter>
        <filter id="filter1_ddddd_10401_9297" x="26" y="27" width="98" height="101"
            filterUnits="userSpaceOnUse" color-interpolation-filters="sRGB">
            <feFlood flood-opacity="0" result="BackgroundImageFix" />
            <feColorMatrix in="SourceAlpha" type="matrix"
                values="0 0 0 0 0 0 0 0 0 0 0 0 0 0 0 0 0 0 127 0" result="hardAlpha" />
            <feOffset />
            <feColorMatrix type="matrix"
                values="0 0 0 0 0.180392 0 0 0 0 0.25098 0 0 0 0 0.6 0 0 0 0.24 0" />
            <feBlend mode="normal" in2="BackgroundImageFix"
                result="effect1_dropShadow_10401_9297" />
            <feColorMatrix in="SourceAlpha" type="matrix"
                values="0 0 0 0 0 0 0 0 0 0 0 0 0 0 0 0 0 0 127 0" result="hardAlpha" />
            <feOffset />
            <feGaussianBlur stdDeviation="0.5" />
            <feColorMatrix type="matrix"
                values="0 0 0 0 0.180392 0 0 0 0 0.25098 0 0 0 0 0.6 0 0 0 0.24 0" />
            <feBlend mode="normal" in2="effect1_dropShadow_10401_9297"
                result="effect2_dropShadow_10401_9297" />
            <feColorMatrix in="SourceAlpha" type="matrix"
                values="0 0 0 0 0 0 0 0 0 0 0 0 0 0 0 0 0 0 127 0" result="hardAlpha" />
            <feOffset dy="2" />
            <feGaussianBlur stdDeviation="1" />
            <feColorMatrix type="matrix"
                values="0 0 0 0 0.180392 0 0 0 0 0.25098 0 0 0 0 0.6 0 0 0 0.2 0" />
            <feBlend mode="normal" in2="effect2_dropShadow_10401_9297"
                result="effect3_dropShadow_10401_9297" />
            <feColorMatrix in="SourceAlpha" type="matrix"
                values="0 0 0 0 0 0 0 0 0 0 0 0 0 0 0 0 0 0 127 0" result="hardAlpha" />
            <feOffset dy="4" />
            <feGaussianBlur stdDeviation="1.5" />
            <feColorMatrix type="matrix"
                values="0 0 0 0 0.180392 0 0 0 0 0.25098 0 0 0 0 0.6 0 0 0 0.12 0" />
            <feBlend mode="normal" in2="effect3_dropShadow_10401_9297"
                result="effect4_dropShadow_10401_9297" />
            <feColorMatrix in="SourceAlpha" type="matrix"
                values="0 0 0 0 0 0 0 0 0 0 0 0 0 0 0 0 0 0 127 0" result="hardAlpha" />
            <feOffset dy="8" />
            <feGaussianBlur stdDeviation="1.5" />
            <feColorMatrix type="matrix"
                values="0 0 0 0 0.180392 0 0 0 0 0.25098 0 0 0 0 0.6 0 0 0 0.04 0" />
            <feBlend mode="normal" in2="effect4_dropShadow_10401_9297"
                result="effect5_dropShadow_10401_9297" />
            <feBlend mode="normal" in="SourceGraphic" in2="effect5_dropShadow_10401_9297"
                result="shape" />
        </filter>
    </defs>
</svg>
