<svg width="149" height="149" viewBox="0 0 149 149" fill="none" xmlns="http://www.w3.org/2000/svg">
<g clip-path="url(#clip0_1401_32022)">
<rect width="149" height="149" rx="74.5" fill="#F6F7FC"/>
<path d="M101.666 87.7271C97.4906 94.4378 97.8962 102.399 102.562 105.493C107.244 108.586 114.428 105.662 118.603 98.9341C122.778 92.2234 122.372 84.262 117.707 81.1686C113.025 78.0753 105.841 80.9996 101.666 87.7102V87.7271Z" fill="#F5F5FF" stroke="#2E2E2E" stroke-width="0.54" stroke-linecap="round" stroke-linejoin="round"/>
<path d="M114.191 84.397C116.22 85.1914 117.758 87.1184 118.079 89.2651C118.4 91.4119 117.505 93.7107 115.814 95.0799" stroke="#2E2E2E" stroke-width="0.54" stroke-linecap="round" stroke-linejoin="round"/>
<path d="M45.2256 87.7272C49.4007 94.4378 48.995 102.399 44.3297 105.493C39.6475 108.586 32.4636 105.662 28.2884 98.9341C24.1133 92.2235 24.519 84.262 29.1843 81.1687C33.8665 78.0754 41.0505 80.9997 45.2256 87.7103V87.7272Z" fill="#F5F5FF" stroke="#2E2E2E" stroke-width="0.54" stroke-linecap="round" stroke-linejoin="round"/>
<path d="M32.7004 84.397C30.672 85.1915 29.1338 87.1185 28.8126 89.2652C28.4915 91.4119 29.3873 93.7108 31.0777 95.0799" stroke="#2E2E2E" stroke-width="0.54" stroke-linecap="round" stroke-linejoin="round"/>
<path d="M94.1944 162.981C94.5663 174.34 85.4892 183.721 74.1301 183.721C62.7711 183.721 54.049 174.695 54.049 163.657C54.049 163.437 54.049 163.2 54.0659 162.981L56.2971 133.045L56.8718 125.472L57.9874 110.597H90.2728L92.0477 134.093L93.3154 151.199L94.2113 162.964L94.1944 162.981Z" fill="#F5F5FF" stroke="#2E2E2E" stroke-width="0.56" stroke-linecap="round" stroke-linejoin="round"/>
<path d="M93.2984 151.216C82.7 151.977 71.0198 146.703 63.0076 136.459C60.3031 133.028 58.2409 129.292 56.8548 125.489L57.9704 110.614H90.2558L92.0306 134.11L93.2984 151.216Z" fill="#2E2E2E"/>
<path d="M108.799 106.203C107.548 109.448 105.723 112.812 103.542 116.074C99.3331 122.345 93.755 128.245 88.1938 131.997C82.0748 136.105 74.0626 137.44 67.0984 135.057C61.6217 133.197 57.0916 129.276 53.0686 125.134C48.0145 119.962 43.4168 114.181 40.8306 107.403C38.836 102.163 37.974 96.3141 37.7373 90.3472C37.6359 87.2201 37.6866 84.0761 37.8218 80.9321C38.0754 75.7596 38.5656 70.6379 39.022 65.905C40.0531 54.6981 46.8482 44.0321 56.5507 38.3187C66.0673 32.7237 78.2039 31.8955 88.3797 36.1551C98.5555 40.4148 106.517 49.6271 109.222 60.3269C111.03 67.5108 110.557 74.9483 110.574 82.2505C110.574 82.7069 110.574 83.1295 110.591 83.5859C110.625 85.7664 110.743 87.9639 110.777 90.1613C110.946 95.6211 110.827 101.064 108.816 106.219L108.799 106.203Z" fill="#F5F5FF" stroke="#2E2E2E" stroke-width="0.54" stroke-linecap="round" stroke-linejoin="round"/>
<path d="M68.5862 70.1817C71.6965 70.3338 74.9081 69.8774 77.6126 68.3899C80.3341 66.8855 82.4808 64.2317 82.8527 61.1722C84.898 65.2121 88.7857 68.3054 93.2144 69.421C97.6431 70.5367 102.545 69.6577 106.281 67.0715C110.929 63.8598 113.6 57.5887 111.588 52.3318C109.357 46.5339 102.68 43.8125 96.5613 42.4771C84.6275 39.8909 72.0852 40.2121 60.2867 43.2885C56.6525 44.2351 46.5105 46.0944 45.1413 50.0329C43.7214 54.0897 49.5193 60.5637 52.1562 63.0485C56.5849 67.2067 62.4503 69.9281 68.5862 70.2155V70.1817Z" fill="#2E2E2E"/>
<path d="M83.4951 74.3226C85.0671 73.376 86.7912 72.7337 88.5999 72.2435C90.4085 71.7702 92.3355 71.5167 94.3301 71.5843C96.3078 71.6519 98.37 72.1083 100.179 73.0549C101.987 73.9846 103.475 75.4552 104.269 77.1962C102.444 76.5877 100.804 76.2834 99.2321 76.2327C97.66 76.182 96.1556 76.3848 94.6343 76.6553C91.5748 77.1962 88.4815 78.2611 84.9994 78.6837C83.6979 78.8527 82.5316 77.923 82.3625 76.6384C82.2442 75.6918 82.7175 74.779 83.4951 74.3226Z" fill="#2E2E2E"/>
<path d="M67.1664 78.7003C63.6843 78.2609 60.5741 77.2128 57.5315 76.6719C56.0101 76.4015 54.5058 76.1986 52.9337 76.2494C51.3617 76.3001 49.7221 76.6212 47.8965 77.2128C48.691 75.4549 50.1785 74.0012 51.9872 73.0715C53.7958 72.1249 55.858 71.6686 57.8357 71.6009C59.8303 71.5333 61.7573 71.8038 63.5659 72.2602C65.3746 72.7504 67.0987 73.3927 68.6707 74.3393C69.7864 75.0154 70.1582 76.4522 69.4821 77.5678C68.9919 78.3961 68.0622 78.8018 67.1664 78.7003Z" fill="#2E2E2E"/>
<path d="M66.9129 90.3979C62.6871 85.9523 56.5004 84.4141 51.3111 88.2342C50.8716 88.5892 48.353 90.4824 48.4545 88.9611C51.9534 82.9097 61.4193 82.4026 65.7804 87.7778C66.3551 88.4709 66.9129 89.1639 67.4538 89.8739C67.5721 90.0429 67.5383 90.2626 67.3862 90.3979C67.251 90.4993 67.065 90.4993 66.9298 90.3979H66.9129Z" fill="#2E2E2E"/>
<path d="M61.0982 87.6424C60.8446 85.9351 59.2726 84.7688 57.5654 85.0055C55.8582 85.259 54.6918 86.831 54.9454 88.5382C55.1989 90.2455 56.7709 91.4118 58.4782 91.1583C60.1854 90.9047 61.3517 89.3327 61.0982 87.6255V87.6424Z" fill="#2E2E2E"/>
<path d="M66.8116 90.212C65.3748 91.1248 63.6507 91.6319 61.842 91.6995" stroke="#2E2E2E" stroke-width="0.5" stroke-linecap="round" stroke-linejoin="round"/>
<path d="M66.9807 86.4256C65.0875 84.1774 62.2478 82.7406 59.3066 82.5547" stroke="#2E2E2E" stroke-width="0.5" stroke-linecap="round" stroke-linejoin="round"/>
<path d="M82.7852 89.8909C87.0279 82.8254 97.1868 81.7604 101.785 88.9782C101.92 89.2824 101.632 89.6205 101.311 89.5529C99.5364 89.0965 98.4715 87.6428 96.815 87.0343C91.9637 84.7185 86.8589 86.7638 83.3261 90.415C83.0049 90.6854 82.5316 90.229 82.8021 89.9079L82.7852 89.8909Z" fill="#2E2E2E"/>
<path d="M89.1238 87.6429C89.3773 85.9357 90.9494 84.7694 92.6566 85.006C94.3638 85.2596 95.5302 86.8316 95.2766 88.5388C95.0231 90.246 93.451 91.4124 91.7438 91.1588C90.0366 90.9053 88.8702 89.3333 89.1069 87.626L89.1238 87.6429Z" fill="#2E2E2E"/>
<path d="M83.3935 90.2121C84.8303 91.1249 86.5544 91.632 88.3631 91.6996" stroke="#2E2E2E" stroke-width="0.5" stroke-linecap="round" stroke-linejoin="round"/>
<path d="M83.2416 86.4254C85.1348 84.1773 87.9746 82.7405 90.9158 82.5546" stroke="#2E2E2E" stroke-width="0.5" stroke-linecap="round" stroke-linejoin="round"/>
<path d="M72.9808 113.387C73.5217 113.911 74.2823 114.215 75.043 114.215C75.8036 114.215 76.5643 113.911 77.1052 113.387C77.9673 112.558 79.5055 113.065 80.6718 113.234C81.855 113.403 83.0552 113.64 84.2046 113.387C85.0329 113.201 85.7935 112.71 86.2499 112" stroke="#2E2E2E" stroke-width="0.45" stroke-linecap="round" stroke-linejoin="round"/>
<path d="M72.9808 113.386C72.1188 112.558 70.5805 113.065 69.4142 113.234C68.2479 113.403 67.0308 113.64 65.8814 113.386C64.9517 113.184 64.1066 112.507 63.8192 111.595" stroke="#2E2E2E" stroke-width="0.45" stroke-linecap="round" stroke-linejoin="round"/>
<path d="M69.6 116.733C72.6088 117.781 75.9388 117.917 79.0321 117.139" stroke="#2E2E2E" stroke-width="0.45" stroke-linecap="round" stroke-linejoin="round"/>
<path d="M74.8403 126.959V132.571" stroke="#2E2E2E" stroke-width="0.54" stroke-linecap="round" stroke-linejoin="round"/>
<path d="M75.0943 101.858V89.9246" stroke="#2E2E2E" stroke-width="0.54" stroke-linecap="round" stroke-linejoin="round"/>
<path d="M71.1049 104.174L73.1164 105.56C74.418 106.456 75.8379 106.456 77.1394 105.56L79.1509 104.174" stroke="#2E2E2E" stroke-width="0.57" stroke-linecap="round" stroke-linejoin="round"/>
<path d="M110.557 82.2167C109.627 81.8448 108.816 81.2025 108.174 80.4419C107.092 79.191 106.433 77.6359 105.892 76.0639C103.475 69.1166 103.356 60.9185 104.641 53.667C96.4091 53.7853 88.4476 48.6805 84.8134 41.2768C75.3137 47.3282 64.3603 49.8468 53.1196 49.289C52.697 61.3411 46.8992 73.0551 37.8052 80.8982C38.0587 75.7258 38.5489 70.6041 39.0053 65.8712C40.0364 54.6643 46.8316 43.9983 56.5341 38.2849C66.0507 32.6899 78.1873 31.8617 88.3631 36.1213C98.5389 40.3809 106.5 49.5933 109.205 60.2931C111.014 67.477 110.54 74.9145 110.557 82.2167Z" fill="#2E2E2E"/>
<path d="M35.0834 53.4304C37.6189 38.7752 51.5473 20.7901 68.3323 18.5419C85.1173 16.3107 103.407 29.9855 110.726 43.3391C86.0808 51.0809 61.0977 55.5602 35.0665 53.4304H35.0834Z" fill="#DBDBE0" stroke="#2E2E2E" stroke-width="0.58" stroke-linecap="round" stroke-linejoin="round"/>
<path d="M114.309 48.3933C103.593 56.5238 89.1911 60.1918 75.0261 61.9159C60.8611 63.6232 46.4425 63.6232 32.3282 65.6009C30.5027 63.2851 29.742 61.1215 30.1477 58.3493C30.5534 55.5772 32.1592 52.9234 34.5933 51.0471C60.9794 49.4582 87.0781 45.2323 111.74 36.9666C112.957 36.9666 116.676 44.59 114.309 48.4102V48.3933Z" fill="#DBDBE0" stroke="#2E2E2E" stroke-width="0.5" stroke-linecap="round" stroke-linejoin="round"/>
<path d="M39.5966 64.6041C38.2444 61.122 38.65 57.0145 40.6446 53.8536L39.5966 64.6041Z" fill="#DBDBE0"/>
<path d="M39.5966 64.6041C38.2444 61.122 38.65 57.0145 40.6446 53.8536" stroke="#2E2E2E" stroke-width="0.54" stroke-linecap="round" stroke-linejoin="round"/>
<path d="M103.339 43.0859C105.537 45.8581 106.957 49.2388 107.43 52.7546L103.339 43.0859Z" fill="#DBDBE0"/>
<path d="M103.339 43.0859C105.537 45.8581 106.957 49.2388 107.43 52.7546" stroke="#2E2E2E" stroke-width="0.54" stroke-linecap="round" stroke-linejoin="round"/>
<path d="M88.9377 47.8358C90.983 51.1319 92.2507 54.9013 92.5888 58.7722L88.9377 47.8358Z" fill="#DBDBE0"/>
<path d="M88.9377 47.8358C90.983 51.1319 92.2507 54.9013 92.5888 58.7722" stroke="#2E2E2E" stroke-width="0.54" stroke-linecap="round" stroke-linejoin="round"/>
<path d="M50.7698 53.4812C49.9078 56.9802 50.6684 60.8342 52.7982 63.7415L50.7698 53.4812Z" fill="#DBDBE0"/>
<path d="M50.7698 53.4812C49.9078 56.9802 50.6684 60.8342 52.7982 63.7415" stroke="#2E2E2E" stroke-width="0.54" stroke-linecap="round" stroke-linejoin="round"/>
<path d="M70.0734 51.8923C71.2904 55.1885 71.9327 58.7213 71.9327 62.2372L70.0734 51.8923Z" fill="#DBDBE0"/>
<path d="M70.0734 51.8923C71.2904 55.1885 71.9327 58.7213 71.9327 62.2372" stroke="#2E2E2E" stroke-width="0.54" stroke-linecap="round" stroke-linejoin="round"/>
<path d="M61.6727 54.5971C61.3346 57.7242 62.5348 60.9866 64.8167 63.1671C64.8674 62.9812 64.9181 62.7952 64.9688 62.6093" fill="#DBDBE0"/>
<path d="M61.6727 54.5971C61.3346 57.7242 62.5348 60.9866 64.8167 63.1671C64.8674 62.9812 64.9181 62.7952 64.9688 62.6093" stroke="#2E2E2E" stroke-width="0.54" stroke-linecap="round" stroke-linejoin="round"/>
<path d="M81.5845 52.4166C82.2944 54.9521 82.4127 57.6566 81.9225 60.2597L81.5845 52.4166Z" fill="#DBDBE0"/>
<path d="M81.5845 52.4166C82.2944 54.9521 82.4127 57.6566 81.9225 60.2597" stroke="#2E2E2E" stroke-width="0.54" stroke-linecap="round" stroke-linejoin="round"/>
<g clip-path="url(#clip1_1401_32022)">
<path d="M57.1391 103.442C63.9247 103.442 69.4255 97.8428 69.4255 90.936C69.4255 84.0291 63.9247 78.4299 57.1391 78.4299C50.3534 78.4299 44.8526 84.0291 44.8526 90.936C44.8526 97.8428 50.3534 103.442 57.1391 103.442Z" stroke="#FB577C" stroke-width="0.5" stroke-linecap="round" stroke-linejoin="round"/>
<path d="M90.9834 103.442C97.769 103.442 103.27 97.8428 103.27 90.936C103.27 84.0291 97.769 78.4299 90.9834 78.4299C84.1977 78.4299 78.6969 84.0291 78.6969 90.936C78.6969 97.8428 84.1977 103.442 90.9834 103.442Z" stroke="#FB577C" stroke-width="0.5" stroke-linecap="round" stroke-linejoin="round"/>
<path d="M69.4406 89.4475C70.7974 88.6496 72.3803 88.1892 74.0688 88.1892C75.7572 88.1892 77.3703 88.6649 78.7421 89.4935" stroke="#FB577C" stroke-width="0.5" stroke-linecap="round" stroke-linejoin="round"/>
<path d="M44.8526 90.9359L37.9028 81.5142" stroke="#FB577C" stroke-width="0.5" stroke-linecap="round" stroke-linejoin="round"/>
<path d="M103.044 90.9359L109.993 81.5142" stroke="#FB577C" stroke-width="0.5" stroke-linecap="round" stroke-linejoin="round"/>
</g>
</g>
<defs>
<clipPath id="clip0_1401_32022">
<rect width="149" height="149" rx="74.5" fill="white"/>
</clipPath>
<clipPath id="clip1_1401_32022">
<rect width="72.8444" height="45.2519" fill="white" transform="translate(37.5259 72.8444)"/>
</clipPath>
</defs>
</svg>
