<svg width="24" height="24" viewBox="0 0 24 24" fill="none" xmlns="http://www.w3.org/2000/svg">
    <path
        d="M20.9997 13.827C19.4477 13.0677 17.9631 14.0863 17.7872 15.5155C17.0464 15.6231 16.4673 15.9925 16.1099 16.671C15.7519 17.3507 15.7834 18.0398 16.1358 18.75H15.8611C11.656 18.75 7.45143 18.75 3.24627 18.75C1.75484 18.7494 0.75108 17.7413 0.750463 16.2437C0.749846 13.2947 0.749846 10.3462 0.750463 7.39713C0.750463 5.87284 1.7536 4.86722 3.27344 4.86598C4.19756 4.86598 5.12168 4.86038 6.0458 4.86971C6.25014 4.87157 6.37236 4.80814 6.46002 4.61784C6.62485 4.25962 6.80078 3.90576 6.98845 3.55873C7.44341 2.71792 8.15271 2.27263 9.10337 2.2602C10.2812 2.24527 11.4603 2.24838 12.6381 2.25895C13.6197 2.26766 14.3401 2.72787 14.7981 3.59978C14.9741 3.93499 15.1426 4.27579 15.2975 4.62157C15.379 4.80316 15.4914 4.87157 15.6889 4.86971C16.6359 4.86162 17.5835 4.86473 18.5304 4.8666C19.9885 4.86909 20.9966 5.88279 20.9984 7.35422C21.0015 9.44195 20.9991 11.5291 20.9991 13.6168C20.9991 13.6784 20.9991 13.7399 20.9991 13.8276L20.9997 13.827ZM10.909 7.86978C8.95584 7.83557 7.32118 9.45004 7.28599 11.4488C7.25142 13.4047 8.86139 15.0739 10.8127 15.105C12.7955 15.1367 14.4388 13.5316 14.4697 11.534C14.5 9.54208 12.9091 7.9046 10.9096 7.86915L10.909 7.86978Z"
        fill="#AEB2CD" />
    <path
        d="M21.3293 16.9327C21.6254 16.9327 21.8943 16.9302 22.1626 16.9327C22.7756 16.9401 23.2425 17.393 23.2499 17.9833C23.2573 18.5853 22.7954 19.0518 22.1712 19.066C21.8961 19.0722 21.6211 19.0672 21.3158 19.0672C21.3158 19.3815 21.3219 19.6705 21.3145 19.9601C21.3004 20.503 20.8847 20.9467 20.3549 20.9954C19.8164 21.0447 19.3082 20.6971 19.2108 20.1702C19.1596 19.8942 19.188 19.6039 19.1793 19.3205C19.1769 19.2453 19.1719 19.1707 19.167 19.066C18.8636 19.066 18.5731 19.074 18.2838 19.0641C17.7392 19.0457 17.3093 18.6365 17.2551 18.0967C17.2026 17.5717 17.5634 17.0541 18.0908 16.9598C18.3671 16.9105 18.6576 16.9382 18.9419 16.932C19.0097 16.9308 19.0776 16.932 19.1812 16.932C19.1812 16.6252 19.1744 16.3356 19.1824 16.0472C19.1978 15.495 19.6228 15.0458 20.1606 15.0033C20.7015 14.9608 21.2097 15.3336 21.2942 15.874C21.3367 16.1445 21.3108 16.4255 21.317 16.7022C21.3182 16.7694 21.3238 16.8371 21.3293 16.9327Z"
        fill="#AEB2CD" />
</svg>