<svg width="16" height="16" viewBox="0 0 16 16" fill="none" xmlns="http://www.w3.org/2000/svg">
<path d="M7.7987 12.0002C6.73203 11.9446 5.83203 11.5335 5.0987 10.7668C4.36536 10.0002 3.9987 9.07794 3.9987 8.00016C3.9987 6.88905 4.38759 5.94461 5.16536 5.16683C5.94314 4.38905 6.88759 4.00016 7.9987 4.00016C9.07648 4.00016 9.9987 4.36683 10.7654 5.10016C11.532 5.8335 11.9431 6.7335 11.9987 7.80016L10.5987 7.3835C10.4543 6.7835 10.1431 6.29194 9.66537 5.90883C9.18759 5.52527 8.63203 5.3335 7.9987 5.3335C7.26536 5.3335 6.63759 5.59461 6.11537 6.11683C5.59314 6.63905 5.33203 7.26683 5.33203 8.00016C5.33203 8.6335 5.52381 9.18905 5.90736 9.66683C6.29048 10.1446 6.78203 10.4557 7.38203 10.6002L7.7987 12.0002ZM7.9987 14.6668C7.07648 14.6668 6.20981 14.4917 5.3987 14.1415C4.58759 13.7917 3.88203 13.3168 3.28203 12.7168C2.68203 12.1168 2.20714 11.4113 1.85736 10.6002C1.50714 9.78905 1.33203 8.92239 1.33203 8.00016C1.33203 7.07794 1.50714 6.21127 1.85736 5.40016C2.20714 4.58905 2.68203 3.8835 3.28203 3.2835C3.88203 2.6835 4.58759 2.20838 5.3987 1.85816C6.20981 1.50838 7.07648 1.3335 7.9987 1.3335C8.92092 1.3335 9.78759 1.50838 10.5987 1.85816C11.4098 2.20838 12.1154 2.6835 12.7154 3.2835C13.3154 3.8835 13.7903 4.58905 14.14 5.40016C14.4903 6.21127 14.6654 7.07794 14.6654 8.00016V8.30016C14.6654 8.40016 14.6543 8.50016 14.632 8.60016L13.332 8.20016V8.00016C13.332 6.51127 12.8154 5.25016 11.782 4.21683C10.7487 3.1835 9.48759 2.66683 7.9987 2.66683C6.50981 2.66683 5.2487 3.1835 4.21536 4.21683C3.18203 5.25016 2.66536 6.51127 2.66536 8.00016C2.66536 9.48905 3.18203 10.7502 4.21536 11.7835C5.2487 12.8168 6.50981 13.3335 7.9987 13.3335H8.1987L8.5987 14.6335C8.4987 14.6557 8.3987 14.6668 8.2987 14.6668H7.9987ZM13.4487 14.7668L10.832 12.1502L10.332 13.6668C10.2765 13.8224 10.1709 13.8973 10.0154 13.8915C9.85981 13.8862 9.75425 13.8057 9.6987 13.6502L8.18203 8.60016C8.13759 8.47794 8.16536 8.36683 8.26536 8.26683C8.36536 8.16683 8.47648 8.13905 8.5987 8.1835L13.6487 9.70016C13.8043 9.75572 13.8849 9.86127 13.8907 10.0168C13.896 10.1724 13.8209 10.2779 13.6654 10.3335L12.1487 10.8335L14.7654 13.4502C14.832 13.5168 14.8654 13.5946 14.8654 13.6835C14.8654 13.7724 14.832 13.8502 14.7654 13.9168L13.9154 14.7668C13.8487 14.8335 13.7709 14.8668 13.682 14.8668C13.5931 14.8668 13.5154 14.8335 13.4487 14.7668Z" fill="#9EABBE"/>
</svg>
