<svg width="32" height="32" viewBox="0 0 32 32" fill="none" xmlns="http://www.w3.org/2000/svg">
    <g id="Frame">
        <g clip-path="url(#clip0_2023_11209)">
            <path id="Vector"
                d="M18.3732 0C19.0403 0 19.7065 0 20.3736 0C20.4723 0.0234799 20.5693 0.0555692 20.6696 0.0688744C22.5376 0.315414 24.0213 1.13721 24.8872 2.88177C25.2622 3.63861 25.447 4.42127 25.1949 5.26107C25.0156 5.85902 24.639 6.32158 24.2045 6.75048C24.1145 6.8397 24.0095 6.9618 24.0009 7.07607C23.9446 7.80238 23.907 8.53026 23.8819 9.25813C23.8788 9.35362 23.9563 9.49919 24.0385 9.54381C24.877 9.99932 25.2317 10.7029 25.1299 11.6374C25.0328 12.5258 24.9318 13.4149 24.7987 14.2993C24.6923 15.0052 24.2961 15.5281 23.6369 15.8153C23.427 15.9069 23.3417 16.0235 23.3026 16.2411C23.0504 17.6459 22.4789 18.9154 21.6318 20.0612C21.364 20.4236 20.9318 20.7469 20.8528 21.1429C20.7713 21.5475 21.043 22.0187 21.1346 22.4656C21.1832 22.7012 21.2975 22.8045 21.53 22.8608C23.0638 23.2326 24.596 23.6114 26.1258 24.002C28.9663 24.7267 30.8477 26.4767 31.7159 29.2849C31.8498 29.7178 31.9085 30.174 32.0017 30.6194V31.4944C31.831 31.874 31.5374 32 31.1248 31.9992C24.8128 31.9906 18.5008 31.993 12.1888 31.993C8.39788 31.993 4.60614 31.993 0.815178 31.993C0.23894 31.993 -0.0405666 31.7441 0.00719224 31.179C0.0612146 30.5403 0.110539 29.8845 0.294528 29.2763C1.14323 26.4595 3.04497 24.7236 5.88466 24.0012C7.43409 23.6067 8.98742 23.2256 10.5361 22.8272C10.6418 22.7998 10.7811 22.698 10.8093 22.6033C10.9549 22.1056 11.0786 21.6007 11.189 21.0936C11.2102 20.9957 11.1671 20.847 11.099 20.7719C9.90894 19.4586 9.16358 17.9277 8.83397 16.1925C8.80187 16.025 8.74002 15.9577 8.57717 15.903C7.80989 15.647 7.33074 15.1078 7.2039 14.3141C7.05906 13.4117 6.96746 12.4999 6.86333 11.5913C6.80148 11.0536 6.89621 10.5354 7.26341 10.13C7.53508 9.83026 7.88036 9.59781 8.17239 9.35284C8.11994 8.27433 7.99701 7.17233 8.02677 6.07426C8.0894 3.75992 9.1902 2.35347 11.4129 1.76334C12.3086 1.52541 13.2552 1.47924 14.1775 1.33444C14.3662 1.3047 14.5674 1.25618 14.7287 1.15913C15.5218 0.683266 16.372 0.363156 17.2771 0.187839C17.6396 0.118965 18.0068 0.0626131 18.3732 0Z"
                fill="#FBFAFF" />
        </g>
    </g>
    <defs>
        <clipPath id="clip0_2023_11209">
            <rect width="32" height="32" fill="white" />
        </clipPath>
    </defs>
</svg>
