<svg width="26" height="26" viewBox="0 0 26 26" fill="none" xmlns="http://www.w3.org/2000/svg">
    <path fill-rule="evenodd" clip-rule="evenodd"
        d="M23.9997 13.814C23.9997 17.5943 23.0875 20.4115 21.2646 22.247C19.4416 24.0826 16.625 25 12.8277 25C9.27985 25 6.58827 24.0823 4.75281 22.247C2.91735 20.4117 1.99978 17.6438 2 13.9432V1.52749C2.00086 1.23665 2.24958 1.00102 2.55671 1H8.98971C9.29695 1.00087 9.54583 1.23655 9.54675 1.52749V14.2145C9.54675 15.7256 9.8419 16.8885 10.4426 17.7089C11.5241 19.0666 13.5631 19.337 14.9969 18.3129C15.212 18.1592 15.4062 17.9808 15.5748 17.7818C16.162 17.0121 16.4546 15.8776 16.4527 14.3786V12.0027H23.9997V13.814Z"
        fill="#FFFFFF" />
    <path fill-rule="evenodd" clip-rule="evenodd"
        d="M23.4164 10.615H16.4533V1.55245C16.4542 1.24771 16.7149 1.00085 17.0367 1.00003H18.0789C18.0812 4.09438 20.7308 6.60167 23.9984 6.60167H24V10.615H23.4164Z"
        fill="#FFFFFF" />
    <path fill-rule="evenodd" clip-rule="evenodd"
        d="M19.562 1.00003H23.4167C23.7385 1.0009 23.9992 1.24771 24 1.55245V5.20728C21.549 5.20728 19.562 3.32569 19.562 1.00458V1.00003Z"
        fill="#FFFFFF" />
</svg>
