<svg width="26" height="26" viewBox="0 0 26 26" fill="none" xmlns="http://www.w3.org/2000/svg">
    <path fill-rule="evenodd" clip-rule="evenodd"
        d="M18.7814 1.97438C18.7941 1.9595 18.806 1.94562 18.8163 1.93296C19.3392 1.29 20.0625 1.00006 20.8072 1.00006C21.401 1.00006 22.0083 1.18451 22.5384 1.52121C23.7655 2.30077 24.1973 3.70043 24.214 5.08988C24.2264 6.11326 24.2334 7.13665 24.2347 8.16025C24.2375 10.3537 24.2278 12.5473 24.2182 14.7409C24.2097 16.6738 24.2012 18.6067 24.2012 20.5396C24.2012 21.0592 24.1949 21.5751 23.7845 21.9566C23.5296 22.1931 23.1887 22.3166 22.847 22.3821C22.2634 22.4943 21.6614 22.4534 21.0713 22.3801C20.7341 22.3386 20.3918 22.284 20.0892 22.1298C19.5868 21.874 19.3647 21.3509 19.3647 20.8062V12.5907H10.0544C9.99461 14.7764 10.2745 16.9424 10.7074 19.0829C10.8494 19.7861 11.0397 20.4837 11.3273 21.1425C11.4663 21.4609 11.6277 21.7702 11.8165 22.0623C11.836 22.0925 11.8645 22.1299 11.8966 22.172C12.0327 22.3508 12.2346 22.616 12.1038 22.7834C12.0686 22.8288 11.9574 22.9213 11.5481 22.7816C9.47607 22.0765 8.02702 19.2143 8.02702 19.2143C5.9596 15.1312 6.03616 11.1986 6.09598 9.25779C6.09598 9.25779 6.18863 6.25639 7.3721 4.13698C7.8193 3.33611 8.31283 2.86759 8.49706 2.70141C9.09673 2.1609 9.85779 1.74329 10.6406 1.54231C10.7681 1.50968 10.9264 1.49293 11.0091 1.59516C11.0445 1.63909 11.0578 1.69674 11.0617 1.75286C11.082 2.03023 10.9623 2.33944 10.8487 2.63303C10.7907 2.78286 10.7343 2.92863 10.6989 3.06401C10.6034 3.42834 10.5188 3.79549 10.4453 4.16482C10.2774 5.00853 10.1675 5.86378 10.1173 6.72273C10.0627 7.65454 10.0827 8.51087 10.1425 9.27454L10.1693 9.2747C13.2344 9.29292 16.2993 9.31114 19.3647 9.32892C19.3678 8.2254 19.3703 7.21749 19.3724 6.34661C19.377 4.46106 19.38 3.21781 19.3853 3.03703C19.3919 2.80995 19.3062 2.59614 19.0934 2.48956C19.0477 2.46676 18.9789 2.45661 18.9077 2.44612C18.7854 2.42809 18.6562 2.40904 18.6258 2.32295C18.5843 2.20432 18.7002 2.06913 18.7814 1.97438ZM2.91036 11.7991C2.96974 10.1019 3.06631 8.3949 4.2898 6.93259C4.35617 6.8532 4.41959 6.77018 4.48307 6.68708C4.74014 6.35056 4.99823 6.01269 5.45804 5.90943C4.70524 8.14825 4.69263 10.7005 4.99257 13.0211C5.09198 13.79 5.25858 14.5311 5.43346 15.2832C6.23585 18.7353 7.70143 22.7146 11.4589 23.8139C12.0077 23.9744 11.8032 24.3135 11.4941 24.5345C10.866 24.9843 10.0186 25.0043 9.87587 24.9996C6.37832 24.8836 4.3333 23.378 4.3333 23.378C1.99356 21.6558 1.01607 19.1166 1.00019 17.8124C0.996276 17.4766 1.0513 16.8445 1.26903 16.1587C1.33624 15.9466 1.64793 14.9635 1.92374 14.9915C2.08725 15.0083 2.16338 15.3725 2.24892 15.7817C2.26329 15.8505 2.27792 15.9205 2.29328 15.9903C2.67262 17.7197 3.41693 19.01 4.01421 20.0454C4.23803 20.4334 4.57887 20.9787 5.06348 21.5984C5.3991 21.9753 5.90959 22.4675 6.62497 22.9082C7.39778 23.3841 8.121 23.6223 8.6315 23.7476C7.98767 23.3221 7.1483 22.6796 6.3122 21.7552C6.07751 21.4957 5.28316 20.5948 4.55146 19.2266C4.22563 18.6172 2.77137 15.7828 2.91036 11.7991Z"
        fill="url(#paint0_linear_53_1302)" />
    <defs>
        <linearGradient id="paint0_linear_53_1302" x1="14.1885" y1="21.6767" x2="-0.720983"
            y2="10.3938" gradientUnits="userSpaceOnUse">
            <stop stop-color="#FFFFFF" />
            <stop offset="0.329003" stop-color="#FFFFFF" />
            <stop offset="0.330336" stop-color="#FFFFFF" />
            <stop offset="0.560566" stop-color="#FFFFFF" />
            <stop offset="0.627021" stop-color="#FFFFFF" />
            <stop offset="0.787549" stop-color="#FFFFFF" />
            <stop offset="1" stop-color="#FFFFFF" />
        </linearGradient>
    </defs>
</svg>
