<svg width="28" height="28" viewBox="0 0 28 28" fill="none" xmlns="http://www.w3.org/2000/svg">
    <path
        d="M21.047 15.8084C20.557 16.2867 20.277 16.9751 20.347 17.7101C20.452 18.9701 21.607 19.8917 22.867 19.8917H25.0837V21.2801C25.0837 23.6951 23.112 25.6667 20.697 25.6667H7.30366C4.88866 25.6667 2.91699 23.6951 2.91699 21.2801V13.4284C2.91699 11.0134 4.88866 9.04175 7.30366 9.04175H20.697C23.112 9.04175 25.0837 11.0134 25.0837 13.4284V15.1084H22.727C22.0737 15.1084 21.4787 15.3651 21.047 15.8084Z"
        fill="#91A3EF" />
    <path
        d="M17.3253 4.60836V9.04167H7.30366C4.88866 9.04167 2.91699 11.0134 2.91699 13.4284V9.14671C2.91699 7.75837 3.76866 6.52165 5.06366 6.03165L14.327 2.53165C15.7737 1.99499 17.3253 3.05669 17.3253 4.60836Z"
        fill="#DFE2E9" />
    <path
        d="M26.3199 16.2982V18.7016C26.3199 19.3433 25.8066 19.8682 25.1532 19.8916H22.8666C21.6066 19.8916 20.4516 18.9699 20.3466 17.7099C20.2766 16.9749 20.5566 16.2866 21.0466 15.8082C21.4782 15.3649 22.0732 15.1083 22.7266 15.1083H25.1532C25.8066 15.1316 26.3199 15.6566 26.3199 16.2982Z"
        fill="#DFE2E9" />
    <path
        d="M16.3337 14.875H8.16699C7.68866 14.875 7.29199 14.4783 7.29199 14C7.29199 13.5217 7.68866 13.125 8.16699 13.125H16.3337C16.812 13.125 17.2087 13.5217 17.2087 14C17.2087 14.4783 16.812 14.875 16.3337 14.875Z"
        fill="#DFE2E9" />
</svg>
