<svg width="14" height="14" viewBox="0 0 14 14" fill="none" xmlns="http://www.w3.org/2000/svg">
    <g id="camera_alt">
        <g id="Vector">
            <path
                d="M7.00087 9.33333C7.98271 9.33333 8.77865 8.53739 8.77865 7.55556C8.77865 6.57372 7.98271 5.77778 7.00087 5.77778C6.01903 5.77778 5.22309 6.57372 5.22309 7.55556C5.22309 8.53739 6.01903 9.33333 7.00087 9.33333Z"
                fill="white" />
            <path
                d="M5.3342 2L4.31753 3.11111H2.55642C1.94531 3.11111 1.44531 3.61111 1.44531 4.22222V10.8889C1.44531 11.5 1.94531 12 2.55642 12H11.4453C12.0564 12 12.5564 11.5 12.5564 10.8889V4.22222C12.5564 3.61111 12.0564 3.11111 11.4453 3.11111H9.6842L8.66753 2H5.3342ZM7.00087 10.3333C5.46754 10.3333 4.22309 9.08889 4.22309 7.55556C4.22309 6.02222 5.46754 4.77778 7.00087 4.77778C8.5342 4.77778 9.77865 6.02222 9.77865 7.55556C9.77865 9.08889 8.5342 10.3333 7.00087 10.3333Z"
                fill="white" />
        </g>
    </g>
</svg>
