<svg width="18" height="18" viewBox="0 0 18 18" fill="none" xmlns="http://www.w3.org/2000/svg">
    <g id="exit_to_app_FILL0_wght400_GRAD0_opsz48 1">
        <path id="Vector"
            d="M7.33125 12.1875C7.21875 12.075 7.1625 11.9344 7.1625 11.7656C7.1625 11.5969 7.21875 11.4563 7.33125 11.3438L9.1125 9.5625H2.8125C2.65 9.5625 2.51563 9.50938 2.40938 9.40313C2.30313 9.29688 2.25 9.1625 2.25 9C2.25 8.8375 2.30313 8.70313 2.40938 8.59688C2.51563 8.49063 2.65 8.4375 2.8125 8.4375H9.1125L7.3125 6.6375C7.2 6.525 7.14375 6.39063 7.14375 6.23438C7.14375 6.07813 7.20625 5.9375 7.33125 5.8125C7.44375 5.7 7.58437 5.64375 7.75312 5.64375C7.92187 5.64375 8.0625 5.7 8.175 5.8125L10.9688 8.60625C11.0312 8.66875 11.075 8.73125 11.1 8.79375C11.125 8.85625 11.1375 8.925 11.1375 9C11.1375 9.075 11.125 9.14375 11.1 9.20625C11.075 9.26875 11.0312 9.33125 10.9688 9.39375L8.15625 12.2063C8.05625 12.3188 7.925 12.375 7.7625 12.375C7.6 12.375 7.45625 12.3125 7.33125 12.1875ZM3.375 15.75C3.075 15.75 2.8125 15.6375 2.5875 15.4125C2.3625 15.1875 2.25 14.925 2.25 14.625V11.25C2.25 11.0875 2.30313 10.9531 2.40938 10.8469C2.51563 10.7406 2.65 10.6875 2.8125 10.6875C2.975 10.6875 3.10937 10.7406 3.21562 10.8469C3.32187 10.9531 3.375 11.0875 3.375 11.25V14.625H14.625V3.3375H3.375V6.75C3.375 6.9125 3.32187 7.04688 3.21562 7.15313C3.10937 7.25938 2.975 7.3125 2.8125 7.3125C2.65 7.3125 2.51563 7.25938 2.40938 7.15313C2.30313 7.04688 2.25 6.9125 2.25 6.75V3.3375C2.25 3.0375 2.3625 2.775 2.5875 2.55C2.8125 2.325 3.075 2.2125 3.375 2.2125H14.625C14.925 2.2125 15.1875 2.325 15.4125 2.55C15.6375 2.775 15.75 3.0375 15.75 3.3375V14.625C15.75 14.925 15.6375 15.1875 15.4125 15.4125C15.1875 15.6375 14.925 15.75 14.625 15.75H3.375Z"
            fill="#F76512" />
    </g>
</svg>
