<svg width="8" height="8" viewBox="0 0 8 8" fill="none" xmlns="http://www.w3.org/2000/svg">
    <g id="Flame 1">
        <path id="Vector"
            d="M4.75 0C3.045 0.9825 3.25 3.75 3.25 3.75C3.25 3.75 2.5 3.5 2.5 2.375C1.605 2.894 1 3.891 1 5C1 5.39397 1.0776 5.78407 1.22836 6.14805C1.37913 6.51203 1.6001 6.84274 1.87868 7.12132C2.15726 7.3999 2.48797 7.62087 2.85195 7.77164C3.21593 7.9224 3.60603 8 4 8C4.39397 8 4.78407 7.9224 5.14805 7.77164C5.51203 7.62087 5.84274 7.3999 6.12132 7.12132C6.3999 6.84274 6.62087 6.51203 6.77164 6.14805C6.9224 5.78407 7 5.39397 7 5C7 2.5625 4.75 2.0625 4.75 0ZM4.2635 6.9665C3.97395 7.0387 3.66758 6.99293 3.41178 6.83924C3.15598 6.68556 2.97171 6.43655 2.8995 6.147C2.82729 5.85745 2.87307 5.55108 3.02676 5.29528C3.18044 5.03948 3.42945 4.85521 3.719 4.783C5.1745 4.4205 5.357 3.602 5.357 3.602C5.357 3.602 6.083 6.5125 4.2635 6.9665Z"
            fill="white" />
    </g>
</svg>
