<svg width="16" height="16" viewBox="0 0 16 16" fill="none" xmlns="http://www.w3.org/2000/svg">
    <g id="vuesax/bold/heart">
        <g id="heart">
            <path id="Vector"
                d="M7.59969 3.85284L8.00004 4.38797L8.4004 3.85284C8.9838 3.07305 9.91828 2.56665 10.96 2.56665C12.7282 2.56665 14.1667 4.00712 14.1667 5.79332C14.1667 6.53227 14.0489 7.21373 13.8443 7.84607L13.8433 7.84933C13.3524 9.4027 12.3444 10.6605 11.2483 11.6025C10.15 12.5463 8.99211 13.1483 8.25232 13.4L8.25231 13.3999L8.24696 13.4018C8.20379 13.4171 8.1143 13.4333 8.00004 13.4333C7.88579 13.4333 7.79629 13.4171 7.75312 13.4018L7.75313 13.4018L7.74776 13.4C7.00797 13.1483 5.85004 12.5463 4.75177 11.6025C3.6557 10.6605 2.64767 9.4027 2.1568 7.84933L2.15681 7.84932L2.15576 7.84607C1.95118 7.21373 1.83337 6.53227 1.83337 5.79332C1.83337 4.00712 3.27185 2.56665 5.04004 2.56665C6.0818 2.56665 7.01628 3.07305 7.59969 3.85284Z"
                fill="#F2F4FB" stroke="#9EABBE" />
        </g>
    </g>
</svg>