<svg width="10" height="10" viewBox="0 0 10 10" fill="none" xmlns="http://www.w3.org/2000/svg">
    <g id="Hand Shake 1" clip-path="url(#clip0_2191_10382)">
        <g id="XMLID_218_">
            <path id="XMLID_222_" fill-rule="evenodd" clip-rule="evenodd"
                d="M8.27148 3.18357C7.98242 2.89646 7.69531 2.60739 7.4082 2.31833C7.24805 2.15622 7.08594 1.99607 6.92773 1.83396C6.87891 1.78318 6.84961 1.76364 6.78125 1.74021C6.70703 1.71482 6.63281 1.69138 6.55859 1.66599C6.41016 1.61716 6.26367 1.56833 6.11523 1.52146C5.7168 1.39646 5.31836 1.27341 4.91602 1.15818C4.58984 1.06443 4.21875 1.03708 3.88672 1.12497C3.60742 1.19724 3.36914 1.37497 3.23242 1.63083C2.96484 2.20505 2.71094 2.78513 2.44531 3.3613C2.30078 3.6738 2.3125 3.99021 2.53906 4.25778C2.73047 4.48435 3.02734 4.56247 3.3125 4.48435C3.52539 4.42575 3.71289 4.25583 3.81641 4.06247C3.9668 3.78122 4.20312 3.27536 4.54688 3.18552C4.70703 3.1445 4.78906 3.27927 4.88477 3.37497L7.95508 6.40622C7.95312 6.52341 7.92188 6.6113 7.85938 6.67575C7.74414 6.79685 7.55078 6.80857 7.50195 6.81052L6.73047 6.03903C6.67969 5.98825 6.59375 5.98825 6.54297 6.03903L6.4707 6.1113C6.41992 6.16208 6.41992 6.24802 6.4707 6.2988L7.25195 7.08005C7.25 7.19724 7.21875 7.28513 7.15625 7.34958C7.02539 7.4863 6.79297 7.48435 6.78711 7.48435L6.02539 6.72263C5.97461 6.67185 5.88867 6.67185 5.83789 6.72263L5.76562 6.79489C5.71484 6.84567 5.71484 6.93161 5.76562 6.98239L6.54688 7.76364C6.59766 7.81442 6.47266 8.00778 6.43555 8.04294C6.35156 8.12497 6.22852 8.16013 6.11328 8.16794L5.35938 7.41403C5.30859 7.36325 5.22266 7.36325 5.17188 7.41403L5.09961 7.4863C5.04883 7.53708 5.04883 7.62302 5.09961 7.6738L5.85938 8.43357C5.85547 8.707 5.60352 8.82224 5.36133 8.81833L5.22266 8.67966C5.10938 8.56638 4.99414 8.4531 4.88086 8.33982C4.70117 8.16208 4.52344 7.98435 4.34375 7.80661C4.3418 7.80466 4.33984 7.80466 4.33984 7.80271C4.48633 7.6113 4.47852 7.34567 4.30859 7.18552C4.1582 7.04294 3.92578 7.02536 3.74219 7.12888C3.875 6.94333 3.86719 6.69138 3.70703 6.53317C3.53516 6.36325 3.25 6.3613 3.05469 6.52341C3.19336 6.33591 3.1875 6.08005 3.02539 5.91989C2.86328 5.75974 2.60156 5.74997 2.4082 5.88474L2.40234 5.87888C2.55664 5.69138 2.55273 5.42185 2.38672 5.25779C2.2207 5.09372 1.94727 5.08786 1.75391 5.23435L1.63672 5.11716C1.44727 4.92966 1.25781 4.74021 1.06836 4.55271C0.935547 4.42185 0.804688 4.29099 0.671875 4.15818C0.613281 4.09958 0.554688 4.04099 0.496094 3.98435L0.472656 3.96091C0.421875 3.91013 0.335938 3.91013 0.285156 3.96091L0.117188 4.13083L0.126953 4.1406C0.173828 4.18747 0.220703 4.23435 0.267578 4.27927C0.373047 4.38279 0.476562 4.48825 0.582031 4.59177C0.730469 4.74021 0.880859 4.88864 1.0293 5.03708C1.17969 5.18747 1.33203 5.33786 1.48242 5.48825L1.09961 5.85739C0.904297 6.04489 0.892578 6.34567 1.07422 6.52341C1.24219 6.69138 1.52344 6.69528 1.7168 6.54099C1.54297 6.73044 1.53711 7.01364 1.71094 7.18552C1.88281 7.35544 2.16797 7.35739 2.36328 7.19528C2.22461 7.38278 2.23047 7.63864 2.39258 7.7988C2.55469 7.95896 2.82031 7.96872 3.01367 7.832C2.8418 8.02341 2.84375 8.30857 3.02148 8.47849C3.20508 8.65427 3.51172 8.63864 3.70312 8.44724L4.07812 8.07028C4.25195 8.24411 4.42578 8.4238 4.59766 8.60349C4.78125 8.79489 4.96094 9.0195 5.20508 9.13864C5.4668 9.2656 5.80664 9.16403 6.01172 8.96677C6.09766 8.88474 6.17383 8.65622 6.17383 8.65622C6.19727 8.58786 6.27344 8.51755 6.3457 8.50192C6.3457 8.50192 6.55469 8.45505 6.70703 8.29489C6.82031 8.17771 6.87109 7.97849 6.87109 7.97849C6.88867 7.90817 6.96094 7.83786 7.0332 7.82419C7.0332 7.82419 7.25195 7.77927 7.41406 7.61325C7.52539 7.49802 7.57617 7.30466 7.57617 7.30466C7.59375 7.23435 7.66797 7.16403 7.74023 7.15036C7.74023 7.15036 7.95898 7.10544 8.11914 6.93942C8.21289 6.84372 8.29883 6.63083 8.32031 6.45505C8.32812 6.39255 8.32617 6.33591 8.31445 6.29099C8.27734 6.14255 7.45898 5.40036 7.42969 5.37107C7.42773 5.36911 7.42773 5.36911 7.42578 5.36911L8.81641 3.98825C8.81641 3.98825 8.94336 3.84763 8.79297 3.71286C8.61523 3.53904 8.44531 3.35739 8.27148 3.18357Z"
                fill="#0096B2" />
            <path id="XMLID_219_" fill-rule="evenodd" clip-rule="evenodd"
                d="M9.84375 2.71094L7.97852 0.845703C7.92773 0.794922 7.8418 0.794922 7.79102 0.845703L7.13281 1.50391C7.08203 1.55469 7.08203 1.64062 7.13281 1.69141L8.99805 3.55664C9.04883 3.60742 9.13477 3.60742 9.18555 3.55664L9.84375 2.89844C9.89648 2.84766 9.89648 2.76172 9.84375 2.71094ZM7.64648 1.83203C7.52148 1.83203 7.41992 1.73047 7.41992 1.60547C7.41992 1.48047 7.52148 1.37891 7.64648 1.37891C7.77148 1.37891 7.87305 1.48047 7.87305 1.60547C7.875 1.73047 7.77344 1.83203 7.64648 1.83203Z"
                fill="#0096B2" />
        </g>
    </g>
    <defs>
        <clipPath id="clip0_2191_10382">
            <rect width="10" height="10" fill="white" />
        </clipPath>
    </defs>
</svg>
