<svg width="24" height="24" viewBox="0 0 24 24" fill="none" xmlns="http://www.w3.org/2000/svg">
<g id="laptop_windows_FILL0_wght400_GRAD0_opsz48 1">
<path id="Vector" d="M0.75 20C0.533333 20 0.354167 19.9292 0.2125 19.7875C0.0708333 19.6458 0 19.4667 0 19.25C0 19.0333 0.0708333 18.8542 0.2125 18.7125C0.354167 18.5708 0.533333 18.5 0.75 18.5H3.525V17.45C3.125 17.45 2.775 17.3 2.475 17C2.175 16.7 2.025 16.35 2.025 15.95V4.5C2.025 4.1 2.175 3.75 2.475 3.45C2.775 3.15 3.125 3 3.525 3H20.475C20.875 3 21.225 3.15 21.525 3.45C21.825 3.75 21.975 4.1 21.975 4.5V15.95C21.975 16.35 21.825 16.7 21.525 17C21.225 17.3 20.875 17.45 20.475 17.45V18.5H23.25C23.4667 18.5 23.6458 18.5708 23.7875 18.7125C23.9292 18.8542 24 19.0333 24 19.25C24 19.4667 23.9292 19.6458 23.7875 19.7875C23.6458 19.9292 23.4667 20 23.25 20H0.75ZM3.525 15.95H20.475V4.5H3.525V15.95Z" fill="#9EABBE"/>
</g>
</svg>
