<svg width="12" height="12" viewBox="0 0 12 12" fill="none" xmlns="http://www.w3.org/2000/svg">
    <g id="location 11" opacity="0.5">
        <path id="Vector"
            d="M6.015 1.00001C7.145 1.00502 8.225 1.45502 9.015 2.24502C9.81 3.04002 10.255 4.11502 10.25 5.23002V5.25502C10.22 6.77002 9.37 8.16502 8.31 9.25502C7.71 9.87002 7.045 10.415 6.32 10.875C6.125 11.04 5.84 11.04 5.645 10.875C4.57 10.175 3.62 9.29502 2.85 8.27002C2.175 7.38002 1.79 6.31002 1.75 5.19502C1.76 2.87002 3.67 0.99502 6.015 1.00001ZM6.015 3.96502C5.27 3.96502 4.67 4.56002 4.67 5.30002C4.67 6.03052 5.26 6.62002 6 6.63002H6.015C6.37 6.63002 6.71 6.49502 6.96 6.25002C7.22 5.99502 7.3655 5.65552 7.3655 5.30002C7.3655 4.56002 6.76 3.96502 6.015 3.96502Z"
            fill="#9EABBE" />
    </g>
</svg>
