<svg width="22" height="22" viewBox="0 0 22 22" fill="none" xmlns="http://www.w3.org/2000/svg">
<path d="M15.333 2.33301H6.66634C4.27434 2.33301 2.33301 4.26567 2.33301 6.64901V11.8317V12.6983C2.33301 15.0817 4.27434 17.0143 6.66634 17.0143H7.96634C8.20034 17.0143 8.51234 17.1703 8.65967 17.361L9.95967 19.0857C10.5317 19.8483 11.4677 19.8483 12.0397 19.0857L13.3397 17.361C13.5043 17.1443 13.7643 17.0143 14.033 17.0143H15.333C17.725 17.0143 19.6663 15.0817 19.6663 12.6983V6.64901C19.6663 4.26567 17.725 2.33301 15.333 2.33301ZM7.53301 10.9997C7.04767 10.9997 6.66634 10.6097 6.66634 10.133C6.66634 9.65634 7.05634 9.26634 7.53301 9.26634C8.00967 9.26634 8.39967 9.65634 8.39967 10.133C8.39967 10.6097 8.01834 10.9997 7.53301 10.9997ZM10.9997 10.9997C10.5143 10.9997 10.133 10.6097 10.133 10.133C10.133 9.65634 10.523 9.26634 10.9997 9.26634C11.4763 9.26634 11.8663 9.65634 11.8663 10.133C11.8663 10.6097 11.485 10.9997 10.9997 10.9997ZM14.4663 10.9997C13.981 10.9997 13.5997 10.6097 13.5997 10.133C13.5997 9.65634 13.9897 9.26634 14.4663 9.26634C14.943 9.26634 15.333 9.65634 15.333 10.133C15.333 10.6097 14.9517 10.9997 14.4663 10.9997Z" fill="white"/>
</svg>
