<svg width="24" height="18" viewBox="0 0 24 18" fill="none" xmlns="http://www.w3.org/2000/svg">
    <path id="Union" fill-rule="evenodd" clip-rule="evenodd"
        d="M7.78589 0H17.4541C22.238 0 24 1.80059 24 6.2535V11.7465C24 16.2053 22.2144 18 17.4541 18H6.54591C1.34787 18 0 15.7374 0 11.7465V6.60888C0 2.15716 1.34787 0 7.78589 0ZM5.54895 14.0292H8.39721V4.06081H5.54895V14.0292ZM14.7249 14.0292C17.4181 14.0292 19.6005 11.9431 19.6005 9.37137V8.58006C19.6005 6.08411 17.4826 4.06081 14.8712 4.06081H10.2411V14.0292H14.7249ZM15.6436 8.90816C15.5928 8.93185 15.5382 8.99109 15.4898 9.0669C15.3844 9.23274 15.3138 9.4744 15.4105 9.5668C15.4554 9.60975 15.5508 9.64464 15.6916 9.69618C15.9897 9.80527 16.4916 9.98892 17.1502 10.4813C16.4607 11.8412 14.8277 12.0189 14.8277 12.0189H11.874V11.2051C11.874 10.2107 13.2781 9.73388 13.6957 9.59205C13.7462 9.57489 13.7823 9.56263 13.7997 9.55495C13.9659 9.48269 13.9076 9.28013 13.8456 9.14508C13.3781 8.77075 13.0644 8.11211 13.0644 7.56009C13.0644 6.73797 13.7625 6.07104 14.6231 6.07104C15.4836 6.07104 16.1805 6.73797 16.1805 7.56009C16.1805 8.00313 15.9784 8.51488 15.656 8.89395L15.6448 8.90816H15.6436Z"
        fill="#4825C2" />
</svg>
