<svg width="21" height="20" viewBox="0 0 21 20" fill="none" xmlns="http://www.w3.org/2000/svg">
<g id="fi-rr-sign-out-alt" clip-path="url(#clip0_498_13134)">
<path id="Vector" d="M10.0633 12.5C9.84232 12.5 9.63036 12.5878 9.47408 12.7441C9.3178 12.9004 9.23 13.1123 9.23 13.3333V15.8333C9.23 16.4964 8.96661 17.1323 8.49777 17.6011C8.02893 18.0699 7.39304 18.3333 6.73 18.3333H4.66667C4.00363 18.3333 3.36774 18.0699 2.8989 17.6011C2.43006 17.1323 2.16667 16.4964 2.16667 15.8333V4.16667C2.16667 3.50363 2.43006 2.86774 2.8989 2.3989C3.36774 1.93006 4.00363 1.66667 4.66667 1.66667H6.73C7.39304 1.66667 8.02893 1.93006 8.49777 2.3989C8.96661 2.86774 9.23 3.50363 9.23 4.16667V6.66667C9.23 6.88768 9.3178 7.09964 9.47408 7.25592C9.63036 7.4122 9.84232 7.5 10.0633 7.5C10.2843 7.5 10.4963 7.4122 10.6526 7.25592C10.8089 7.09964 10.8967 6.88768 10.8967 6.66667V4.16667C10.8953 3.062 10.4559 2.00296 9.67482 1.22185C8.8937 0.440735 7.83466 0.00132321 6.73 0H4.66667C3.562 0.00132321 2.50296 0.440735 1.72185 1.22185C0.940735 2.00296 0.501323 3.062 0.5 4.16667L0.5 15.8333C0.501323 16.938 0.940735 17.997 1.72185 18.7782C2.50296 19.5593 3.562 19.9987 4.66667 20H6.73C7.83466 19.9987 8.8937 19.5593 9.67482 18.7782C10.4559 17.997 10.8953 16.938 10.8967 15.8333V13.3333C10.8967 13.1123 10.8089 12.9004 10.6526 12.7441C10.4963 12.5878 10.2843 12.5 10.0633 12.5Z" fill="#703EDB"/>
<path id="Vector_2" d="M19.5559 8.23269L15.7342 4.41102C15.6574 4.33143 15.5654 4.26795 15.4638 4.22427C15.3621 4.1806 15.2527 4.15761 15.1421 4.15665C15.0314 4.15569 14.9217 4.17677 14.8193 4.21867C14.7169 4.26057 14.6238 4.32245 14.5456 4.40069C14.4673 4.47894 14.4055 4.57198 14.3636 4.67439C14.3217 4.77681 14.3006 4.88654 14.3015 4.99719C14.3025 5.10784 14.3255 5.21719 14.3692 5.31886C14.4128 5.42053 14.4763 5.51248 14.5559 5.58936L18.1076 9.14186L5.50008 9.16686C5.27907 9.16686 5.06711 9.25465 4.91083 9.41093C4.75455 9.56722 4.66675 9.77918 4.66675 10.0002C4.66675 10.2212 4.75455 10.4332 4.91083 10.5894C5.06711 10.7457 5.27907 10.8335 5.50008 10.8335L18.1567 10.8077L14.5542 14.411C14.4747 14.4879 14.4112 14.5799 14.3675 14.6815C14.3238 14.7832 14.3008 14.8925 14.2999 15.0032C14.2989 15.1138 14.32 15.2236 14.3619 15.326C14.4038 15.4284 14.4657 15.5214 14.5439 15.5997C14.6222 15.6779 14.7152 15.7398 14.8176 15.7817C14.92 15.8236 15.0298 15.8447 15.1404 15.8437C15.2511 15.8428 15.3604 15.8198 15.4621 15.7761C15.5638 15.7324 15.6557 15.669 15.7326 15.5894L19.5542 11.7677C20.0231 11.2991 20.2867 10.6634 20.287 10.0005C20.2874 9.33762 20.0244 8.70173 19.5559 8.23269Z" fill="#703EDB"/>
</g>
<defs>
<clipPath id="clip0_498_13134">
<rect width="20" height="20" fill="white" transform="translate(0.5)"/>
</clipPath>
</defs>
</svg>
