<svg width="21" height="20" viewBox="0 0 21 20" fill="none" xmlns="http://www.w3.org/2000/svg">
<g id="fi-rr-interrogation" clip-path="url(#clip0_498_13110)">
<path id="Vector" d="M10.5 0C8.52219 0 6.58879 0.58649 4.9443 1.6853C3.29981 2.78412 2.01809 4.3459 1.26121 6.17317C0.504333 8.00043 0.306299 10.0111 0.692152 11.9509C1.078 13.8907 2.03041 15.6725 3.42894 17.0711C4.82746 18.4696 6.60929 19.422 8.5491 19.8079C10.4889 20.1937 12.4996 19.9957 14.3268 19.2388C16.1541 18.4819 17.7159 17.2002 18.8147 15.5557C19.9135 13.9112 20.5 11.9778 20.5 10C20.4971 7.34872 19.4426 4.80684 17.5679 2.9321C15.6932 1.05736 13.1513 0.00286757 10.5 0V0ZM10.5 18.3333C8.85183 18.3333 7.24066 17.8446 5.87025 16.9289C4.49984 16.0132 3.43174 14.7117 2.80101 13.189C2.17028 11.6663 2.00525 9.99076 2.32679 8.37425C2.64834 6.75774 3.44201 5.27288 4.60745 4.10744C5.77289 2.94201 7.25774 2.14833 8.87425 1.82679C10.4908 1.50525 12.1663 1.67027 13.689 2.301C15.2118 2.93173 16.5132 3.99984 17.4289 5.37025C18.3446 6.74066 18.8333 8.35182 18.8333 10C18.8309 12.2094 17.9522 14.3276 16.3899 15.8899C14.8276 17.4522 12.7094 18.3309 10.5 18.3333V18.3333Z" fill="#703EDB"/>
<path id="Vector_2" d="M11.0976 4.21891C10.617 4.13135 10.1231 4.15048 9.65074 4.27494C9.17839 4.3994 8.73917 4.62616 8.36416 4.93916C7.98915 5.25216 7.68751 5.64376 7.48059 6.08624C7.27367 6.52872 7.16653 7.01127 7.16675 7.49974C7.16675 7.72075 7.25455 7.93271 7.41083 8.08899C7.56711 8.24527 7.77907 8.33307 8.00008 8.33307C8.22109 8.33307 8.43305 8.24527 8.58933 8.08899C8.74561 7.93271 8.83341 7.72075 8.83341 7.49974C8.8332 7.25455 8.88709 7.01234 8.99124 6.79037C9.09539 6.5684 9.24722 6.37215 9.43593 6.2156C9.62463 6.05905 9.84555 5.94606 10.0829 5.88469C10.3203 5.82333 10.5683 5.81509 10.8092 5.86057C11.1384 5.92448 11.4411 6.08506 11.6786 6.32181C11.9161 6.55857 12.0776 6.86074 12.1426 7.18974C12.2082 7.53507 12.1629 7.8923 12.0132 8.21035C11.8635 8.5284 11.6171 8.79099 11.3092 8.96057C10.7994 9.25596 10.3781 9.68267 10.0892 10.1962C9.8003 10.7098 9.65442 11.2915 9.66674 11.8806V12.4997C9.66674 12.7208 9.75454 12.9327 9.91082 13.089C10.0671 13.2453 10.2791 13.3331 10.5001 13.3331C10.7211 13.3331 10.9331 13.2453 11.0893 13.089C11.2456 12.9327 11.3334 12.7208 11.3334 12.4997V11.8806C11.323 11.5906 11.3891 11.303 11.5251 11.0466C11.6612 10.7903 11.8624 10.5744 12.1084 10.4206C12.7122 10.089 13.1984 9.57845 13.5001 8.95924C13.8019 8.34003 13.9044 7.64254 13.7936 6.96268C13.6828 6.28282 13.3641 5.65398 12.8813 5.16265C12.3985 4.67132 11.7754 4.34162 11.0976 4.21891V4.21891Z" fill="#703EDB"/>
<path id="Vector_3" d="M11.3334 14.9997C11.3334 14.5395 10.9603 14.1664 10.5001 14.1664C10.0398 14.1664 9.66675 14.5395 9.66675 14.9997C9.66675 15.46 10.0398 15.8331 10.5001 15.8331C10.9603 15.8331 11.3334 15.46 11.3334 14.9997Z" fill="#703EDB"/>
</g>
<defs>
<clipPath id="clip0_498_13110">
<rect width="20" height="20" fill="white" transform="translate(0.5)"/>
</clipPath>
</defs>
</svg>
