<svg width="18" height="18" viewBox="0 0 18 18" fill="none" xmlns="http://www.w3.org/2000/svg">
    <path
        d="M7.33125 12.1879C7.21875 12.0754 7.1625 11.9348 7.1625 11.766C7.1625 11.5973 7.21875 11.4566 7.33125 11.3441L9.1125 9.56289H2.8125C2.65 9.56289 2.51563 9.50977 2.40938 9.40352C2.30313 9.29727 2.25 9.16289 2.25 9.00039C2.25 8.83789 2.30313 8.70352 2.40938 8.59727C2.51563 8.49102 2.65 8.43789 2.8125 8.43789H9.1125L7.3125 6.63789C7.2 6.52539 7.14375 6.39102 7.14375 6.23477C7.14375 6.07852 7.20625 5.93789 7.33125 5.81289C7.44375 5.70039 7.58437 5.64414 7.75312 5.64414C7.92187 5.64414 8.0625 5.70039 8.175 5.81289L10.9688 8.60664C11.0312 8.66914 11.075 8.73164 11.1 8.79414C11.125 8.85664 11.1375 8.92539 11.1375 9.00039C11.1375 9.07539 11.125 9.14414 11.1 9.20664C11.075 9.26914 11.0312 9.33164 10.9688 9.39414L8.15625 12.2066C8.05625 12.3191 7.925 12.3754 7.7625 12.3754C7.6 12.3754 7.45625 12.3129 7.33125 12.1879ZM3.375 15.7504C3.075 15.7504 2.8125 15.6379 2.5875 15.4129C2.3625 15.1879 2.25 14.9254 2.25 14.6254V11.2504C2.25 11.0879 2.30313 10.9535 2.40938 10.8473C2.51563 10.741 2.65 10.6879 2.8125 10.6879C2.975 10.6879 3.10937 10.741 3.21562 10.8473C3.32187 10.9535 3.375 11.0879 3.375 11.2504V14.6254H14.625V3.33789H3.375V6.75039C3.375 6.91289 3.32187 7.04727 3.21562 7.15352C3.10937 7.25977 2.975 7.31289 2.8125 7.31289C2.65 7.31289 2.51563 7.25977 2.40938 7.15352C2.30313 7.04727 2.25 6.91289 2.25 6.75039V3.33789C2.25 3.03789 2.3625 2.77539 2.5875 2.55039C2.8125 2.32539 3.075 2.21289 3.375 2.21289H14.625C14.925 2.21289 15.1875 2.32539 15.4125 2.55039C15.6375 2.77539 15.75 3.03789 15.75 3.33789V14.6254C15.75 14.9254 15.6375 15.1879 15.4125 15.4129C15.1875 15.6379 14.925 15.7504 14.625 15.7504H3.375Z"
        fill="#F76512" />
</svg>
