<svg width="32" height="32" viewBox="0 0 32 32" fill="none" xmlns="http://www.w3.org/2000/svg">
<circle cx="16" cy="16" r="16" fill="#F76512"/>
<path d="M22.3 9.70997C21.91 9.31997 21.28 9.31997 20.89 9.70997L16 14.59L11.11 9.69997C10.72 9.30997 10.09 9.30997 9.69997 9.69997C9.30997 10.09 9.30997 10.72 9.69997 11.11L14.59 16L9.69997 20.89C9.30997 21.28 9.30997 21.91 9.69997 22.3C10.09 22.69 10.72 22.69 11.11 22.3L16 17.41L20.89 22.3C21.28 22.69 21.91 22.69 22.3 22.3C22.69 21.91 22.69 21.28 22.3 20.89L17.41 16L22.3 11.11C22.68 10.73 22.68 10.09 22.3 9.70997Z" fill="white"/>
</svg>
