<svg width="15" height="15" viewBox="0 0 15 15" fill="none" xmlns="http://www.w3.org/2000/svg">
<path id="Star 5" d="M7.03375 1.20373C7.19871 0.777851 7.80129 0.777852 7.96625 1.20373L9.44421 5.01944C9.51377 5.19903 9.6803 5.3227 9.87233 5.33739L13.8242 5.63958C14.2644 5.67324 14.4481 6.21914 14.1179 6.51213L11.053 9.23162C10.9156 9.35351 10.8561 9.54089 10.898 9.71969L11.8506 13.785C11.9535 14.2242 11.4681 14.5644 11.0904 14.3177L7.77337 12.1519C7.60726 12.0434 7.39274 12.0434 7.22664 12.1519L3.90961 14.3177C3.53193 14.5644 3.04653 14.2242 3.14943 13.785L4.102 9.71969C4.14389 9.54089 4.0844 9.35351 3.94703 9.23162L0.88206 6.51213C0.551856 6.21914 0.735623 5.67324 1.17578 5.63958L5.12767 5.33739C5.3197 5.3227 5.48623 5.19903 5.55579 5.01944L7.03375 1.20373Z" fill="#FFAF2B"/>
</svg>
