<svg width="32" height="32" viewBox="0 0 32 32" fill="none" xmlns="http://www.w3.org/2000/svg">
    <rect width="32" height="32" rx="10" fill="#00A4DD" />
    <path
        d="M21.031 18.0845C21.622 18.0845 22.1011 17.6054 22.1011 17.0144C22.1011 16.4234 21.622 15.9443 21.031 15.9443C20.44 15.9443 19.9609 16.4234 19.9609 17.0144C19.9609 17.6054 20.44 18.0845 21.031 18.0845Z"
        fill="white" />
    <path
        d="M25.6059 18.5723V10.3221C25.6059 10.2085 25.56 10.1056 25.4853 10.0309C25.4106 9.9562 25.3082 9.91032 25.1941 9.91032C24.9556 9.91032 24.7625 10.104 24.7625 10.3419V13.5105C23.0176 8.50844 16.452 8.78476 15.9997 8.81037C15.9986 8.80983 15.9981 8.80983 15.997 8.81037C15.4694 8.78209 8.97748 8.54204 7.2438 13.5116V10.3221C7.2438 10.2085 7.19792 10.1056 7.12324 10.0309C7.04856 9.9562 6.94614 9.91032 6.83198 9.91032C6.59354 9.91032 6.40043 10.104 6.40043 10.3419V18.5723C6.40043 18.5723 6.30121 22.6633 15.9751 22.8185C15.9847 22.819 15.9938 22.819 16.0034 22.819C16.013 22.819 16.0221 22.819 16.0312 22.8185C25.7051 22.6633 25.6059 18.5723 25.6059 18.5723ZM22.9349 18.8364C22.4687 19.3026 21.8249 19.5912 21.1132 19.5912H10.8936C9.47038 19.5912 8.31655 18.4374 8.31655 17.0141C8.31655 16.3025 8.60514 15.6587 9.07137 15.1924C9.53759 14.7262 10.182 14.4376 10.8936 14.4376H21.1132C22.5359 14.4376 23.6898 15.5909 23.6898 17.0141C23.6898 17.7257 23.4012 18.3701 22.9349 18.8364Z"
        fill="white" />
    <path
        d="M10.9705 18.0845C11.5615 18.0845 12.0406 17.6054 12.0406 17.0144C12.0406 16.4234 11.5615 15.9443 10.9705 15.9443C10.3795 15.9443 9.90039 16.4234 9.90039 17.0144C9.90039 17.6054 10.3795 18.0845 10.9705 18.0845Z"
        fill="white" />
</svg>
