<svg width="13" height="12" viewBox="0 0 13 12" fill="none" xmlns="http://www.w3.org/2000/svg">
    <path
        d="M11.125 4.57484C9.97 2.75984 8.28 1.71484 6.5 1.71484C5.61 1.71484 4.745 1.97484 3.955 2.45984C3.165 2.94984 2.455 3.66484 1.875 4.57484C1.375 5.35984 1.375 6.63484 1.875 7.41984C3.03 9.23984 4.72 10.2798 6.5 10.2798C7.39 10.2798 8.255 10.0198 9.045 9.53484C9.835 9.04484 10.545 8.32984 11.125 7.41984C11.625 6.63984 11.625 5.35984 11.125 4.57484ZM6.5 8.01984C5.38 8.01984 4.48 7.11484 4.48 5.99984C4.48 4.88484 5.38 3.97984 6.5 3.97984C7.62 3.97984 8.52 4.88484 8.52 5.99984C8.52 7.11484 7.62 8.01984 6.5 8.01984Z"
        fill="#AEB2CD" />
    <path
        d="M6.49922 4.56982C5.71422 4.56982 5.07422 5.20982 5.07422 5.99982C5.07422 6.78482 5.71422 7.42482 6.49922 7.42482C7.28422 7.42482 7.92922 6.78482 7.92922 5.99982C7.92922 5.21482 7.28422 4.56982 6.49922 4.56982Z"
        fill="#AEB2CD" />
</svg>