<svg width="20" height="20" viewBox="0 0 20 20" fill="none" xmlns="http://www.w3.org/2000/svg">
    <g id="watch_later">
        <path id="Vector"
            d="M10 1.66663C5.41667 1.66663 1.66667 5.41663 1.66667 9.99996C1.66667 14.5833 5.41667 18.3333 10 18.3333C14.5833 18.3333 18.3333 14.5833 18.3333 9.99996C18.3333 5.41663 14.5833 1.66663 10 1.66663ZM10 16.6666C6.32501 16.6666 3.33334 13.675 3.33334 9.99996C3.33334 6.32496 6.32501 3.33329 10 3.33329C13.675 3.33329 16.6667 6.32496 16.6667 9.99996C16.6667 13.675 13.675 16.6666 10 16.6666ZM10.4167 5.83329H9.16667V10.8333L13.5 13.5L14.1667 12.4166L10.4167 10.1666V5.83329Z"
            fill="#9EABBE" />
    </g>
</svg>
