<svg width="360" height="235" viewBox="0 0 360 235" fill="none" xmlns="http://www.w3.org/2000/svg">
<g clip-path="url(#clip0_20_1523)">
<g clip-path="url(#clip1_20_1523)">
<path d="M328.051 97.988L324.744 106.403L327.089 107.314L330.396 98.8995L328.051 97.988Z" fill="#703EDB"/>
<path d="M121.434 77.3535L119.559 79.0238L125.62 85.7541L127.496 84.0837L121.434 77.3535Z" fill="#703EDB"/>
<path d="M149.225 107.477L141.953 112.893L143.462 114.898L150.734 109.481L149.225 107.477Z" fill="#703EDB"/>
<path d="M233.331 45.3202L231.606 47.1436L238.223 53.3354L239.948 51.512L233.331 45.3202Z" fill="#703EDB"/>
<path d="M185.218 47.3336L180.689 55.1667L182.872 56.4146L187.4 48.5815L185.218 47.3336Z" fill="#703EDB"/>
<path d="M250.975 114.319L248.846 115.655L253.695 123.296L255.824 121.96L250.975 114.319Z" fill="#703EDB"/>
<path d="M152.244 151.526L149.991 152.645L154.052 160.727L156.304 159.608L152.244 151.526Z" fill="#703EDB"/>
<path d="M119.291 130.26L116.682 138.914L119.094 139.633L121.703 130.979L119.291 130.26Z" fill="#703EDB"/>
<path d="M276.902 157.228L269.356 162.26L270.759 164.339L278.305 159.307L276.902 157.228Z" fill="#703EDB"/>
<path d="M278.033 31.0007L273.504 38.8336L275.687 40.0814L280.215 32.2485L278.033 31.0007Z" fill="#703EDB"/>
<path d="M26.3448 95.0822L23.9998 95.9937L27.3075 104.409L29.6524 103.497L26.3448 95.0822Z" fill="#703EDB"/>
<path d="M269.77 84.6864L268.261 86.6905L275.533 92.107L277.042 90.1029L269.77 84.6864Z" fill="#703EDB"/>
<path d="M65.5052 47.7704L58.8882 53.9622L60.6136 55.7856L67.2306 49.5938L65.5052 47.7704Z" fill="#703EDB"/>
<path d="M138.796 40.3969L136.613 41.6448L141.141 49.4779L143.324 48.23L138.796 40.3969Z" fill="#703EDB"/>
<path d="M49.7653 138.745L44.9165 146.386L47.0458 147.722L51.8945 140.081L49.7653 138.745Z" fill="#703EDB"/>
<path d="M28.2886 159.676L26.8862 161.756L34.4363 166.789L35.8387 164.708L28.2886 159.676Z" fill="#703EDB"/>
<path d="M319.579 59.897L317.396 61.1448L321.924 68.9777L324.107 67.7299L319.579 59.897Z" fill="#703EDB"/>
<path d="M224.983 81.2434L218.921 87.9737L220.797 89.6441L226.858 82.9138L224.983 81.2434Z" fill="#703EDB"/>
<path d="M171.769 157.105L167.709 165.187L169.961 166.306L174.021 158.224L171.769 157.105Z" fill="#703EDB"/>
<path d="M204.723 135.839L202.311 136.558L204.92 145.212L207.332 144.493L204.723 135.839Z" fill="#703EDB"/>
<path d="M205.534 140.778L196.953 134.291C196.764 134.149 196.548 134.047 196.318 133.992C196.087 133.937 195.848 133.931 195.615 133.973C195.382 134.015 195.16 134.105 194.964 134.237C194.768 134.369 194.602 134.54 194.476 134.74C194.255 135.115 194.182 135.559 194.271 135.985C194.361 136.411 194.606 136.788 194.959 137.045L196.799 138.436L188.994 136.703C188.13 136.495 186.935 136.79 186.765 137.77C186.675 138.143 186.714 138.535 186.877 138.882C187.039 139.23 187.315 139.513 187.66 139.684C187.656 139.692 187.653 139.7 187.651 139.708C187.65 139.714 187.65 139.721 187.651 139.727L186.318 139.407C186.071 139.348 185.814 139.344 185.565 139.396C185.317 139.449 185.083 139.555 184.881 139.709C184.679 139.862 184.514 140.058 184.398 140.283C184.282 140.508 184.218 140.755 184.211 141.008C184.207 141.406 184.341 141.793 184.59 142.104C184.839 142.416 185.188 142.633 185.578 142.719L186.145 142.855C186.148 142.873 186.155 142.891 186.165 142.907C185.76 142.903 185.367 143.043 185.057 143.301C184.746 143.559 184.538 143.918 184.469 144.315C184.407 144.751 184.512 145.195 184.764 145.557C185.016 145.919 185.396 146.174 185.829 146.27L187.238 146.608C187.215 146.618 187.194 146.632 187.178 146.651C187.161 146.67 187.15 146.692 187.144 146.716C187.138 146.745 187.141 146.775 187.152 146.803C186.791 146.899 186.471 147.111 186.242 147.405C186.014 147.7 185.889 148.061 185.887 148.433C185.893 148.824 186.031 149.201 186.279 149.504C186.528 149.807 186.871 150.018 187.255 150.102L199.143 152.958C200.807 153.357 202.552 153.254 204.155 152.661C205.759 152.067 207.148 151.012 208.144 149.628C209.003 148.436 209.361 146.957 209.141 145.506C208.921 144.056 208.141 142.747 206.966 141.86L205.534 140.778Z" fill="#E98862"/>
<g opacity="0.2">
<path d="M195.377 141.437C195.368 141.477 195.342 141.511 195.307 141.533C195.272 141.554 195.23 141.561 195.19 141.552L187.769 139.893C187.749 139.889 187.73 139.88 187.713 139.869C187.696 139.857 187.682 139.842 187.671 139.824C187.66 139.807 187.652 139.788 187.649 139.767C187.645 139.747 187.646 139.726 187.65 139.706C187.655 139.686 187.663 139.667 187.675 139.65C187.687 139.634 187.702 139.619 187.72 139.608C187.737 139.597 187.757 139.59 187.777 139.586C187.797 139.583 187.818 139.583 187.838 139.588L195.259 141.247C195.279 141.251 195.299 141.26 195.315 141.271C195.332 141.283 195.347 141.298 195.358 141.316C195.369 141.333 195.376 141.353 195.38 141.373C195.383 141.393 195.383 141.414 195.378 141.434L195.377 141.437Z" fill="#070B14"/>
</g>
<g opacity="0.2">
<path d="M194.733 144.712C194.723 144.752 194.697 144.787 194.662 144.808C194.627 144.83 194.584 144.836 194.544 144.827L186.262 142.977C186.242 142.973 186.223 142.964 186.206 142.952C186.189 142.941 186.174 142.925 186.163 142.908C186.152 142.891 186.145 142.871 186.141 142.851C186.138 142.83 186.138 142.81 186.143 142.79C186.153 142.75 186.179 142.715 186.214 142.693C186.249 142.671 186.291 142.663 186.332 142.671L194.614 144.521C194.634 144.525 194.653 144.534 194.67 144.546C194.687 144.558 194.701 144.573 194.712 144.59C194.723 144.608 194.731 144.627 194.734 144.647C194.738 144.668 194.737 144.689 194.733 144.709V144.712Z" fill="#070B14"/>
</g>
<g opacity="0.2">
<path d="M194.055 148.263C194.045 148.303 194.02 148.337 193.985 148.358C193.95 148.38 193.908 148.387 193.868 148.378L187.261 146.903C187.221 146.893 187.185 146.869 187.163 146.834C187.141 146.798 187.133 146.756 187.142 146.716C187.151 146.675 187.176 146.64 187.212 146.618C187.247 146.595 187.29 146.588 187.33 146.597L193.937 148.072C193.957 148.077 193.976 148.085 193.993 148.097C194.01 148.109 194.025 148.124 194.036 148.142C194.047 148.159 194.054 148.178 194.058 148.199C194.061 148.219 194.061 148.24 194.056 148.26L194.055 148.263Z" fill="#070B14"/>
</g>
<path d="M164.793 96.1606L169.584 86.5586C169.69 86.3476 169.838 86.1608 170.02 86.0099C170.202 85.859 170.413 85.7475 170.641 85.6824C170.868 85.6173 171.107 85.6 171.342 85.6317C171.577 85.6633 171.802 85.7433 172.004 85.8664C172.37 86.105 172.634 86.4702 172.744 86.8912C172.855 87.3122 172.804 87.759 172.602 88.145L171.574 90.204L177.793 85.2051C178.475 84.637 179.676 84.3738 180.267 85.1763C180.514 85.4703 180.654 85.839 180.663 86.2223C180.673 86.6056 180.552 86.9807 180.319 87.2866C180.326 87.2916 180.333 87.2974 180.338 87.3038C180.342 87.3093 180.345 87.315 180.347 87.321L181.399 86.4447C181.594 86.2826 181.822 86.1658 182.068 86.1027C182.314 86.0397 182.571 86.032 182.821 86.0802C183.07 86.1285 183.305 86.2314 183.51 86.3816C183.714 86.5318 183.882 86.7254 184.001 86.9483C184.182 87.3031 184.235 87.7089 184.152 88.0979C184.068 88.4869 183.852 88.8356 183.541 89.0855L183.093 89.4582C183.098 89.476 183.1 89.4946 183.098 89.513C183.459 89.331 183.873 89.2825 184.267 89.3764C184.661 89.4703 185.008 89.7003 185.246 90.0253C185.497 90.3887 185.6 90.8327 185.536 91.2687C185.472 91.7046 185.245 92.1005 184.9 92.3772L183.789 93.3027C183.814 93.3005 183.839 93.3043 183.862 93.3138C183.886 93.3233 183.906 93.3381 183.922 93.3571C183.94 93.3808 183.951 93.4091 183.954 93.4388C184.321 93.3654 184.702 93.4138 185.038 93.5767C185.374 93.7397 185.647 94.008 185.815 94.3404C185.985 94.6931 186.029 95.0923 185.942 95.4734C185.855 95.8544 185.641 96.1951 185.335 96.4401L175.959 104.25C174.648 105.342 173.038 106.021 171.336 106.197C169.635 106.374 167.919 106.042 166.408 105.242C165.106 104.553 164.125 103.386 163.675 101.989C163.224 100.593 163.338 99.0764 163.994 97.7624L164.793 96.1606Z" fill="#E98862"/>
<g opacity="0.2">
<path d="M174.188 92.2649C174.214 92.2964 174.253 92.3162 174.294 92.3201C174.335 92.3239 174.376 92.3113 174.408 92.2852L180.317 87.5226C180.349 87.4964 180.37 87.4585 180.374 87.4172C180.378 87.376 180.366 87.3346 180.34 87.3024C180.314 87.2701 180.275 87.2496 180.234 87.2453C180.192 87.241 180.151 87.2532 180.118 87.2794L174.21 92.0421C174.178 92.0681 174.157 92.1058 174.153 92.1468C174.149 92.1879 174.161 92.2289 174.187 92.2611L174.188 92.2649Z" fill="#070B14"/>
</g>
<g opacity="0.2">
<path d="M176.228 94.9144C176.255 94.9459 176.293 94.9657 176.334 94.9694C176.375 94.9732 176.416 94.9606 176.448 94.9344L183.042 89.6194C183.075 89.5933 183.095 89.5556 183.099 89.5146C183.104 89.4735 183.091 89.4325 183.065 89.4003C183.038 89.3695 183.001 89.35 182.96 89.3457C182.919 89.3414 182.878 89.3527 182.845 89.3772L176.249 94.6913C176.217 94.7174 176.196 94.755 176.192 94.7961C176.188 94.8371 176.2 94.8782 176.226 94.9104L176.228 94.9144Z" fill="#070B14"/>
</g>
<g opacity="0.2">
<path d="M178.421 97.7962C178.448 97.8277 178.486 97.8475 178.527 97.8514C178.569 97.8552 178.61 97.8426 178.642 97.8165L183.902 93.5768C183.934 93.5507 183.955 93.5128 183.959 93.4715C183.963 93.4302 183.951 93.3889 183.925 93.3567C183.899 93.3244 183.86 93.3039 183.819 93.2996C183.777 93.2952 183.736 93.3075 183.703 93.3337L178.442 97.5734C178.41 97.5994 178.39 97.6371 178.385 97.6781C178.381 97.7192 178.393 97.7602 178.419 97.7924L178.421 97.7962Z" fill="#070B14"/>
</g>
<path d="M57.2658 87.9279C57.2658 87.9279 56.5901 98.0099 54.3094 101.667C47.7424 112.197 45.8399 124.044 52.416 130.233C58.9921 136.423 100.936 136.508 104.114 122.273C106.789 110.288 101.048 108.999 99.6514 99.1138C99.0194 94.6403 97.2806 85.2599 97.2806 85.2599" fill="#070B14"/>
<path d="M93.2584 120.186C93.1861 120.176 92.3826 133.434 76.8949 132.278C66.173 131.479 62.3501 120.166 62.1046 120.166C63.2606 119.922 65.2072 119.567 65.7205 119.294C67.4089 118.392 69.4971 117.453 70.0422 114.193C70.3569 112.315 69.8235 102.7 69.9874 100.798L86.4454 104.452C86.2153 108.468 84.6059 117.777 90.2472 119.424C91.1857 119.697 92.1969 119.948 93.2584 120.186Z" fill="#E98862"/>
<path opacity="0.5" d="M86.6761 115.62C86.4183 114.794 86.2523 113.942 86.181 113.08C86.0002 111.113 86.0363 109.132 86.2887 107.173C82.9438 106.724 79.7926 105.351 77.1933 103.21C76.8877 104.332 75.2068 109.236 75.6722 110.302C76.5512 112.319 80.6845 115.62 86.6761 115.62Z" fill="#070B14"/>
<path d="M84.548 111.49C78.0591 112.116 69.6636 109.534 67.9244 100.941L66.3553 93.1872C64.6161 84.5945 67.7447 76.7203 75.8806 75.092C84.0167 73.4646 91.5077 79.2122 93.2468 87.8052L93.9417 91.2377C94.6089 94.5348 96.1249 110.376 84.548 111.49Z" fill="#E98862"/>
<path opacity="0.1" d="M80.4233 100.23C81.4911 100.103 82.281 99.3691 82.1875 98.5903C82.0941 97.8114 81.1527 97.2828 80.0848 97.4095C79.017 97.5361 78.2271 98.2702 78.3206 99.0491C78.414 99.8279 79.3554 100.357 80.4233 100.23Z" fill="#070B14"/>
<path opacity="0.1" d="M91.7066 97.1161C91.801 97.8938 92.7436 98.4218 93.8114 98.2966C93.9959 98.2746 94.1777 98.2336 94.3537 98.1743C94.4034 97.2469 94.4062 96.355 94.3792 95.5291C94.0826 95.4553 93.7747 95.4374 93.4715 95.4762C92.4037 95.6014 91.614 96.3353 91.7066 97.1161Z" fill="#070B14"/>
<path opacity="0.5" d="M86.9883 99.52C86.9936 99.5195 86.9988 99.5186 87.004 99.5175C87.3338 99.4492 87.6595 99.3627 87.9797 99.2587C88.4574 99.0997 89.0812 98.8387 88.9956 98.409C88.8968 97.9195 86.4778 92.9068 86.2034 92.3375C86.1921 92.3118 86.1758 92.2886 86.1553 92.2693C86.1349 92.2501 86.1107 92.2351 86.0843 92.2253C86.0579 92.2155 86.0298 92.2112 86.0016 92.2124C85.9735 92.2137 85.9459 92.2206 85.9205 92.2327C85.8951 92.2449 85.8724 92.262 85.8538 92.283C85.8352 92.3041 85.821 92.3286 85.8122 92.3552C85.8033 92.3818 85.8 92.4099 85.8023 92.4379C85.8046 92.4658 85.8126 92.493 85.8257 92.5178C86.8571 94.6525 88.5181 98.1624 88.5849 98.4919C88.5326 98.6456 87.7402 98.9457 86.9222 99.1097C86.8951 99.114 86.8691 99.1237 86.8457 99.138C86.8223 99.1524 86.802 99.1712 86.7859 99.1933C86.7698 99.2155 86.7582 99.2406 86.7519 99.2672C86.7456 99.2938 86.7446 99.3213 86.7489 99.3483C86.7533 99.3753 86.763 99.4012 86.7774 99.4244C86.7919 99.4477 86.8108 99.4679 86.8331 99.4839C86.8553 99.4999 86.8806 99.5114 86.9073 99.5177C86.9341 99.524 86.9618 99.525 86.9889 99.5206L86.9883 99.52Z" fill="#070B14"/>
<path d="M59.8635 95.971L67.1575 94.5542C72.6673 92.263 74.2305 82.7142 74.2305 82.7142C74.2305 82.7142 81.0303 89.1541 97.2818 85.2599C97.2818 85.2599 93.7516 62.6996 69.7549 69.5491C62.0175 71.7571 56.5366 79.5999 57.3517 89.9878C57.923 97.2654 59.8635 95.971 59.8635 95.971Z" fill="#070B14"/>
<path d="M68.9596 103.457C66.4871 103.952 63.9505 101.723 63.452 99.2637C62.9535 96.8044 64.6844 95.0481 67.1569 94.5529L68.7645 95.9456L71.0849 103.031L68.9596 103.457Z" fill="#E98862"/>
<path d="M87.9561 88.34C88.5747 87.905 89.2981 87.6407 90.0527 87.5739C90.4319 87.5377 90.8144 87.5588 91.1873 87.6365C91.5633 87.7127 91.9282 87.8355 92.2734 88.002L92.2841 88.007C92.3224 88.0238 92.3657 88.0251 92.4049 88.0105C92.444 87.9959 92.4759 87.9667 92.4937 87.9291C92.5115 87.8914 92.5138 87.8484 92.5001 87.8091C92.4864 87.7698 92.4578 87.7374 92.4204 87.7188C92.0545 87.5267 91.6658 87.3812 91.2635 87.2857C90.8583 87.1877 90.4406 87.1509 90.0244 87.1764C89.1814 87.2227 88.3663 87.4929 87.664 87.9588C87.6378 87.9765 87.6154 87.9991 87.598 88.0254C87.5806 88.0516 87.5686 88.081 87.5627 88.1119C87.5567 88.1428 87.557 88.1746 87.5634 88.2054C87.5698 88.2362 87.5823 88.2654 87.6001 88.2914C87.6179 88.3174 87.6407 88.3396 87.6671 88.3569C87.6936 88.3741 87.7232 88.386 87.7543 88.3918C87.7854 88.3976 87.8173 88.3973 87.8482 88.3908C87.8792 88.3844 87.9086 88.3719 87.9347 88.3541L87.9403 88.3504L87.9561 88.34Z" fill="#070B14"/>
<path d="M81.2931 89.2558C80.4648 89.0919 79.6075 89.1521 78.8106 89.4301C78.4167 89.565 78.0454 89.7579 77.7091 90.0025C77.3741 90.2439 77.0711 90.5263 76.8071 90.8431C76.7805 90.8746 76.7671 90.9151 76.7698 90.9562C76.7726 90.9973 76.7912 91.0357 76.8218 91.0634C76.8524 91.0912 76.8926 91.106 76.934 91.1049C76.9754 91.1038 77.0147 91.0868 77.0438 91.0575L77.0523 91.0487C77.307 90.7634 77.5967 90.5111 77.9146 90.2976C78.2292 90.0842 78.5745 89.9193 78.9387 89.8085C79.6616 89.5826 80.4317 89.5513 81.1707 89.7177L81.189 89.7224C81.251 89.7373 81.3164 89.7272 81.3709 89.6941C81.4254 89.6611 81.4644 89.6079 81.4794 89.5462C81.4945 89.4845 81.4842 89.4194 81.451 89.3653C81.4178 89.3111 81.3643 89.2723 81.3023 89.2573L81.2931 89.2558Z" fill="#070B14"/>
<path d="M67.1625 94.4346C72.0655 92.6195 73.6926 89.2526 74.1937 86.747C74.5179 85.076 74.4876 83.3561 74.1046 81.6974L73.9529 81.739C74.3302 83.376 74.3593 85.0734 74.0385 86.7223C73.5438 89.1869 71.9399 92.4999 67.1074 94.2885L67.1625 94.4346Z" fill="#070B14"/>
<path d="M105.872 121.763L152.428 137.238L138.759 143.28L161.973 95.9222L180.945 104.715L159.407 152.848C158.318 155.282 156.384 157.245 153.959 158.379C151.535 159.512 148.781 159.74 146.201 159.021L145.738 158.89L98.4778 145.696L105.872 121.763Z" fill="#703EDB"/>
<path d="M76.6061 128.964C65.8767 128.461 65.425 119.405 65.425 119.405C65.425 119.405 60.1088 119.747 56.5748 120.222C50.789 121 46.9721 122.951 43.9344 125.972C41.1088 128.782 39.3886 131.822 41.2089 151.231C42.527 165.285 41.5995 196.198 41.5995 196.198H106.983C106.983 196.198 111.548 151.538 112.09 145.213C113.122 133.136 116.041 130.469 110.128 124.248C105.84 119.737 94.7695 119.405 90.3137 119.406C90.241 119.406 91.2179 129.649 76.6061 128.964Z" fill="#703EDB"/>
<path d="M89.1634 101.214C87.0551 102.28 84.6498 102.617 82.3274 102.172C82.247 102.157 82.1639 102.165 82.088 102.195C82.012 102.225 81.9462 102.276 81.8983 102.342C81.8505 102.408 81.8224 102.486 81.8175 102.567C81.8127 102.649 81.8311 102.73 81.8707 102.801C82.5631 104.014 84.2053 106.087 87.0227 105.242C88.8417 104.696 89.5294 102.835 89.7843 101.684C89.8018 101.604 89.796 101.521 89.7677 101.445C89.7393 101.368 89.6896 101.301 89.6244 101.252C89.5592 101.203 89.4812 101.173 89.3995 101.166C89.3179 101.159 89.2359 101.176 89.1634 101.214Z" fill="white"/>
<path d="M89.2953 91.8899C89.8579 91.8899 90.314 91.4364 90.314 90.8769C90.314 90.3174 89.8579 89.8638 89.2953 89.8638C88.7326 89.8638 88.2765 90.3174 88.2765 90.8769C88.2765 91.4364 88.7326 91.8899 89.2953 91.8899Z" fill="#070B14"/>
<path d="M79.5062 93.5941C80.0688 93.5941 80.525 93.1405 80.525 92.581C80.525 92.0215 80.0688 91.5679 79.5062 91.5679C78.9436 91.5679 78.4875 92.0215 78.4875 92.581C78.4875 93.1405 78.9436 93.5941 79.5062 93.5941Z" fill="#070B14"/>
<path d="M111.944 149.613C111.937 149.613 111.931 149.613 111.924 149.613C111.883 149.608 111.845 149.586 111.82 149.554C111.794 149.521 111.783 149.48 111.788 149.438L112.8 141.277C112.802 141.256 112.809 141.237 112.819 141.219C112.829 141.201 112.842 141.185 112.859 141.172C112.875 141.159 112.894 141.15 112.914 141.145C112.934 141.139 112.955 141.138 112.975 141.141C112.996 141.144 113.016 141.15 113.034 141.16C113.052 141.17 113.068 141.184 113.08 141.2C113.093 141.216 113.102 141.235 113.108 141.255C113.113 141.275 113.115 141.295 113.112 141.316L112.1 149.477C112.095 149.514 112.076 149.549 112.048 149.574C112.019 149.599 111.982 149.613 111.944 149.613Z" fill="#070B14"/>
<path d="M277.444 86.6378C277.444 86.6378 273.544 82.2823 273.996 74.1256C274.346 67.81 279.245 72.9176 279.245 72.9176C279.245 72.9176 279.542 68.3724 282.697 69.4546C285.852 70.5369 286.738 75.5486 286.738 75.5486" fill="#070B14"/>
<path d="M299.363 73.2965C299.363 73.2965 315.116 78.2035 304.949 98.7404L303.506 98.5526L300.576 98.1724" fill="#070B14"/>
<path d="M276.953 120.153C277.026 120.143 277.826 133.357 293.263 132.205C303.949 131.409 307.759 120.134 308.004 120.134C306.852 119.89 304.912 119.536 304.4 119.265C302.717 118.366 300.635 117.43 300.093 114.181C299.78 112.308 300.311 102.726 300.147 100.831L283.744 104.472C283.973 108.474 285.577 117.752 279.954 119.394C279.019 119.666 278.01 119.915 276.953 120.153Z" fill="#E98862"/>
<path opacity="0.52" d="M283.514 115.603C283.771 114.779 283.936 113.93 284.007 113.071C284.188 111.11 284.152 109.135 283.9 107.182C287.234 106.735 290.375 105.367 292.966 103.233C293.271 104.351 294.946 109.239 294.482 110.302C293.605 112.312 289.485 115.603 283.514 115.603Z" fill="#070B14"/>
<path d="M285.481 111.128C291.941 111.82 300.336 109.338 302.163 100.792L303.811 93.082C305.637 84.5382 302.606 76.6556 294.515 74.9452C286.424 73.2349 278.895 78.8839 277.069 87.429L276.339 90.8425C276.109 92.0188 275.96 93.2094 275.893 94.4059C275.692 97.5668 275.398 102.375 276.865 105.958C278.25 109.341 281.354 110.686 285.481 111.128Z" fill="#E98862"/>
<path d="M280.349 91.4418C280.912 91.4418 281.368 90.9882 281.368 90.4287C281.368 89.8692 280.912 89.4157 280.349 89.4157C279.787 89.4157 279.331 89.8692 279.331 90.4287C279.331 90.9882 279.787 91.4418 280.349 91.4418Z" fill="#070B14"/>
<path d="M290.025 92.4549C290.588 92.4549 291.044 92.0013 291.044 91.4418C291.044 90.8823 290.588 90.4287 290.025 90.4287C289.463 90.4287 289.006 90.8823 289.006 91.4418C289.006 92.0013 289.463 92.4549 290.025 92.4549Z" fill="#070B14"/>
<path d="M301.104 103.29C303.563 103.809 306.115 101.615 306.638 99.1698C307.161 96.7246 305.456 94.9551 302.997 94.4353L301.38 95.8057L298.99 102.843L301.104 103.29Z" fill="#E98862"/>
<path d="M299.443 98.8646C299.443 98.8646 301.04 86.5774 297.494 85.0962C295.133 84.1097 288.466 86.3987 283.146 84.254C280.819 83.3151 278.403 83.4559 277.942 84.546C277.759 84.9776 277.548 78.2132 282.32 74.057C286.119 70.7478 296.211 71.6012 300.445 73.7726C312.169 79.7843 303.4 95.07 303.4 95.07L302.007 99.1385L299.443 98.8646Z" fill="#070B14"/>
<g opacity="0.52">
<path d="M283 99.7438L282.984 99.7413C282.191 99.5757 280.88 99.2092 281.003 98.6205C281.107 98.132 283.565 93.1377 283.845 92.57C283.869 92.5212 283.912 92.4838 283.964 92.4662C284.016 92.4486 284.072 92.4522 284.121 92.4761C284.17 92.5001 284.208 92.5425 284.226 92.5939C284.243 92.6454 284.24 92.7018 284.216 92.7506C283.125 94.962 281.478 98.3727 281.407 98.7047C281.456 98.8612 282.247 99.1682 283.068 99.3394C283.12 99.3509 283.165 99.3816 283.194 99.4252C283.224 99.4688 283.235 99.5219 283.226 99.5738C283.218 99.6256 283.189 99.6721 283.147 99.7037C283.105 99.7353 283.052 99.7497 283 99.7438Z" fill="#070B14"/>
</g>
<path d="M282.817 87.2597C282.038 86.8688 281.167 86.694 280.297 86.7536C279.869 86.7804 279.448 86.8708 279.047 87.0218C278.651 87.1694 278.274 87.3663 277.928 87.6077C277.87 87.6444 277.828 87.7023 277.813 87.769C277.798 87.8356 277.809 87.9056 277.845 87.9639C277.881 88.0221 277.939 88.0639 278.006 88.0802C278.072 88.0966 278.143 88.0861 278.202 88.0512L278.22 88.0408C278.538 87.8447 278.88 87.6891 279.237 87.5777C279.589 87.4658 279.956 87.4076 280.326 87.4052C281.056 87.3946 281.776 87.5761 282.414 87.9313L282.438 87.9454C282.482 87.9718 282.532 87.9892 282.583 87.9966C282.634 88.0039 282.687 88.0011 282.737 87.9882C282.787 87.9754 282.835 87.9528 282.876 87.9217C282.918 87.8906 282.952 87.8517 282.979 87.8071C283.005 87.7626 283.022 87.7133 283.029 87.6622C283.036 87.611 283.033 87.559 283.02 87.5091C283.006 87.4591 282.983 87.4123 282.952 87.3713C282.92 87.3303 282.881 87.2958 282.836 87.27L282.817 87.2597Z" fill="#070B14"/>
<path d="M288.642 88.8254C289.35 88.6449 290.093 88.6534 290.796 88.8501C291.152 88.9471 291.492 89.0971 291.803 89.2949C292.119 89.4939 292.409 89.7317 292.666 90.0025L292.68 90.0166C292.729 90.0633 292.793 90.0897 292.861 90.0901C292.929 90.0905 292.994 90.0649 293.043 90.0188C293.092 89.9726 293.121 89.9093 293.124 89.8422C293.128 89.7751 293.105 89.7093 293.061 89.6585C292.788 89.3367 292.475 89.0503 292.13 88.8063C291.782 88.5582 291.398 88.3632 290.992 88.228C290.166 87.9476 289.28 87.8935 288.426 88.0715C288.375 88.0824 288.327 88.1032 288.285 88.1325C288.242 88.1619 288.206 88.1993 288.178 88.2425C288.122 88.3299 288.103 88.436 288.125 88.5375C288.147 88.639 288.209 88.7275 288.297 88.7836C288.385 88.8397 288.491 88.8588 288.594 88.8367L288.614 88.8317L288.642 88.8254Z" fill="#070B14"/>
<path d="M281.753 101.639C284.048 102.209 286.468 102.003 288.631 101.052C288.706 101.02 288.789 101.009 288.87 101.022C288.951 101.034 289.026 101.069 289.088 101.123C289.149 101.177 289.194 101.246 289.217 101.324C289.24 101.403 289.24 101.485 289.218 101.564C288.815 102.9 287.682 105.288 284.746 105.09C282.85 104.963 281.761 103.302 281.253 102.237C281.217 102.163 281.204 102.081 281.215 102C281.225 101.918 281.258 101.842 281.311 101.779C281.364 101.716 281.433 101.67 281.511 101.645C281.59 101.62 281.674 101.618 281.753 101.639Z" fill="white"/>
<path d="M290.858 75.8077C291.955 73.2483 291.426 70.573 289.677 69.8323C287.929 69.0915 285.622 70.5658 284.526 73.1252C283.43 75.6846 283.958 78.3598 285.707 79.1006C287.455 79.8413 289.762 78.3671 290.858 75.8077Z" fill="#070B14"/>
<path d="M293.503 128.964C304.232 128.461 304.684 119.405 304.684 119.405C304.684 119.405 310 119.747 313.534 120.222C319.32 121 323.137 122.951 326.174 125.972C329 128.782 330.72 131.822 328.9 151.231C327.582 165.285 328.509 196.198 328.509 196.198H263.126C263.126 196.198 258.561 151.539 258.019 145.213C256.986 133.136 254.068 130.469 259.981 124.248C264.269 119.737 275.339 119.405 279.795 119.406C279.867 119.406 278.892 129.649 293.503 128.964Z" fill="#703EDB"/>
<path d="M257.865 127.045L240.96 162.683L207.624 137.754L194.383 155.263L238.526 188.273C238.921 188.565 239.333 188.832 239.761 189.074C241.023 189.777 242.411 190.225 243.846 190.395C245.282 190.564 246.737 190.45 248.129 190.06C249.52 189.67 250.821 189.012 251.957 188.122C253.092 187.232 254.04 186.128 254.747 184.874L254.938 184.535L280.729 138.758L257.865 127.045Z" fill="#703EDB"/>
<path d="M331.018 196.51H33.2669C33.1835 196.51 33.1034 196.477 33.0444 196.419C32.9854 196.36 32.9522 196.281 32.9522 196.198C32.9522 196.115 32.9854 196.035 33.0444 195.976C33.1034 195.918 33.1835 195.885 33.2669 195.885H331.018C331.101 195.885 331.182 195.918 331.241 195.976C331.3 196.035 331.333 196.115 331.333 196.198C331.333 196.281 331.3 196.36 331.241 196.419C331.182 196.477 331.101 196.51 331.018 196.51Z" fill="#3D3D3D"/>
<path d="M266.255 149.647H106.812V203.843H266.255V149.647Z" fill="white"/>
<path d="M266.412 204H106.655V149.491H266.412V204ZM106.969 203.687H266.097V149.804H106.969V203.687Z" fill="#070B14"/>
<path d="M98.9389 166.21L108.781 161.839C108.997 161.743 109.231 161.693 109.468 161.692C109.705 161.691 109.94 161.739 110.157 161.833C110.374 161.927 110.569 162.064 110.73 162.237C110.891 162.41 111.013 162.615 111.09 162.838C111.219 163.253 111.189 163.702 111.004 164.096C110.82 164.491 110.495 164.803 110.092 164.972L107.981 165.911L115.978 165.993C116.868 165.987 117.963 166.545 117.905 167.537C117.907 167.92 117.779 168.293 117.541 168.595C117.303 168.897 116.969 169.109 116.594 169.198C116.596 169.206 116.598 169.215 116.598 169.223C116.597 169.23 116.596 169.236 116.594 169.242L117.965 169.233C118.219 169.231 118.47 169.286 118.7 169.393C118.93 169.5 119.133 169.656 119.294 169.851C119.456 170.046 119.571 170.274 119.633 170.519C119.694 170.764 119.7 171.02 119.65 171.267C119.562 171.655 119.343 172.002 119.03 172.249C118.716 172.496 118.326 172.628 117.926 172.624L117.343 172.628C117.335 172.645 117.324 172.66 117.311 172.673C117.706 172.761 118.057 172.986 118.3 173.308C118.543 173.629 118.664 174.026 118.64 174.428C118.601 174.867 118.397 175.275 118.068 175.571C117.74 175.867 117.311 176.029 116.868 176.024L115.419 176.035C115.439 176.049 115.456 176.067 115.467 176.089C115.479 176.111 115.486 176.135 115.487 176.16C115.485 176.189 115.475 176.218 115.458 176.242C115.788 176.418 116.051 176.696 116.206 177.035C116.361 177.374 116.4 177.753 116.316 178.116C116.221 178.495 116 178.831 115.689 179.07C115.378 179.308 114.995 179.435 114.602 179.431L102.372 179.517C100.661 179.529 98.9856 179.033 97.5602 178.092C96.1348 177.151 95.0244 175.809 94.3714 174.236C93.8083 172.88 93.799 171.36 94.3455 169.997C94.8921 168.634 95.9513 167.537 97.2983 166.939L98.9389 166.21Z" fill="#E98862"/>
<g opacity="0.2">
<path d="M108.678 169.154C108.678 169.196 108.695 169.235 108.724 169.264C108.754 169.293 108.794 169.309 108.835 169.309L116.44 169.377C116.482 169.377 116.522 169.361 116.552 169.332C116.582 169.303 116.599 169.263 116.599 169.222C116.6 169.18 116.583 169.14 116.554 169.111C116.525 169.081 116.485 169.064 116.443 169.064L108.838 168.995C108.796 168.995 108.756 169.012 108.726 169.041C108.697 169.071 108.68 169.11 108.68 169.152L108.678 169.154Z" fill="#070B14"/>
</g>
<g opacity="0.2">
<path d="M108.555 172.49C108.555 172.531 108.572 172.571 108.602 172.6C108.631 172.628 108.671 172.645 108.712 172.645L117.2 172.721C117.242 172.721 117.282 172.704 117.311 172.675C117.341 172.645 117.357 172.606 117.357 172.564C117.356 172.523 117.339 172.484 117.31 172.455C117.28 172.426 117.241 172.409 117.2 172.408L108.712 172.332C108.691 172.331 108.671 172.335 108.651 172.343C108.632 172.351 108.615 172.362 108.6 172.377C108.585 172.391 108.573 172.409 108.565 172.428C108.557 172.447 108.553 172.467 108.553 172.488L108.555 172.49Z" fill="#070B14"/>
</g>
<g opacity="0.2">
<path d="M108.401 176.1C108.401 176.141 108.418 176.18 108.448 176.209C108.477 176.238 108.517 176.254 108.558 176.254L115.329 176.315C115.371 176.315 115.411 176.299 115.441 176.27C115.47 176.241 115.487 176.201 115.488 176.16C115.488 176.118 115.472 176.078 115.443 176.049C115.413 176.019 115.373 176.002 115.332 176.002L108.561 175.941C108.519 175.941 108.479 175.958 108.45 175.987C108.42 176.017 108.404 176.056 108.404 176.098L108.401 176.1Z" fill="#070B14"/>
</g>
<path d="M101.756 183.637L47.1877 195.973C45.3749 196.169 43.541 195.945 41.83 195.318C40.119 194.691 38.5773 193.678 37.326 192.359C36.0747 191.04 35.1477 189.451 34.6179 187.715C34.0881 185.98 33.9697 184.147 34.2722 182.359L40.5169 132.41C41.0362 129.34 42.7605 126.602 45.3103 124.796C47.8602 122.991 51.0268 122.267 54.1135 122.784C57.2003 123.3 59.9542 125.015 61.7697 127.55C63.5851 130.086 64.3132 133.235 63.7938 136.304L60.7867 172.056L98.6991 163.524L101.756 183.637Z" fill="#703EDB"/>
<path d="M53.1148 173.461C53.0752 173.46 53.0373 173.445 53.0085 173.418C52.9796 173.391 52.962 173.355 52.9591 173.315C52.9562 173.276 52.9683 173.237 52.9928 173.207C53.0174 173.176 53.0527 173.155 53.0918 173.149L60.6957 171.535C60.7162 171.532 60.7371 171.532 60.7572 171.537C60.7774 171.542 60.7963 171.551 60.813 171.563C60.8297 171.575 60.8437 171.591 60.8542 171.609C60.8648 171.626 60.8717 171.646 60.8745 171.666C60.8806 171.707 60.8702 171.749 60.8454 171.782C60.8206 171.816 60.7835 171.838 60.7423 171.844L53.1384 173.459C53.1306 173.46 53.1227 173.461 53.1148 173.461Z" fill="#070B14"/>
<path d="M48.8248 196.198C48.7831 196.2 48.742 196.186 48.7105 196.159C48.6791 196.131 48.6599 196.093 48.6572 196.051C48.6545 196.01 48.6685 195.969 48.6961 195.938C48.7237 195.906 48.7626 195.887 48.8043 195.885L101.414 183.563L98.4325 163.752L60.7464 171.842C60.722 171.845 60.6973 171.843 60.6741 171.835C60.6509 171.827 60.6299 171.814 60.6126 171.796C60.5955 171.779 60.5827 171.757 60.5754 171.734C60.568 171.71 60.5664 171.685 60.5705 171.661L62.6844 151.234C62.6876 151.214 62.6948 151.194 62.7057 151.177C62.7166 151.159 62.7309 151.144 62.7478 151.132C62.7647 151.12 62.7839 151.112 62.8041 151.107C62.8244 151.103 62.8453 151.102 62.8657 151.106C62.9069 151.113 62.9436 151.136 62.9678 151.169C62.992 151.203 63.0017 151.245 62.9948 151.286L60.9176 171.504L98.5058 163.407C98.5261 163.402 98.5472 163.4 98.568 163.403C98.5888 163.406 98.6089 163.412 98.627 163.423C98.6451 163.433 98.6609 163.447 98.6735 163.464C98.6861 163.481 98.6952 163.5 98.7003 163.52L101.757 183.635C101.767 183.675 101.761 183.716 101.74 183.751C101.719 183.787 101.686 183.812 101.646 183.823L48.8453 196.196C48.8385 196.197 48.8316 196.198 48.8248 196.198Z" fill="#070B14"/>
<path d="M271.17 175.599L261.327 171.228C261.111 171.132 260.877 171.082 260.64 171.081C260.403 171.08 260.169 171.128 259.952 171.222C259.735 171.315 259.539 171.453 259.379 171.626C259.218 171.799 259.095 172.004 259.019 172.226C258.889 172.642 258.92 173.091 259.104 173.485C259.289 173.88 259.614 174.192 260.017 174.361L262.128 175.3L254.13 175.382C253.241 175.376 252.145 175.934 252.204 176.926C252.202 177.309 252.33 177.682 252.568 177.984C252.806 178.286 253.14 178.498 253.515 178.587C253.512 178.595 253.511 178.604 253.511 178.612C253.512 178.619 253.513 178.625 253.515 178.631L252.144 178.622C251.89 178.62 251.639 178.675 251.409 178.782C251.179 178.889 250.976 179.045 250.814 179.24C250.653 179.435 250.537 179.663 250.476 179.908C250.414 180.153 250.409 180.408 250.459 180.656C250.546 181.044 250.765 181.391 251.079 181.638C251.393 181.884 251.782 182.017 252.182 182.013L252.766 182.017C252.774 182.033 252.785 182.049 252.798 182.062C252.403 182.15 252.052 182.375 251.809 182.697C251.566 183.018 251.445 183.415 251.469 183.817C251.508 184.256 251.712 184.664 252.041 184.96C252.369 185.256 252.798 185.418 253.241 185.413L254.691 185.424C254.67 185.438 254.653 185.456 254.641 185.478C254.63 185.5 254.623 185.524 254.623 185.549C254.624 185.578 254.633 185.607 254.651 185.631C254.321 185.807 254.058 186.085 253.903 186.424C253.748 186.762 253.709 187.142 253.792 187.505C253.888 187.884 254.109 188.22 254.42 188.459C254.731 188.697 255.114 188.824 255.507 188.819L267.737 188.906C269.448 188.918 271.124 188.422 272.549 187.481C273.975 186.54 275.085 185.197 275.738 183.624C276.301 182.268 276.31 180.748 275.764 179.385C275.217 178.022 274.158 176.925 272.811 176.327L271.17 175.599Z" fill="#E98862"/>
<g opacity="0.2">
<path d="M261.431 178.543C261.43 178.584 261.414 178.624 261.384 178.653C261.355 178.681 261.315 178.698 261.274 178.698L253.668 178.766C253.647 178.766 253.627 178.762 253.608 178.754C253.589 178.746 253.571 178.735 253.556 178.721C253.542 178.706 253.53 178.689 253.522 178.67C253.514 178.651 253.509 178.631 253.509 178.61C253.509 178.59 253.513 178.57 253.521 178.55C253.528 178.531 253.54 178.514 253.554 178.499C253.569 178.485 253.586 178.473 253.605 178.465C253.624 178.457 253.645 178.453 253.665 178.453L261.271 178.384C261.312 178.384 261.352 178.401 261.382 178.43C261.412 178.46 261.428 178.499 261.428 178.541L261.431 178.543Z" fill="#070B14"/>
</g>
<g opacity="0.2">
<path d="M261.554 181.879C261.553 181.92 261.537 181.959 261.507 181.988C261.478 182.017 261.439 182.033 261.398 182.033L252.91 182.11C252.868 182.11 252.828 182.093 252.799 182.064C252.769 182.034 252.753 181.995 252.753 181.953C252.754 181.912 252.771 181.873 252.8 181.844C252.829 181.815 252.869 181.798 252.91 181.797L261.398 181.721C261.439 181.721 261.479 181.737 261.509 181.766C261.538 181.796 261.555 181.835 261.555 181.877L261.554 181.879Z" fill="#070B14"/>
</g>
<g opacity="0.2">
<path d="M261.708 185.489C261.707 185.53 261.69 185.569 261.661 185.598C261.632 185.627 261.592 185.643 261.551 185.643L254.78 185.704C254.759 185.704 254.739 185.7 254.72 185.693C254.7 185.685 254.683 185.673 254.668 185.659C254.654 185.645 254.642 185.628 254.634 185.609C254.626 185.59 254.621 185.569 254.621 185.549C254.621 185.528 254.625 185.508 254.633 185.489C254.64 185.47 254.652 185.452 254.666 185.438C254.681 185.423 254.698 185.411 254.717 185.403C254.736 185.395 254.756 185.391 254.777 185.391L261.548 185.33C261.589 185.33 261.629 185.347 261.659 185.376C261.688 185.405 261.705 185.445 261.705 185.487L261.708 185.489Z" fill="#070B14"/>
</g>
<path d="M271.5 193.026L322.921 195.973C324.734 196.169 326.568 195.945 328.279 195.318C329.99 194.691 331.531 193.678 332.783 192.359C334.034 191.04 334.961 189.451 335.491 187.715C336.021 185.98 336.139 184.147 335.836 182.359L329.593 132.408C329.336 130.888 328.78 129.434 327.958 128.128C327.135 126.821 326.062 125.689 324.799 124.795C323.537 123.901 322.11 123.263 320.599 122.918C319.089 122.572 317.525 122.526 315.996 122.782C314.468 123.038 313.005 123.59 311.691 124.408C310.378 125.226 309.239 126.293 308.34 127.549C307.441 128.804 306.8 130.224 306.453 131.726C306.105 133.228 306.059 134.783 306.316 136.303L309.323 174.245L271.725 172.911L271.5 193.026Z" fill="#703EDB"/>
<path d="M316.994 174.086C317.033 174.086 317.071 174.071 317.1 174.044C317.129 174.017 317.147 173.981 317.15 173.942C317.153 173.902 317.141 173.863 317.116 173.833C317.091 173.802 317.056 173.781 317.017 173.775L309.413 173.726C309.393 173.722 309.372 173.723 309.352 173.728C309.331 173.733 309.312 173.742 309.296 173.754C309.279 173.766 309.265 173.781 309.254 173.799C309.244 173.817 309.237 173.837 309.234 173.857C309.228 173.898 309.238 173.94 309.263 173.973C309.288 174.007 309.325 174.029 309.367 174.035L316.97 174.085C316.978 174.086 316.986 174.086 316.994 174.086Z" fill="#070B14"/>
<path d="M321.284 196.198C321.326 196.2 321.367 196.186 321.399 196.159C321.43 196.131 321.449 196.093 321.452 196.051C321.454 196.01 321.44 195.969 321.413 195.937C321.385 195.906 321.346 195.887 321.304 195.885L271.842 192.953L271.99 173.143L309.361 174.034C309.386 174.037 309.411 174.035 309.434 174.027C309.457 174.019 309.478 174.006 309.495 173.988C309.512 173.971 309.525 173.949 309.533 173.926C309.54 173.902 309.542 173.877 309.537 173.853L307.424 151.235C307.421 151.215 307.413 151.196 307.402 151.178C307.392 151.16 307.377 151.145 307.36 151.133C307.343 151.121 307.324 151.113 307.304 151.108C307.284 151.104 307.263 151.103 307.242 151.107C307.222 151.111 307.203 151.118 307.185 151.129C307.167 151.14 307.152 151.154 307.14 151.171C307.128 151.187 307.12 151.206 307.115 151.226C307.11 151.246 307.11 151.267 307.113 151.287L309.192 173.696L271.918 172.797C271.898 172.792 271.877 172.79 271.856 172.793C271.835 172.796 271.815 172.802 271.797 172.813C271.779 172.824 271.763 172.838 271.751 172.854C271.738 172.871 271.729 172.89 271.724 172.91L271.499 193.025C271.489 193.065 271.496 193.107 271.516 193.142C271.537 193.177 271.571 193.202 271.61 193.213L321.263 196.194C321.27 196.196 321.277 196.197 321.284 196.198Z" fill="#070B14"/>
<path d="M144.613 185.108H140.433L138.089 176.065C138.002 175.743 137.854 175.078 137.645 174.069C137.436 173.061 137.316 172.384 137.284 172.038C137.237 172.462 137.118 173.143 136.928 174.081C136.739 175.019 136.593 175.688 136.491 176.089L134.158 185.108H129.99L125.574 167.895H129.185L131.399 177.291C131.786 179.025 132.066 180.529 132.24 181.8C132.287 181.352 132.396 180.66 132.565 179.722C132.735 178.784 132.895 178.056 133.045 177.538L135.567 167.895H139.036L141.558 177.538C141.668 177.97 141.806 178.629 141.972 179.516C142.138 180.402 142.264 181.164 142.35 181.8C142.429 181.188 142.555 180.425 142.728 179.51C142.901 178.595 143.058 177.856 143.2 177.291L145.403 167.895H149.014L144.613 185.108Z" fill="#703EDB"/>
<path d="M161.165 185.108H151.196V167.895H161.165V170.885H154.867V174.665H160.728V177.654H154.867V182.093H161.165V185.108Z" fill="#703EDB"/>
<path d="M164.776 185.108V167.895H168.447V182.094H175.468V185.109L164.776 185.108Z" fill="#703EDB"/>
<path d="M185.829 170.684C185.207 170.656 184.587 170.783 184.026 171.053C183.466 171.324 182.982 171.729 182.619 172.232C181.861 173.265 181.482 174.703 181.482 176.548C181.482 180.387 182.931 182.306 185.827 182.306C187.34 182.248 188.832 181.941 190.244 181.399V184.46C188.732 185.066 187.114 185.366 185.484 185.343C182.967 185.343 181.041 184.584 179.706 183.065C178.372 181.546 177.705 179.365 177.705 176.524C177.669 174.902 178.005 173.293 178.688 171.82C179.293 170.528 180.278 169.449 181.512 168.723C182.826 167.983 184.317 167.611 185.827 167.646C187.587 167.665 189.319 168.079 190.894 168.859L189.71 171.826C189.074 171.525 188.422 171.257 187.757 171.025C187.138 170.804 186.486 170.689 185.829 170.684Z" fill="#703EDB"/>
<path d="M209.639 176.477C209.639 179.326 208.929 181.516 207.508 183.047C206.087 184.578 204.05 185.343 201.398 185.343C198.746 185.343 196.71 184.578 195.289 183.047C193.868 181.517 193.158 179.319 193.158 176.454C193.158 173.588 193.87 171.4 195.295 169.89C196.72 168.379 198.762 167.623 201.422 167.623C204.082 167.623 206.116 168.384 207.526 169.907C208.935 171.431 209.64 173.62 209.639 176.477ZM197.006 176.477C197.006 178.4 197.373 179.848 198.107 180.822C198.842 181.795 199.939 182.282 201.398 182.282C204.327 182.282 205.792 180.347 205.791 176.477C205.791 172.6 204.335 170.661 201.422 170.661C199.962 170.661 198.86 171.149 198.118 172.127C197.375 173.104 197.004 174.554 197.006 176.477Z" fill="#703EDB"/>
<path d="M220.556 185.108L216.388 171.603H216.282C216.431 174.35 216.506 176.183 216.507 177.101V185.108H213.227V167.895H218.223L222.32 181.058H222.391L226.737 167.895H231.733V185.108H228.311V176.96C228.311 176.575 228.317 176.132 228.329 175.629C228.34 175.127 228.394 173.792 228.489 171.626H228.382L223.919 185.108H220.556Z" fill="#703EDB"/>
<path d="M246.06 185.108H236.09V167.895H246.059V170.885H239.761V174.665H245.622V177.654H239.761V182.093H246.06V185.108Z" fill="#703EDB"/>
</g>
</g>
<defs>
<clipPath id="clip0_20_1523">
<rect width="360" height="235" fill="white"/>
</clipPath>
<clipPath id="clip1_20_1523">
<rect width="312" height="173" fill="white" transform="translate(24 31)"/>
</clipPath>
</defs>
</svg>
