<svg width="166" height="219" viewBox="0 0 166 219" fill="none" xmlns="http://www.w3.org/2000/svg">
<g id="Group">
<g id="Group_2">
<path id="Vector" d="M82.9963 218.198C128.607 218.198 165.582 181.224 165.582 135.613C165.582 90.0018 128.607 53.0269 82.9963 53.0269C37.3854 53.0269 0.410522 90.0018 0.410522 135.613C0.410522 181.224 37.3854 218.198 82.9963 218.198Z" fill="url(#paint0_linear_455_13462)"/>
<path id="Vector_2" opacity="0.86" d="M82.9963 218.198C128.607 218.198 165.582 181.224 165.582 135.613C165.582 90.0018 128.607 53.0269 82.9963 53.0269C37.3854 53.0269 0.410522 90.0018 0.410522 135.613C0.410522 181.224 37.3854 218.198 82.9963 218.198Z" fill="white"/>
<path id="Vector_3" opacity="0.1" d="M39.5195 136.883L56.7346 161.385L27.9511 166.174L18.3105 153.165L39.5195 136.883Z" fill="url(#paint1_linear_455_13462)"/>
<path id="Vector_4" opacity="0.1" d="M150.384 99.203L138.815 89.571L125.961 107.761L129.982 112.413L150.384 99.203Z" fill="url(#paint2_linear_455_13462)"/>
<path id="Vector_5" opacity="0.1" d="M32.1286 107.761L42.7666 99.8195L51.7389 114.399L41.3862 119.837L32.1286 107.761Z" fill="#367CFF"/>
<path id="Vector_6" opacity="0.1" d="M94.9113 195.833L107.153 185.871L114.714 195.833L101.081 205.152L94.9113 195.833Z" fill="#367CFF"/>
<path id="Vector_7" opacity="0.1" d="M45.899 123.852L57.0084 115.735L65.8696 127.386L61.0496 132.31L68.2289 141.571L74.8673 136.883L82.6024 146.667L68.2289 157.271L45.899 123.852Z" fill="#367CFF"/>
<path id="Vector_8" d="M165.46 140.123L124.087 168.135L143.145 192.202C142.578 192.807 142.002 193.402 141.415 193.987L122.075 169.564L88.4721 194.614L103.355 215.67C102.498 215.889 101.636 216.092 100.768 216.28L85.7676 195.054L64.7199 165.704L27.8719 173.128L30.8201 199.629C29.8894 198.87 28.9769 198.092 28.0827 197.294L25.3426 172.66L0.870399 144.35C0.72258 142.976 0.61126 141.592 0.536438 140.197L26.985 170.796L63.1431 163.509L12.394 92.7447C12.8538 91.9865 13.3265 91.2364 13.8119 90.4946L65.7921 162.975L66.0768 162.918L103.995 136.236L77.1358 101.368L81.0147 53.0527C81.6744 53.0363 82.335 53.028 82.9966 53.028C83.1608 53.028 83.325 53.028 83.4893 53.0308L79.6679 100.617L106.012 134.816L157.007 98.934C157.379 99.6785 157.739 100.43 158.086 101.19L67.2949 165.072L87.0424 192.607L122.522 166.159L122.554 166.2L165.567 137.077C165.551 138.098 165.515 139.111 165.46 140.123Z" fill="white"/>
</g>
<g id="lokation">
<path id="Vector_9" d="M82.9941 3.51013C56.9993 3.51013 36.0102 24.5212 36.0102 50.4365C36.0102 58.5855 39.1034 67.7642 41.7425 72.9326C50.4058 89.9091 82.4721 137.378 82.4721 137.378C82.5263 137.468 82.6031 137.543 82.6949 137.596C82.7868 137.648 82.8906 137.675 82.9963 137.675C83.1019 137.675 83.2057 137.648 83.2976 137.596C83.3895 137.543 83.4663 137.468 83.5205 137.378C83.5205 137.378 115.586 89.9091 124.25 72.9326C126.888 67.7631 129.982 58.5855 129.982 50.4365C129.982 24.5201 108.993 3.51013 82.9982 3.51013H82.9941Z" fill="url(#paint3_linear_455_13462)"/>
<path id="Vector_10" opacity="0.12" d="M82.9941 3.51013C56.9993 3.51013 36.0102 24.5212 36.0102 50.4365C36.0102 58.5855 39.1034 67.7642 41.7425 72.9326C50.4058 89.9091 82.4721 137.378 82.4721 137.378C82.5263 137.468 82.6031 137.543 82.6949 137.596C82.7868 137.648 82.8906 137.675 82.9963 137.675C83.1019 137.675 83.2057 137.648 83.2976 137.596C83.3895 137.543 83.4663 137.468 83.5205 137.378C83.5205 137.378 115.586 89.9091 124.25 72.9326C126.888 67.7631 129.982 58.5855 129.982 50.4365C129.982 24.5201 108.993 3.51013 82.9982 3.51013H82.9941Z" fill="white"/>
<path id="Vector_11" d="M81.9845 10.8693C82.3218 10.8608 82.6558 10.8693 82.9949 10.8693C88.2043 10.8694 93.3617 11.9048 98.1675 13.9155C102.973 15.9263 107.331 18.8721 110.989 22.5818C114.646 26.2916 117.529 30.6913 119.471 35.5252C121.413 40.359 122.375 45.5307 122.301 50.7396C122.005 71.911 104.726 89.1916 83.5536 89.485C73.1831 89.6063 63.1846 85.6251 55.7359 78.4085C48.2872 71.1919 43.9916 61.3244 43.7846 50.9553C43.5777 40.5861 47.4761 30.5551 54.631 23.047C61.7858 15.5389 71.6174 11.1619 81.9845 10.8693Z" fill="#D3FFC7"/>
<g id="Group_3">
<path id="Vector_12" d="M94.9113 0.623047C94.9113 0.623047 106.284 0.762105 102.363 16.4347L101.295 16.4867L99.1274 16.5924L94.9113 0.623047Z" fill="#0C0C0C"/>
<g id="Group_4">
<path id="sk" d="M82.2128 32.8779C82.2659 32.873 82.4753 42.6485 93.8382 42.2378C101.705 41.9545 104.824 33.7413 105.004 33.7481C104.165 33.5357 102.751 33.219 102.384 33.0041C101.174 32.2924 99.6735 31.5426 99.3677 29.1288C99.192 27.7374 99.8555 20.6801 99.7901 19.2767L87.646 21.497C87.6994 24.4574 88.6112 31.3515 84.4372 32.4032C83.7427 32.5771 82.9974 32.7328 82.2128 32.8779Z" fill="#E98862"/>
<path id="sh" opacity="0.52" d="M87.1582 29.7058C87.3705 29.1054 87.5163 28.4835 87.5929 27.8512C87.7815 26.4092 87.8117 24.9507 87.683 23.5021C90.1429 23.2668 92.4875 22.3462 94.4503 20.8449C94.6419 21.6793 95.7314 25.3342 95.3605 26.1062C94.6586 27.5655 91.5416 29.8761 87.1582 29.7058Z" fill="#070B14"/>
<path id="Vector_13" d="M89.915 27.9788C94.6753 27.6391 100.419 24.7397 100.618 18.2899L100.798 12.4699C100.998 6.02008 97.7719 0.686563 91.6987 0.498505C85.6258 0.31072 80.9249 5.39842 80.7253 11.8491L80.6457 14.4255C80.6338 15.3106 80.6821 16.1954 80.7905 17.0739C81.0599 19.3979 81.4784 22.9319 83.0078 25.3449C84.4534 27.623 86.8735 28.1951 89.915 27.9788Z" fill="#E98862"/>
<path id="Vector_14" d="M100.18 20.2429C102.026 20.3001 103.583 18.3719 103.64 16.5264C103.697 14.6808 102.232 13.6168 100.387 13.5599L99.3976 14.7671L98.5933 20.1939L100.18 20.2429Z" fill="#E98862"/>
<path id="Vector_15" d="M81.0377 19.0215C81.3711 19.4169 81.798 19.7226 82.2797 19.9108C82.7614 20.099 83.2825 20.1637 83.7956 20.099C84.8928 19.9621 85.6212 20.4113 86.5374 20.3207C87.3066 20.2449 87.4407 19.8898 88.7522 19.8121C93.8199 19.511 97.6213 19.1926 97.8691 12.8337L101.094 9.96954C101.094 9.96954 102.535 27.5904 93.0042 29.9327C87.1478 31.372 81.6547 30.8454 80.9485 25.3449C80.3747 20.8756 81.0377 19.0215 81.0377 19.0215Z" fill="#0C0C0C"/>
<path id="Vector_16" d="M83.4384 15.342C83.8517 15.342 84.1868 15.0069 84.1868 14.5936C84.1868 14.1802 83.8517 13.8452 83.4384 13.8452C83.0251 13.8452 82.69 14.1802 82.69 14.5936C82.69 15.0069 83.0251 15.342 83.4384 15.342Z" fill="#0C0C0C"/>
<path id="Vector_17" d="M90.1236 15.2023C90.5369 15.2023 90.872 14.8672 90.872 14.4539C90.872 14.0406 90.5369 13.7055 90.1236 13.7055C89.7103 13.7055 89.3752 14.0406 89.3752 14.4539C89.3752 14.8672 89.7103 15.2023 90.1236 15.2023Z" fill="#0C0C0C"/>
</g>
<path id="Vector_18" d="M98.3976 17.2434C98.3976 17.2434 97.9405 8.10323 95.1825 7.48896C93.346 7.08 88.8277 9.61372 84.7011 8.74816C82.8944 8.36985 81.1677 8.78676 80.9783 9.63945C80.9027 9.97697 79.4727 6.98254 82.3782 3.33881C84.6907 0.437188 92.21 -0.378278 95.5554 0.647693C104.817 3.48882 100.76 13.9689 100.76 13.9689L100.287 17.1087L98.3976 17.2434Z" fill="#0C0C0C"/>
<path id="Vector_19" d="M86.6279 20.0273H86.6159C86.0213 20.0106 85.0255 19.9161 85.0375 19.471C85.0485 19.1023 86.17 15.1514 86.2967 14.7022C86.3012 14.6822 86.3098 14.6632 86.3219 14.6465C86.334 14.6299 86.3494 14.6158 86.367 14.6053C86.3847 14.5948 86.4044 14.5879 86.4248 14.5852C86.4452 14.5825 86.466 14.584 86.4858 14.5896C86.5056 14.5952 86.5241 14.6047 86.5401 14.6177C86.5561 14.6307 86.5693 14.6467 86.5789 14.665C86.5885 14.6832 86.5942 14.7032 86.5958 14.7237C86.5975 14.7442 86.5949 14.7649 86.5882 14.7844C86.0906 16.5338 85.3479 19.2291 85.3405 19.4795C85.3953 19.5863 86.0087 19.707 86.6244 19.7245C86.6645 19.724 86.7032 19.7395 86.7319 19.7676C86.7607 19.7956 86.7771 19.834 86.7775 19.8741C86.778 19.9143 86.7625 19.953 86.7345 19.9817C86.7064 20.0104 86.6681 20.0268 86.6279 20.0273Z" fill="#0C0C0C"/>
<path id="Vector_20" d="M84.8163 12.0511C84.2017 11.8684 83.5492 11.8549 82.9275 12.012C82.6218 12.0872 82.3291 12.2079 82.0592 12.37C81.792 12.5291 81.5459 12.7212 81.3267 12.9418C81.3079 12.9587 81.2926 12.9791 81.2816 13.0019C81.2707 13.0247 81.2644 13.0494 81.263 13.0746C81.2616 13.0998 81.2652 13.1251 81.2736 13.1489C81.2819 13.1728 81.2949 13.1947 81.3118 13.2135C81.3287 13.2323 81.3491 13.2477 81.3718 13.2586C81.3946 13.2695 81.4193 13.2759 81.4445 13.2773C81.4698 13.2786 81.495 13.275 81.5189 13.2667C81.5427 13.2583 81.5647 13.2453 81.5835 13.2284L81.5953 13.2186C81.7994 13.0345 82.0259 12.8768 82.2695 12.7491C82.5093 12.622 82.767 12.5319 83.0337 12.482C83.5602 12.3789 84.1046 12.4166 84.6118 12.5915L84.6313 12.5986C84.7033 12.625 84.7828 12.6217 84.8524 12.5895C84.922 12.5573 84.9759 12.4988 85.0023 12.4268C85.0288 12.3548 85.0255 12.2753 84.9933 12.2057C84.9611 12.1361 84.9025 12.0822 84.8306 12.0557L84.8163 12.0511Z" fill="#0C0C0C"/>
<path id="Vector_21" d="M89.2263 12.5936C89.7141 12.3699 90.2524 12.2791 90.7866 12.3305C91.057 12.3544 91.3222 12.419 91.5733 12.5221C91.8281 12.6256 92.0688 12.7606 92.29 12.924L92.3023 12.9322C92.3226 12.9472 92.3457 12.958 92.3702 12.964C92.3947 12.9701 92.4202 12.9713 92.4452 12.9675C92.4701 12.9637 92.4941 12.955 92.5157 12.942C92.5373 12.9289 92.5561 12.9117 92.5711 12.8914C92.5861 12.8711 92.5969 12.848 92.603 12.8235C92.609 12.799 92.6102 12.7735 92.6064 12.7486C92.6026 12.7236 92.5939 12.6996 92.5809 12.678C92.5678 12.6564 92.5506 12.6376 92.5303 12.6226C92.2908 12.4242 92.0272 12.2568 91.7458 12.1244C91.4614 11.9892 91.1584 11.8975 90.8468 11.8523C90.2132 11.7565 89.5654 11.8333 88.9717 12.0746C88.9367 12.0891 88.9048 12.1105 88.878 12.1373C88.8511 12.1642 88.8299 12.1961 88.8154 12.2312C88.8009 12.2663 88.7934 12.3039 88.7935 12.3418C88.7935 12.3798 88.801 12.4174 88.8156 12.4525C88.8301 12.4875 88.8514 12.5194 88.8783 12.5462C88.9052 12.573 88.9371 12.5943 88.9722 12.6088C89.0072 12.6233 89.0449 12.6308 89.0828 12.6307C89.1208 12.6307 89.1584 12.6232 89.1934 12.6086L89.2074 12.6026L89.2263 12.5936Z" fill="#0C0C0C"/>
<g id="Group_5">
<path id="Vector_22" d="M56.4089 33.1431L56.7336 25.1051C56.7406 24.9285 56.7109 24.7523 56.6462 24.5879C56.5815 24.4234 56.4832 24.2742 56.3577 24.1498C56.2322 24.0253 56.0821 23.9284 55.9171 23.8652C55.752 23.8019 55.5756 23.7737 55.3991 23.7824C55.0735 23.8084 54.7693 23.9545 54.5453 24.1922C54.3214 24.43 54.1938 24.7424 54.1872 25.0689L54.1177 26.7935L51.8487 21.2714C51.6073 20.6533 50.9152 20.0491 50.2397 20.3658C49.972 20.471 49.7478 20.6636 49.6036 20.9125C49.4595 21.1613 49.4038 21.4517 49.4458 21.7362C49.4394 21.737 49.4331 21.7384 49.4269 21.7403C49.4223 21.7425 49.419 21.746 49.4146 21.7485L49.0423 20.7953C48.9733 20.6187 48.8657 20.4598 48.7275 20.33C48.5892 20.2003 48.4237 20.103 48.2431 20.0453C48.0625 19.9876 47.8713 19.9709 47.6834 19.9965C47.4955 20.0221 47.3157 20.0892 47.1571 20.1931C46.9107 20.3618 46.7297 20.6099 46.6444 20.896C46.5591 21.1821 46.5747 21.4889 46.6885 21.7649L46.8459 22.1728C46.8362 22.1827 46.8284 22.1943 46.8229 22.207C46.6522 21.9578 46.3985 21.7774 46.1071 21.6982C45.8157 21.6189 45.5055 21.6458 45.2322 21.7742C44.9371 21.9235 44.7092 22.1786 44.594 22.4885C44.4787 22.7984 44.4845 23.1404 44.6102 23.4462L45.0041 24.4536C44.9885 24.4433 44.9706 24.4369 44.952 24.4348C44.9334 24.4328 44.9146 24.4352 44.8971 24.4418C44.8768 24.4509 44.8595 24.4656 44.8473 24.4842C44.6337 24.3045 44.3669 24.2 44.0881 24.1867C43.8092 24.1734 43.5337 24.252 43.304 24.4106C43.0659 24.5819 42.8926 24.8287 42.8124 25.1108C42.7321 25.3929 42.7494 25.6939 42.8616 25.9649L46.1837 34.4661C46.6485 35.6553 47.4579 36.6786 48.5081 37.4049C49.5582 38.1311 50.8013 38.5272 52.0781 38.5423C53.179 38.5554 54.2416 38.1386 55.0402 37.3807C55.8388 36.6228 56.3105 35.5834 56.355 34.4833L56.4089 33.1431Z" fill="#E98862"/>
<g id="Group_6" opacity="0.2">
<path id="Vector_23" d="M51.6634 27.2115C51.6347 27.2225 51.6029 27.2218 51.5748 27.2096C51.5467 27.1974 51.5244 27.1747 51.5128 27.1464L49.3618 21.8936C49.3557 21.8793 49.3526 21.8639 49.3525 21.8484C49.3524 21.8329 49.3554 21.8175 49.3613 21.8031C49.3673 21.7887 49.376 21.7757 49.387 21.7647C49.398 21.7537 49.411 21.745 49.4254 21.7392C49.4398 21.7333 49.4552 21.7303 49.4708 21.7304C49.4863 21.7305 49.5017 21.7337 49.5159 21.7398C49.5302 21.7459 49.5432 21.7548 49.554 21.7659C49.5649 21.777 49.5734 21.7902 49.5791 21.8046L51.7302 27.0574C51.736 27.0717 51.739 27.087 51.7389 27.1024C51.7389 27.1179 51.7358 27.1332 51.7298 27.1474C51.7238 27.1616 51.7151 27.1746 51.7041 27.1854C51.6931 27.1963 51.6801 27.2049 51.6658 27.2107L51.6634 27.2115Z" fill="#E98862"/>
</g>
<g id="Group_7" opacity="0.2">
<path id="Vector_24" d="M49.373 28.2241C49.3443 28.235 49.3126 28.2343 49.2844 28.2222C49.2563 28.21 49.234 28.1873 49.2224 28.1589L46.8217 22.2968C46.8159 22.2826 46.8129 22.2673 46.8129 22.2519C46.813 22.2365 46.8161 22.2213 46.822 22.207C46.828 22.1928 46.8367 22.1799 46.8476 22.1691C46.8585 22.1582 46.8715 22.1496 46.8858 22.1438C46.9147 22.133 46.9466 22.1337 46.9751 22.1456C47.0036 22.1575 47.0264 22.1797 47.0391 22.2079L49.4398 28.07C49.4515 28.0988 49.4513 28.1312 49.4393 28.1599C49.4272 28.1887 49.4043 28.2114 49.3754 28.2233L49.373 28.2241Z" fill="#E98862"/>
</g>
<g id="Group_8" opacity="0.2">
<path id="Vector_25" d="M46.8984 29.3352C46.8698 29.3461 46.838 29.3454 46.8099 29.3333C46.7817 29.3211 46.7595 29.2984 46.7478 29.27L44.8317 24.594C44.8258 24.5798 44.8229 24.5645 44.8229 24.549C44.823 24.5336 44.8261 24.5183 44.8321 24.5041C44.8381 24.4898 44.8468 24.4769 44.8578 24.4661C44.8687 24.4552 44.8817 24.4466 44.896 24.4407C44.9103 24.4349 44.9256 24.4319 44.941 24.432C44.9565 24.4321 44.9717 24.4352 44.986 24.4412C45.0002 24.4471 45.0131 24.4559 45.024 24.4668C45.0349 24.4778 45.0435 24.4908 45.0493 24.5051L46.9655 29.1811C46.9772 29.2099 46.9771 29.2422 46.9651 29.2709C46.9531 29.2997 46.9302 29.3225 46.9014 29.3344L46.8984 29.3352Z" fill="#E98862"/>
</g>
</g>
<path id="Vector_26" d="M85.3099 21.668C87.1043 21.7872 88.8872 21.3049 90.3768 20.2974C90.4285 20.2631 90.4889 20.2442 90.551 20.2429C90.613 20.2415 90.6742 20.2578 90.7274 20.2897C90.7806 20.3217 90.8236 20.3681 90.8515 20.4235C90.8794 20.4789 90.8911 20.5411 90.8851 20.6029C90.7655 21.6631 90.2416 23.6121 88.018 23.8604C86.5822 24.0205 85.5417 22.9179 85.0175 22.1848C84.9817 22.134 84.9611 22.074 84.958 22.0119C84.9549 21.9498 84.9695 21.888 85.0002 21.8339C85.0308 21.7798 85.0762 21.7354 85.131 21.7061C85.1858 21.6767 85.2479 21.6635 85.3099 21.668Z" fill="white"/>
<path id="Vector_27" d="M120.226 43.782C119.148 40.7188 118.278 39.1914 117.171 37.9834C115.657 36.33 113.378 34.7021 109.153 33.9633C106.572 33.5143 102.682 33.1103 102.682 33.1103C102.682 33.1172 102.681 33.124 102.68 33.1308C102.635 33.5368 101.831 39.7827 94.1962 39.8453C83.6757 39.9332 84.4312 32.7062 84.4087 32.4109C84.4106 32.4051 84.4106 32.4013 84.4087 32.4013C81.1449 32.2743 73.0072 32.2012 69.7303 35.4069C69.3868 35.7405 69.0704 36.1007 68.784 36.4844L68.7391 36.457L61.2275 48.0055L59.3513 32.6707L56.4094 33.142L46.8614 34.672L46.3096 34.7598L42.9075 35.3073L44.0934 44.4983L46.8108 65.5694C49.4625 71.7879 53.6697 77.2196 59.0277 81.3419C61.245 78.2128 64.9131 72.8149 68.7219 67.1573C68.7816 67.0675 68.8415 66.9777 68.9031 66.888V66.8899C68.9031 66.9515 68.905 67.015 68.9069 67.0787C68.9162 67.4828 68.9275 67.941 68.9368 68.4458C69.0266 73.0824 69.1182 81.5811 69.193 86.9995C75.9727 89.5387 83.3228 90.1524 90.4296 88.7726C97.5365 87.3928 104.123 84.0733 109.46 79.1815C109.497 79.1498 109.533 79.1161 109.569 79.0805C109.641 79.017 109.712 78.9516 109.781 78.8862C113.432 75.4803 116.407 71.4151 118.549 66.9046C120.915 61.9185 122.194 56.4858 122.299 50.9676V50.9657L120.226 43.782Z" fill="url(#paint4_linear_455_13462)"/>
<path id="Vector_28" d="M109.779 78.8848C109.71 78.9502 109.639 79.0157 109.568 79.0792C109.532 79.1148 109.497 79.1484 109.458 79.1802L107.429 68.8542L107.427 68.843L104.526 54.0841L104.892 53.9889L109.779 78.8848Z" fill="#070B14"/>
<path id="Vector_29" d="M68.9546 68.4464C68.9072 68.4444 68.8624 68.4248 68.8288 68.3913C68.7952 68.3579 68.7755 68.313 68.7734 68.2657L68.3981 60.0141C68.397 59.9893 68.4007 59.9645 68.4092 59.9411C68.4176 59.9178 68.4306 59.8963 68.4473 59.8779C68.4641 59.8596 68.4843 59.8447 68.5068 59.8342C68.5293 59.8236 68.5537 59.8176 68.5785 59.8165C68.6033 59.8153 68.6281 59.8191 68.6515 59.8276C68.6748 59.836 68.6963 59.849 68.7147 59.8657C68.733 59.8825 68.7479 59.9027 68.7584 59.9252C68.769 59.9477 68.775 59.9721 68.7761 59.9969L69.1514 68.2487C69.1526 68.2735 69.1488 68.2983 69.1403 68.3217C69.1319 68.345 69.1189 68.3665 69.1021 68.3848C69.0854 68.4031 69.0652 68.418 69.0427 68.4285C69.0202 68.439 68.9958 68.445 68.971 68.4461C68.9642 68.4464 68.959 68.4466 68.9546 68.4464Z" fill="#070B14"/>
</g>
</g>
</g>
<defs>
<linearGradient id="paint0_linear_455_13462" x1="0.410522" y1="135.613" x2="165.582" y2="135.613" gradientUnits="userSpaceOnUse">
<stop stop-color="#703EDB"/>
<stop offset="1" stop-color="#9A6AFF"/>
</linearGradient>
<linearGradient id="paint1_linear_455_13462" x1="18.3105" y1="151.528" x2="56.7346" y2="151.528" gradientUnits="userSpaceOnUse">
<stop stop-color="#703EDB"/>
<stop offset="1" stop-color="#9A6AFF"/>
</linearGradient>
<linearGradient id="paint2_linear_455_13462" x1="125.961" y1="100.992" x2="150.384" y2="100.992" gradientUnits="userSpaceOnUse">
<stop stop-color="#703EDB"/>
<stop offset="1" stop-color="#9A6AFF"/>
</linearGradient>
<linearGradient id="paint3_linear_455_13462" x1="36.0102" y1="70.5926" x2="129.982" y2="70.5926" gradientUnits="userSpaceOnUse">
<stop stop-color="#5E38FF"/>
<stop offset="1" stop-color="#7B5CFF"/>
</linearGradient>
<linearGradient id="paint4_linear_455_13462" x1="42.9075" y1="60.9242" x2="122.299" y2="60.9242" gradientUnits="userSpaceOnUse">
<stop stop-color="#703EDB"/>
<stop offset="1" stop-color="#9A6AFF"/>
</linearGradient>
</defs>
</svg>
