<svg width="38" height="32" viewBox="0 0 38 32" fill="none" xmlns="http://www.w3.org/2000/svg">
<path d="M29.0492 10.8613L21.9769 20.1924C21.7062 20.5485 21.2977 20.7568 20.8637 20.7568H12.207L16.8781 14.5929L21.1215 8.99212C21.3922 8.63602 21.8007 8.42773 22.2347 8.42773H27.936C29.1284 8.42773 29.7922 9.879 29.0492 10.86V10.8613Z" fill="#F8635E"/>
<path d="M8.94862 9.8955L16.021 0.564382C16.2916 0.208284 16.7001 0 17.1342 0H25.7921L21.121 6.16386L16.8776 11.7647C16.6069 12.1208 16.1984 12.3291 15.7644 12.3291H10.0618C8.86947 12.3291 8.20564 10.8778 8.94862 9.89684V9.8955Z" fill="#F8635E"/>
<path d="M5.09359 30.0356H4.06911C4.00942 30.0356 3.95678 29.9996 3.9356 29.9461L3.04271 27.6305C3.02217 27.5764 2.96889 27.541 2.90919 27.541H1.85006C1.7833 27.541 1.72488 27.5864 1.71076 27.6498L1.20045 29.9274C1.18633 29.9909 1.12856 30.0362 1.06116 30.0362H0.142594C0.0514441 30.0362 -0.0159556 29.9548 0.00330149 29.8684L1.4617 23.4606C1.47583 23.3972 1.53424 23.3524 1.601 23.3524H4.25976C4.81821 23.3524 5.30092 23.5196 5.70853 23.8535C6.1155 24.1879 6.31898 24.6286 6.31898 25.1763C6.31898 25.7843 6.12384 26.2983 5.73421 26.7192C5.38116 27.1003 4.93632 27.3421 4.39905 27.4434C4.31175 27.4602 4.26168 27.5497 4.29506 27.6299L5.22454 29.846C5.26241 29.9368 5.19373 30.0356 5.0923 30.0356H5.09359ZM3.6185 26.5085H3.63904C4.07361 26.5085 4.41702 26.3935 4.66865 26.1628C4.92027 25.9322 5.04609 25.64 5.04609 25.2863C5.04609 25.0259 4.94595 24.8102 4.74632 24.6398C4.54605 24.4695 4.31175 24.3843 4.04279 24.3843H2.57412C2.50736 24.3843 2.44959 24.4291 2.43483 24.4925L2.01182 26.3412C1.99192 26.4276 2.05996 26.5091 2.15111 26.5091H3.61914L3.6185 26.5085Z" fill="#3A302F"/>
<path d="M8.84589 30.1556C8.06598 30.1556 7.4504 29.9616 6.99914 29.5743C6.54724 29.1871 6.32129 28.6593 6.32129 27.991C6.32129 27.1891 6.59538 26.5028 7.14357 25.9316C7.69175 25.3603 8.3696 25.075 9.17647 25.075C9.83185 25.075 10.3627 25.2701 10.7697 25.6612C11.1766 26.0522 11.3801 26.5712 11.3801 27.2196C11.3801 27.4459 11.3577 27.6578 11.3134 27.8555C11.2992 27.9177 11.2408 27.9612 11.1747 27.9612H7.41702C7.41702 27.968 7.41509 27.9929 7.41188 28.0364C7.40803 28.0799 7.40675 28.1116 7.40675 28.1315C7.40675 28.4324 7.5409 28.7009 7.8105 28.9384C8.07946 29.1759 8.45176 29.294 8.92806 29.294C9.40435 29.294 9.79398 29.1908 10.1278 28.985C10.2009 28.9397 10.2979 28.9676 10.3332 29.0441L10.5559 29.5203C10.5842 29.5806 10.5649 29.6533 10.5078 29.6906C10.0321 30.0008 9.47817 30.1556 8.84525 30.1556H8.84589ZM7.71486 27.2196H10.2658C10.3441 27.2196 10.4083 27.1587 10.4083 27.0835C10.4083 27.0822 10.4083 27.081 10.4083 27.0797C10.4083 26.7527 10.2947 26.4805 10.0668 26.2629C9.83892 26.0459 9.51476 25.9372 9.09431 25.9372C8.70788 25.9372 8.36832 26.064 8.07497 26.3176C7.83425 26.5258 7.66928 26.7658 7.57942 27.0368C7.54989 27.127 7.61665 27.2196 7.71422 27.2196H7.71486Z" fill="#3A302F"/>
<path d="M14.7009 25.075C15.0526 25.075 15.3749 25.1471 15.6682 25.2907C15.8666 25.3876 16.0354 25.5101 16.1753 25.6574C16.2543 25.7407 16.3968 25.7072 16.4218 25.5965L16.4873 25.3043C16.5014 25.2409 16.5592 25.1955 16.6266 25.1955H17.4206C17.5117 25.1955 17.5791 25.277 17.5599 25.3634L16.5155 29.9274C16.5008 29.9908 16.443 30.0356 16.3762 30.0356H15.5809C15.4898 30.0356 15.4224 29.9542 15.4416 29.8684L15.4435 29.8609C15.4731 29.731 15.3164 29.6427 15.2105 29.7279C14.8549 30.0132 14.4467 30.1562 13.9864 30.1562C13.4068 30.1562 12.9427 29.9809 12.5948 29.6303C12.2462 29.2797 12.0723 28.7905 12.0723 28.1626C12.0723 27.6485 12.1724 27.1587 12.3727 26.6943C12.5729 26.2299 12.8779 25.8445 13.2887 25.5368C13.6988 25.2297 14.17 25.0756 14.7009 25.0756V25.075ZM14.8665 26.0068C14.3908 26.0068 13.9954 26.2007 13.6815 26.588C13.3676 26.9753 13.211 27.4297 13.211 27.9506C13.211 28.3379 13.3246 28.6469 13.5525 28.8775C13.7804 29.1081 14.0769 29.2231 14.4422 29.2231C14.697 29.2231 14.9403 29.1597 15.1714 29.0329C15.3928 28.9111 15.5777 28.7557 15.7266 28.5667C15.7395 28.5505 15.7484 28.5312 15.7529 28.5113L16.1676 26.7235C16.1759 26.6875 16.1702 26.6496 16.1496 26.6191C16.0334 26.4475 15.8698 26.3052 15.6586 26.192C15.4275 26.0683 15.1637 26.0068 14.8671 26.0068H14.8665Z" fill="#3A302F"/>
<path d="M18.8689 30.0351H18.0742C17.9831 30.0351 17.9157 29.9537 17.9349 29.8673L19.3933 23.4595C19.4075 23.3961 19.4659 23.3513 19.5326 23.3513H20.3273C20.4185 23.3513 20.4859 23.4328 20.4666 23.5192L19.0082 29.927C18.9941 29.9904 18.9357 30.0351 18.8689 30.0351Z" fill="#3A302F"/>
<path d="M21.5188 30.0351H20.5996C20.5085 30.0351 20.4411 29.9537 20.4603 29.8673L21.9187 23.4595C21.9329 23.3961 21.9913 23.3513 22.058 23.3513H24.7168C25.3581 23.3513 25.86 23.5235 26.222 23.8673C26.5841 24.2117 26.7651 24.6406 26.7651 25.1547C26.7651 25.3685 26.7356 25.5805 26.6772 25.7912C26.6187 26.002 26.5199 26.2139 26.3825 26.4278C26.2445 26.6416 26.0738 26.8287 25.8703 26.9891C25.6668 27.1495 25.4049 27.2813 25.084 27.3851C24.763 27.4889 24.4029 27.5405 24.003 27.5405H22.3167C22.25 27.5405 22.1922 27.5853 22.1774 27.6487L21.6575 29.9276C21.6434 29.991 21.5849 30.0358 21.5182 30.0358L21.5188 30.0351ZM22.4682 26.3401C22.4483 26.4265 22.5163 26.508 22.6075 26.508H24.0858C24.5204 26.508 24.8651 26.3892 25.1205 26.1524C25.3754 25.9156 25.5031 25.6197 25.5031 25.2653C25.5031 25.0185 25.41 24.8097 25.2239 24.6393C25.0377 24.469 24.8028 24.3839 24.5204 24.3839H23.0312C22.9644 24.3839 22.9066 24.4286 22.8919 24.492L22.4688 26.3408L22.4682 26.3401Z" fill="#F8635E"/>
<path d="M29.2897 25.075C29.6415 25.075 29.9637 25.1471 30.2571 25.2907C30.4554 25.3876 30.6242 25.5101 30.7642 25.6574C30.8431 25.7407 30.9856 25.7072 31.0107 25.5965L31.0761 25.3043C31.0903 25.2409 31.148 25.1955 31.2154 25.1955H32.0095C32.1006 25.1955 32.168 25.277 32.1488 25.3634L31.1044 29.9274C31.0896 29.9908 31.0318 30.0356 30.9651 30.0356H30.1698C30.0786 30.0356 30.0112 29.9542 30.0305 29.8684L30.0324 29.8609C30.0619 29.731 29.9053 29.6427 29.7994 29.7279C29.4438 30.0132 29.0355 30.1562 28.5753 30.1562C27.9956 30.1562 27.5315 29.9809 27.1836 29.6303C26.8351 29.2797 26.6611 28.7905 26.6611 28.1626C26.6611 27.6485 26.7613 27.1587 26.9615 26.6943C27.1618 26.2299 27.4667 25.8445 27.8775 25.5368C28.2877 25.2297 28.7589 25.0756 29.2897 25.0756V25.075ZM29.4553 26.0068C28.9797 26.0068 28.5843 26.2007 28.2704 26.588C27.9565 26.9753 27.7999 27.4297 27.7999 27.9506C27.7999 28.3379 27.9135 28.6469 28.1414 28.8775C28.3692 29.1081 28.6658 29.2231 29.031 29.2231C29.2859 29.2231 29.5292 29.1597 29.7602 29.0329C29.9817 28.9111 30.1666 28.7557 30.3155 28.5667C30.3283 28.5505 30.3373 28.5312 30.3418 28.5113L30.7565 26.7235C30.7648 26.6875 30.759 26.6496 30.7385 26.6191C30.6223 26.4475 30.4586 26.3052 30.2474 26.192C30.0164 26.0683 29.7525 26.0068 29.456 26.0068H29.4553Z" fill="#F8635E"/>
<path d="M31.9092 31.7501L32.1679 31.0918C32.1935 31.0271 32.2648 30.9886 32.3335 31.006C32.4394 31.0333 32.5658 31.047 32.7135 31.047C32.9754 31.047 33.2 30.9134 33.3862 30.646L33.7482 30.1108C33.7681 30.081 33.7758 30.0456 33.7694 30.0107L32.8996 25.3578C32.8836 25.2733 32.951 25.1956 33.0396 25.1956H33.876C33.9459 25.1956 34.005 25.2447 34.0165 25.3112L34.5551 28.4585C34.5769 28.5847 34.7483 28.617 34.817 28.5082L36.873 25.2621C36.8987 25.221 36.9449 25.1962 36.9943 25.1962H37.8564C37.9687 25.1962 38.0368 25.3162 37.9771 25.4075L34.3901 30.9078C34.1346 31.295 33.8695 31.5741 33.5935 31.7445C33.3175 31.9148 32.9895 32 32.6108 32C32.3867 32 32.1852 31.9782 32.0067 31.9341C31.9246 31.9136 31.8796 31.8278 31.9098 31.7507L31.9092 31.7501Z" fill="#F8635E"/>
</svg>
