<svg width="24" height="24" viewBox="0 0 24 24" fill="none" xmlns="http://www.w3.org/2000/svg">
    <path
        d="M12 0C9.62663 0 7.30655 0.703788 5.33316 2.02236C3.35977 3.34094 1.8217 5.21509 0.913451 7.4078C0.00519943 9.60051 -0.232441 12.0133 0.230582 14.3411C0.693605 16.6689 1.83649 18.8071 3.51472 20.4853C5.19295 22.1635 7.33115 23.3064 9.65892 23.7694C11.9867 24.2324 14.3995 23.9948 16.5922 23.0866C18.7849 22.1783 20.6591 20.6402 21.9776 18.6668C23.2962 16.6935 24 14.3734 24 12C23.9963 8.81854 22.7308 5.76844 20.4812 3.51881C18.2316 1.26918 15.1815 0.00370522 12 0ZM12 1.8C14.0174 1.8 15.9894 2.39822 17.6668 3.51901C19.3442 4.6398 20.6516 6.23282 21.4236 8.09663C22.1956 9.96043 22.3976 12.0113 22.004 13.9899C21.6104 15.9685 20.639 17.786 19.2125 19.2125C17.786 20.639 15.9685 21.6104 13.9899 22.004C12.0113 22.3976 9.96044 22.1956 8.09663 21.4236C6.23283 20.6516 4.63981 19.3442 3.51902 17.6668C2.39823 15.9894 1.80001 14.0174 1.80001 12C1.79816 10.66 2.06073 9.3328 2.57268 8.09445C3.08463 6.8561 3.83588 5.73093 4.78341 4.7834C5.73093 3.83588 6.8561 3.08462 8.09445 2.57267C9.33281 2.06073 10.66 1.79816 12 1.8ZM11.986 5.987C11.7475 5.99069 11.5202 6.08892 11.354 6.26012C11.1879 6.43132 11.0965 6.66147 11.1 6.9V11.1H6.90001C6.66131 11.1 6.43239 11.1948 6.26361 11.3636C6.09483 11.5324 6.00001 11.7613 6.00001 12C6.00001 12.2387 6.09483 12.4676 6.26361 12.6364C6.43239 12.8052 6.66131 12.9 6.90001 12.9H11.1V17.1C11.1 17.3387 11.1948 17.5676 11.3636 17.7364C11.5324 17.9052 11.7613 18 12 18C12.2387 18 12.4676 17.9052 12.6364 17.7364C12.8052 17.5676 12.9 17.3387 12.9 17.1V12.9H17.1C17.3387 12.9 17.5676 12.8052 17.7364 12.6364C17.9052 12.4676 18 12.2387 18 12C18 11.7613 17.9052 11.5324 17.7364 11.3636C17.5676 11.1948 17.3387 11.1 17.1 11.1H12.9V6.9C12.9018 6.77953 12.8793 6.65994 12.834 6.54831C12.7887 6.43668 12.7214 6.33529 12.6361 6.25015C12.5509 6.165 12.4494 6.09784 12.3378 6.05263C12.2261 6.00743 12.1065 5.98511 11.986 5.987Z"
        fill="#9EABBE" />
</svg>