<svg width="256" height="256" viewBox="0 0 256 256" fill="none" xmlns="http://www.w3.org/2000/svg">
<circle cx="128" cy="128" r="128" fill="url(#paint0_linear_603_20492)"/>
<path d="M93.1011 127.032L53.332 144.076C62.4221 171.346 90.8286 191.799 110.145 200.889L127.189 161.12L93.1011 127.032Z" fill="white"/>
<path d="M133.352 153.653C135.463 151.542 137.136 149.037 138.279 146.28C139.421 143.523 140.008 140.568 140.008 137.584C140.008 134.599 139.421 131.644 138.279 128.887C137.136 126.13 135.463 123.625 133.352 121.514C131.242 119.404 128.737 117.73 125.98 116.588C123.223 115.446 120.268 114.858 117.283 114.858C114.299 114.858 111.344 115.446 108.587 116.588C105.83 117.73 103.324 119.404 101.214 121.514L117.283 137.584L133.352 153.653Z" fill="white"/>
<path d="M200.884 60.1544L136.278 124.76L135.142 125.896L128.324 119.078L194.067 53.334L200.884 60.1544Z" fill="white"/>
<defs>
<linearGradient id="paint0_linear_603_20492" x1="0" y1="128" x2="256" y2="128" gradientUnits="userSpaceOnUse">
<stop stop-color="#703EDB"/>
<stop offset="1" stop-color="#9A6AFF"/>
</linearGradient>
</defs>
</svg>
