<svg width="256" height="256" viewBox="0 0 256 256" fill="none" xmlns="http://www.w3.org/2000/svg">
<circle cx="128" cy="128" r="128" fill="url(#paint0_linear_603_20488)"/>
<path fill-rule="evenodd" clip-rule="evenodd" d="M60.6435 95.4092H49.7793V164.94H60.6435V156.248H75.8503V104.1H60.6435V95.4092Z" fill="white"/>
<path d="M105.184 119.31H82.3691V141.038H112.789C118.004 141.038 120.756 143.211 121.48 144.298C123.291 146.108 127.781 149.947 131.258 150.816C135.604 151.903 141.76 151.903 145.381 147.557C149.003 143.211 150.814 141.038 157.332 141.038H174.715C178.191 141.038 179.06 143.935 179.06 145.384V156.248H201.875V138.866C200.137 124.09 187.39 119.672 181.233 119.31H167.11C160.157 119.31 158.419 113.516 158.419 110.619V100.841H112.789V110.619C112.789 116.703 107.719 118.948 105.184 119.31Z" fill="white"/>
<path fill-rule="evenodd" clip-rule="evenodd" d="M130.175 49.7783H141.04V58.4693L158.425 58.4693V69.3335L141.04 69.3335V78.0252H149.731V91.0623H121.484L121.484 78.0252L130.175 78.0252V69.3335L112.795 69.3335L112.795 58.4693L130.175 58.4693V49.7783Z" fill="white"/>
<path d="M206.223 191.012C206.223 199.412 199.413 206.222 191.013 206.222C182.613 206.222 174.717 199.412 174.717 191.012C174.717 182.612 185.581 175.802 189.927 168.197C195.359 175.802 206.223 182.612 206.223 191.012Z" fill="white"/>
<defs>
<linearGradient id="paint0_linear_603_20488" x1="0" y1="128" x2="256" y2="128" gradientUnits="userSpaceOnUse">
<stop stop-color="#703EDB"/>
<stop offset="1" stop-color="#9A6AFF"/>
</linearGradient>
</defs>
</svg>
