<svg width="10" height="10" viewBox="0 0 10 10" fill="none" xmlns="http://www.w3.org/2000/svg">
<g clip-path="url(#clip0_772_12022)">
<path d="M7.91667 1.66667H7.45833C7.36163 1.19642 7.10576 0.773894 6.73385 0.470299C6.36195 0.166704 5.89675 0.000606052 5.41667 0L4.58333 0C4.10325 0.000606052 3.63805 0.166704 3.26615 0.470299C2.89424 0.773894 2.63837 1.19642 2.54167 1.66667H2.08333C1.531 1.66733 1.00148 1.88703 0.610925 2.27759C0.220367 2.66815 0.000661607 3.19767 0 3.75L0 7.91667C0.000661607 8.469 0.220367 8.99852 0.610925 9.38908C1.00148 9.77963 1.531 9.99934 2.08333 10H7.91667C8.469 9.99934 8.99852 9.77963 9.38908 9.38908C9.77963 8.99852 9.99934 8.469 10 7.91667V3.75C9.99934 3.19767 9.77963 2.66815 9.38908 2.27759C8.99852 1.88703 8.469 1.66733 7.91667 1.66667ZM4.58333 0.833333H5.41667C5.67427 0.834401 5.92526 0.915035 6.13529 1.0642C6.34532 1.21337 6.50413 1.42379 6.59 1.66667H3.41C3.49587 1.42379 3.65468 1.21337 3.86471 1.0642C4.07474 0.915035 4.32572 0.834401 4.58333 0.833333ZM2.08333 2.5H7.91667C8.24819 2.5 8.56613 2.6317 8.80055 2.86612C9.03497 3.10054 9.16667 3.41848 9.16667 3.75V5H0.833333V3.75C0.833333 3.41848 0.965029 3.10054 1.19945 2.86612C1.43387 2.6317 1.75181 2.5 2.08333 2.5ZM7.91667 9.16667H2.08333C1.75181 9.16667 1.43387 9.03497 1.19945 8.80055C0.965029 8.56613 0.833333 8.24819 0.833333 7.91667V5.83333H4.58333V6.25C4.58333 6.36051 4.62723 6.46649 4.70537 6.54463C4.78351 6.62277 4.88949 6.66667 5 6.66667C5.11051 6.66667 5.21649 6.62277 5.29463 6.54463C5.37277 6.46649 5.41667 6.36051 5.41667 6.25V5.83333H9.16667V7.91667C9.16667 8.24819 9.03497 8.56613 8.80055 8.80055C8.56613 9.03497 8.24819 9.16667 7.91667 9.16667Z" fill="#2A174E"/>
</g>
<defs>
<clipPath id="clip0_772_12022">
<rect width="10" height="10" fill="white"/>
</clipPath>
</defs>
</svg>
