<svg width="10" height="8" viewBox="0 0 10 8" fill="none" xmlns="http://www.w3.org/2000/svg">
<path d="M7.91667 0.25H2.08333C1.531 0.250662 1.00148 0.470367 0.610925 0.860925C0.220367 1.25148 0.000661607 1.781 0 2.33333L0 5.66667C0.000661607 6.219 0.220367 6.74852 0.610925 7.13908C1.00148 7.52963 1.531 7.74934 2.08333 7.75H7.91667C8.469 7.74934 8.99852 7.52963 9.38908 7.13908C9.77963 6.74852 9.99934 6.219 10 5.66667V2.33333C9.99934 1.781 9.77963 1.25148 9.38908 0.860925C8.99852 0.470367 8.469 0.250662 7.91667 0.25ZM2.08333 1.08333H7.91667C8.24819 1.08333 8.56613 1.21503 8.80055 1.44945C9.03497 1.68387 9.16667 2.00181 9.16667 2.33333H0.833333C0.833333 2.00181 0.965029 1.68387 1.19945 1.44945C1.43387 1.21503 1.75181 1.08333 2.08333 1.08333ZM7.91667 6.91667H2.08333C1.75181 6.91667 1.43387 6.78497 1.19945 6.55055C0.965029 6.31613 0.833333 5.99819 0.833333 5.66667V3.16667H9.16667V5.66667C9.16667 5.99819 9.03497 6.31613 8.80055 6.55055C8.56613 6.78497 8.24819 6.91667 7.91667 6.91667Z" fill="#2A174E"/>
</svg>
