<svg width="10" height="11" viewBox="0 0 10 11" fill="none" xmlns="http://www.w3.org/2000/svg">
<path d="M7.91667 1.33333H7.5V0.916667C7.5 0.80616 7.4561 0.700179 7.37796 0.622039C7.29982 0.543899 7.19384 0.5 7.08333 0.5C6.97283 0.5 6.86685 0.543899 6.7887 0.622039C6.71057 0.700179 6.66667 0.80616 6.66667 0.916667V1.33333H3.33333V0.916667C3.33333 0.80616 3.28943 0.700179 3.21129 0.622039C3.13315 0.543899 3.02717 0.5 2.91667 0.5C2.80616 0.5 2.70018 0.543899 2.62204 0.622039C2.5439 0.700179 2.5 0.80616 2.5 0.916667V1.33333H2.08333C1.531 1.33399 1.00148 1.5537 0.610925 1.94426C0.220367 2.33482 0.000661607 2.86434 0 3.41667L0 8.41667C0.000661607 8.969 0.220367 9.49852 0.610925 9.88908C1.00148 10.2796 1.531 10.4993 2.08333 10.5H7.91667C8.469 10.4993 8.99852 10.2796 9.38908 9.88908C9.77963 9.49852 9.99934 8.969 10 8.41667V3.41667C9.99934 2.86434 9.77963 2.33482 9.38908 1.94426C8.99852 1.5537 8.469 1.33399 7.91667 1.33333ZM0.833333 3.41667C0.833333 3.08515 0.965029 2.7672 1.19945 2.53278C1.43387 2.29836 1.75181 2.16667 2.08333 2.16667H7.91667C8.24819 2.16667 8.56613 2.29836 8.80055 2.53278C9.03497 2.7672 9.16667 3.08515 9.16667 3.41667V3.83333H0.833333V3.41667ZM7.91667 9.66667H2.08333C1.75181 9.66667 1.43387 9.53497 1.19945 9.30055C0.965029 9.06613 0.833333 8.74819 0.833333 8.41667V4.66667H9.16667V8.41667C9.16667 8.74819 9.03497 9.06613 8.80055 9.30055C8.56613 9.53497 8.24819 9.66667 7.91667 9.66667Z" fill="#2A174E"/>
</svg>
