<svg width="10" height="11" viewBox="0 0 10 11" fill="none" xmlns="http://www.w3.org/2000/svg">
<g clip-path="url(#clip0_772_12033)">
<path d="M4.99963 5.5C5.32926 5.5 5.65149 5.40225 5.92558 5.21912C6.19966 5.03598 6.41328 4.77568 6.53943 4.47114C6.66557 4.1666 6.69858 3.83148 6.63427 3.50818C6.56996 3.18488 6.41123 2.88791 6.17814 2.65482C5.94505 2.42173 5.64808 2.263 5.32478 2.19869C5.00148 2.13438 4.66636 2.16739 4.36182 2.29353C4.05728 2.41968 3.79698 2.6333 3.61384 2.90738C3.43071 3.18146 3.33296 3.5037 3.33296 3.83333C3.33296 4.27536 3.50855 4.69928 3.82112 5.01185C4.13368 5.32441 4.5576 5.5 4.99963 5.5ZM4.99963 3C5.16444 3 5.32556 3.04887 5.4626 3.14044C5.59964 3.23201 5.70645 3.36216 5.76953 3.51443C5.8326 3.6667 5.8491 3.83426 5.81695 3.99591C5.78479 4.15756 5.70543 4.30605 5.58888 4.42259C5.47234 4.53913 5.32385 4.6185 5.1622 4.65065C5.00055 4.68281 4.833 4.66631 4.68072 4.60323C4.52845 4.54016 4.3983 4.43335 4.30674 4.29631C4.21517 4.15927 4.16629 3.99815 4.16629 3.83333C4.16629 3.61232 4.25409 3.40036 4.41037 3.24408C4.56665 3.0878 4.77861 3 4.99963 3ZM8.60796 4.31542L8.30838 4.21583C8.36229 3.74913 8.31693 3.27631 8.17529 2.82837C8.03365 2.38043 7.79892 1.96748 7.4865 1.61662C7.17408 1.26576 6.79101 0.9849 6.36243 0.792464C5.93385 0.600028 5.46943 0.500361 4.99963 0.5C4.52369 0.500184 4.05333 0.602373 3.62022 0.799681C3.18711 0.99699 2.80132 1.28484 2.48884 1.64382C2.17637 2.00281 1.94446 2.4246 1.80876 2.88078C1.67305 3.33696 1.63669 3.81692 1.70213 4.28833C1.30339 4.36268 0.934679 4.5508 0.64046 4.83C0.436782 5.02364 0.274864 5.2569 0.164659 5.51543C0.0544545 5.77396 -0.0017073 6.0523 -0.000373517 6.33333V8.03125C0.000502148 8.4818 0.14704 8.92 0.417373 9.28044C0.687705 9.64088 1.06734 9.90425 1.49963 10.0312L2.69546 10.4062C2.89632 10.4688 3.10552 10.5004 3.31588 10.5C3.50671 10.4998 3.69662 10.4737 3.88046 10.4225L6.28879 9.71C6.50334 9.65144 6.72966 9.65144 6.94421 9.71L7.93879 10.0433C8.18392 10.103 8.43939 10.1062 8.68595 10.0528C8.9325 9.99938 9.16371 9.89067 9.36215 9.73488C9.56058 9.5791 9.72106 9.38029 9.83149 9.15347C9.94191 8.92664 9.9994 8.6777 9.99963 8.42542V6.28C9.99868 5.84892 9.86443 5.42868 9.61528 5.07689C9.36614 4.7251 9.01429 4.45898 8.60796 4.315V4.31542ZM3.23213 2.0675C3.4639 1.83479 3.73935 1.65013 4.04266 1.52414C4.34597 1.39814 4.67118 1.33328 4.99963 1.33328C5.32807 1.33328 5.65328 1.39814 5.95659 1.52414C6.25991 1.65013 6.53535 1.83479 6.76713 2.0675C7.23469 2.53798 7.49751 3.17409 7.49837 3.83739C7.49923 4.50069 7.23806 5.13748 6.77171 5.60917L5.29129 7.04875C5.21403 7.12451 5.11013 7.16694 5.00192 7.16694C4.89371 7.16694 4.78981 7.12451 4.71254 7.04875L3.23213 5.61542C2.76357 5.14391 2.50059 4.50618 2.50059 3.84146C2.50059 3.17673 2.76357 2.539 3.23213 2.0675ZM9.16629 8.42542C9.16655 8.55162 9.13801 8.67621 9.08284 8.78972C9.02768 8.90322 8.94735 9.00264 8.84796 9.08042C8.75405 9.15592 8.64466 9.20981 8.52756 9.23826C8.41047 9.2667 8.28855 9.26901 8.17046 9.245L7.19338 8.91667C6.82379 8.81049 6.4321 8.80818 6.06129 8.91L3.65129 9.62167C3.41974 9.68554 3.17469 9.68134 2.94546 9.60958L1.73963 9.23458C1.47865 9.15911 1.24919 9.00103 1.08571 8.78405C0.922226 8.56707 0.833538 8.30292 0.83296 8.03125V6.33333C0.832023 6.16491 0.865547 5.99807 0.931469 5.84309C0.997392 5.6881 1.09432 5.54823 1.21629 5.43208C1.40723 5.25011 1.65047 5.13265 1.91171 5.09625C2.07967 5.51258 2.32978 5.89079 2.64713 6.20833L4.13338 7.64708C4.36567 7.87454 4.67785 8.00193 5.00296 8.00193C5.32807 8.00193 5.64025 7.87454 5.87254 7.64708L7.35713 6.20417C7.68952 5.87043 7.94704 5.46974 8.11254 5.02875L8.33629 5.10292C8.57895 5.18987 8.78887 5.34957 8.93741 5.56022C9.08595 5.77088 9.16588 6.02224 9.16629 6.28V8.42542Z" fill="#2A174E"/>
</g>
<defs>
<clipPath id="clip0_772_12033">
<rect width="10" height="10" fill="white" transform="translate(0 0.5)"/>
</clipPath>
</defs>
</svg>
