<svg width="18" height="18" viewBox="0 0 18 18" fill="none" xmlns="http://www.w3.org/2000/svg">
    <g clip-path="url(#clip0_4164_21748)">
        <path
            d="M7.3125 5.625V14.324C7.3125 14.4166 7.28964 14.5077 7.24594 14.5894C7.20225 14.671 7.13907 14.7406 7.06202 14.792L6.28913 15.3072C6.21413 15.3572 6.12821 15.3885 6.03861 15.3983C5.94901 15.4082 5.85836 15.3964 5.77428 15.3639C5.6902 15.3314 5.61517 15.2791 5.5555 15.2116C5.49583 15.144 5.45327 15.0631 5.43141 14.9756L4.5 11.25"
            stroke="#AEB2CD" stroke-width="1.35" stroke-linecap="round" stroke-linejoin="round" />
        <path
            d="M4.5 11.2495C3.75408 11.2495 3.03871 10.9532 2.51126 10.4258C1.98382 9.89832 1.6875 9.18295 1.6875 8.43703C1.6875 7.69111 1.98382 6.97574 2.51126 6.44829C3.03871 5.92085 3.75408 5.62453 4.5 5.62453H7.3125C7.3125 5.62453 11.1411 5.62453 14.8255 2.53446C14.9074 2.4655 15.0073 2.42136 15.1135 2.40725C15.2197 2.39314 15.3277 2.40963 15.4248 2.4548C15.5219 2.49996 15.6041 2.57191 15.6617 2.6622C15.7193 2.75248 15.7499 2.85734 15.75 2.96444V13.9096C15.7499 14.0167 15.7193 14.1216 15.6617 14.2119C15.6041 14.3021 15.5219 14.3741 15.4248 14.4193C15.3277 14.4644 15.2197 14.4809 15.1135 14.4668C15.0073 14.4527 14.9074 14.4086 14.8255 14.3396C11.1411 11.2495 7.3125 11.2495 7.3125 11.2495H4.5Z"
            stroke="#AEB2CD" stroke-width="1.35" stroke-linecap="round" stroke-linejoin="round" />
    </g>
    <defs>
        <clipPath id="clip0_4164_21748">
            <rect width="18" height="18" fill="white" transform="matrix(-1 0 0 1 18 0)" />
        </clipPath>
    </defs>
</svg>
