<svg width="20" height="18" viewBox="0 0 20 18" fill="none" xmlns="http://www.w3.org/2000/svg">
    <path
        d="M11.6523 16.6042C11.6523 16.6039 11.6522 16.6035 11.652 16.6031L11.4435 16.2289C10.8137 15.0986 9.18783 15.0986 8.5581 16.2289L8.34928 16.6037C8.2001 16.8712 7.95458 17.0663 7.66666 17.1464C7.37874 17.2264 7.07194 17.1847 6.81366 17.0304L4.86403 15.8644C4.60565 15.7097 4.41711 15.4551 4.3399 15.1563C4.26268 14.8576 4.3031 14.5394 4.45228 14.2715L4.49616 14.1928C5.21691 12.8992 4.28164 11.3074 2.80078 11.3074V11.3074C2.50241 11.3074 2.21626 11.1846 2.00529 10.9659C1.79431 10.7472 1.67578 10.4506 1.67578 10.1414V7.80926C1.67578 7.5 1.79431 7.20341 2.00529 6.98474C2.21626 6.76606 2.50241 6.64321 2.80078 6.64321V6.64321C4.28164 6.64321 5.21691 5.05145 4.49616 3.75784L4.45228 3.67909C4.37824 3.54643 4.33016 3.39994 4.31078 3.24801C4.2914 3.09607 4.30111 2.94167 4.33935 2.79362C4.3776 2.64558 4.44362 2.5068 4.53365 2.38522C4.62368 2.26365 4.73594 2.16166 4.86403 2.08509L6.81253 0.919037C7.07092 0.764415 7.37799 0.722513 7.66618 0.802549C7.95437 0.882584 8.20009 1.078 8.34928 1.34581V1.34581C9.07015 2.64013 10.9322 2.63992 11.6534 1.34581V1.34581C11.8026 1.07832 12.0481 0.883127 12.336 0.803109C12.624 0.72309 12.9307 0.764785 13.189 0.919037L15.1387 2.08509C15.3967 2.23972 15.5851 2.4942 15.6623 2.79263C15.7395 3.09106 15.6992 3.40905 15.5504 3.67676L15.5053 3.75776C14.7846 5.05145 15.7199 6.64321 17.2008 6.64321V6.64321C17.4992 6.64321 17.7853 6.76606 17.9963 6.98474C18.2073 7.20341 18.3258 7.5 18.3258 7.80926V10.1414C18.3258 10.4506 18.2073 10.7472 17.9963 10.9659C17.7853 11.1846 17.4992 11.3074 17.2008 11.3074V11.3074C15.7198 11.3074 14.7843 12.8992 15.5049 14.1931L15.5493 14.2727C15.6985 14.5405 15.7389 14.8588 15.6617 15.1575C15.5845 15.4562 15.3959 15.7109 15.1375 15.8655L13.189 17.0316C12.9306 17.1862 12.6236 17.2281 12.3354 17.1481C12.0474 17.0681 11.8018 16.8729 11.6526 16.6053C11.6524 16.605 11.6523 16.6046 11.6523 16.6042V16.6042Z"
        stroke="#AEB2CD" stroke-width="1.5" stroke-linejoin="round" />
    <circle cx="10" cy="9" r="2.625" stroke="#AEB2CD" stroke-width="1.5" />
</svg>
